<svg width="120" height="74" viewBox="0 0 120 74" fill="none" xmlns="http://www.w3.org/2000/svg">
<g clip-path="url(#clip0_42_462)">
<path d="M97.8289 70.7645L96.5879 70.4736L97.3384 64.7551L99.1698 65.1843L97.8289 70.7645Z" fill="#FFB6B6"/>
<path d="M92.9293 72.2392C92.8753 72.4475 92.9793 72.6548 93.1617 72.7021L95.61 73.3373C95.61 73.3373 96.1022 72.4316 97.1927 72.2698L96.901 73.6723L98.164 74L98.589 71.7334C98.589 71.7334 99.2361 70.6296 98.6925 69.8386C98.149 69.0475 98.6953 69.2797 98.6953 69.2797L98.777 67.8298L96.8103 67.559L96.2347 69.719L94.751 71.6262L93.2184 71.9447C93.082 71.973 92.9684 72.0888 92.9293 72.2392Z" fill="#2F2E41"/>
<path d="M109.726 69.4152L108.594 70.0013L105.443 65.1698L107.114 64.3048L109.726 69.4152Z" fill="#FFB6B6"/>
<path d="M106.964 73.7216C107.058 73.915 107.272 74.0048 107.441 73.9221L109.714 72.8124C109.714 72.8124 109.499 71.8044 110.222 70.9723L110.913 72.2273L112.085 71.6548L110.933 69.6568C110.933 69.6568 110.707 68.3977 109.779 68.1503C108.852 67.903 109.418 67.7241 109.418 67.7241L108.536 66.5697L106.866 67.643L107.835 69.6579L107.949 72.0714L106.992 73.3099C106.907 73.4202 106.896 73.582 106.964 73.7216Z" fill="#2F2E41"/>
<path d="M43.3473 48.1759H76.2416C76.6558 48.1759 76.9915 47.8403 76.9915 47.4262V0.889916C76.9915 0.475875 76.6558 0.140228 76.2416 0.140228H43.3473C42.9331 0.140228 42.5974 0.475875 42.5974 0.889916V47.4262C42.5974 47.8403 42.9331 48.1759 43.3473 48.1759Z" fill="white"/>
<path d="M77.1316 48.3162H42.457V0H77.1316V48.3162ZM42.7376 48.0357H76.8511V0.280457H42.7376V48.0357Z" fill="#E6E6E6"/>
<path d="M69.3392 7.74005C69.4727 7.74005 69.5809 7.84822 69.5809 7.98166V8.46489C69.5809 8.59833 69.4727 8.7065 69.3392 8.7065H50.2497C50.1163 8.7065 50.0081 8.59833 50.0081 8.46489V7.98166C50.0081 7.84823 50.1163 7.74005 50.2497 7.74005H69.3392Z" fill="#E6E6E6"/>
<path d="M69.3392 10.035C69.4727 10.035 69.5809 10.1432 69.5809 10.2766V10.7599C69.5809 10.8933 69.4727 11.0015 69.3392 11.0015H50.2497C50.1163 11.0015 50.0081 10.8933 50.0081 10.7599V10.2766C50.0081 10.1432 50.1163 10.035 50.2497 10.035H69.3392Z" fill="#E6E6E6"/>
<path d="M69.3392 12.3301C69.4727 12.3301 69.5809 12.4383 69.5809 12.5718V13.055C69.5809 13.1884 69.4727 13.2966 69.3392 13.2966H50.2497C50.1163 13.2966 50.0081 13.1884 50.0081 13.055V12.5719C50.0081 12.4385 50.1163 12.3303 50.2497 12.3303L69.3392 12.3301Z" fill="#6C63FF"/>
<path d="M104.476 18.3513H110.817C110.807 18.0534 110.871 17.7578 111.001 17.4898C111.005 17.7872 111.07 18.0805 111.193 18.3513H111.481C111.922 18.3508 112.279 17.9939 112.279 17.5534V13.4338C112.279 11.4168 110.554 8.39309 108.68 9.65837C108.619 9.65522 107.669 9.23447 107.609 9.23447C105.96 9.2358 105.393 10.7235 104.895 12.2951C104.327 12.0337 103.936 13.1249 103.653 15.0455C103.571 15.606 103.498 16.2371 103.432 16.9259C103.25 17.5038 103.571 18.1196 104.149 18.3013C104.255 18.3346 104.365 18.3516 104.476 18.3518L104.476 18.3513Z" fill="#2F2E41"/>
<path d="M92.0325 41.9032C91.7181 42.6483 91.8477 43.4143 92.322 43.6144C92.7962 43.8144 93.4354 43.3725 93.7497 42.6272C93.8794 42.3312 93.9363 42.0084 93.9157 41.6859L95.208 38.5122L93.7054 37.9376L92.5905 41.1275C92.3451 41.3377 92.1536 41.6037 92.032 41.9031L92.0325 41.9032Z" fill="#FFB6B6"/>
<path d="M105.926 16.9569L108.957 17.5907L108.492 18.985L109.422 29.6493L107.872 33.0831L98.4197 32.3084L100.744 27.6604C100.744 27.6604 99.8143 23.7873 101.054 23.0123C102.294 22.2374 104.308 18.3643 104.308 18.3643L105.926 16.9569Z" fill="#6C63FF"/>
<path d="M108.752 18.2075L111.437 19.2943L110.507 32.9277L112.521 44.7021L106.013 45.7866C106.013 45.7866 106.788 19.7591 107.253 19.2943C107.717 18.8295 108.752 18.2068 108.752 18.2068V18.2075Z" fill="#2F2E41"/>
<path d="M103.493 19.9078C103.493 19.9078 101.746 18.8026 100.802 19.6209C99.8579 20.4392 92.5906 40.2191 92.5906 40.2191L94.5507 41.0705L99.0462 31.647L103.493 19.9078Z" fill="#2F2E41"/>
<path d="M98.488 53.2346L96.7156 66.857L99.195 67.0119C99.195 67.0119 100.484 63.495 101.955 59.3524C102.268 58.4739 102.589 57.5676 102.906 56.6598C103.25 55.6746 103.593 54.6891 103.918 53.738C104.722 51.3925 105.428 49.2575 105.83 47.8633C105.9 47.6185 105.962 47.3971 106.013 47.2017C107.097 43.0373 107.717 32.1544 107.717 32.1544L98.7298 31.3798L98.6338 31.499L96.7156 33.8957L96.8054 34.4024L99.195 47.8018L98.4884 53.2351L98.488 53.2346Z" fill="#2F2E41"/>
<path d="M99.1944 47.8017L98.4878 53.235L101.666 58.8291L101.954 59.3527L106.33 67.3034L108.492 66.0779C108.492 66.0779 105.679 59.6159 103.917 53.738C103.722 53.092 103.541 52.4521 103.378 51.8293C102.899 50.0058 103.683 46.6781 103.377 45.7608C102.34 42.6654 98.9618 36.473 97.3936 33.6677L96.8047 34.4021L99.1944 47.8017Z" fill="#2F2E41"/>
<path d="M104.347 18.2477L101.21 19.45L92.9966 43.4634L97.9554 44.2381L100.28 30.2948L104.347 18.2477Z" fill="#2F2E41"/>
<path d="M112.194 44.1681C112.274 44.9728 112.754 45.5839 113.266 45.5331C113.779 45.4822 114.129 44.7887 114.049 43.9837C114.022 43.6617 113.917 43.351 113.745 43.0776L113.364 39.6723L111.769 39.8852L112.314 43.2196C112.199 43.5217 112.158 43.8469 112.194 44.1681Z" fill="#FFB6B6"/>
<path d="M110.352 19.295C110.352 19.295 112.366 18.8302 112.986 19.9148C113.606 20.9993 113.916 42.0691 113.916 42.0691L111.784 42.2241L110.662 31.8444L110.352 19.2954L110.352 19.295Z" fill="#2F2E41"/>
<path d="M107.781 16.5811C109.56 16.5811 111.002 15.1392 111.002 13.3606C111.002 11.582 109.56 10.1402 107.781 10.1402C106.002 10.1402 104.56 11.582 104.56 13.3606C104.56 15.1392 106.002 16.5811 107.781 16.5811Z" fill="#FFB6B6"/>
<path d="M109.074 18.3512H110.664C110.745 18.3512 110.814 18.2889 110.818 18.2081L110.818 18.1992C110.827 18.031 111.063 18.0027 111.118 18.162C111.14 18.2261 111.165 18.2892 111.193 18.3512H111.35V13.3862C111.35 12.5347 110.659 11.8443 109.807 11.8443C109.08 11.8443 108.452 12.3522 108.299 13.0631C108.299 13.0631 107.218 14.3888 107.855 15.1342C108.493 15.8795 107.566 16.4862 107.566 16.4862C107.36 17.446 108.092 18.3512 109.074 18.3512Z" fill="#2F2E41"/>
<path d="M56.3302 24.1345C56.6871 23.9043 56.7624 23.4117 56.5127 23.0682L55.3429 21.459C55.0698 21.0828 54.5432 20.9992 54.1669 21.2723C54.1336 21.2965 54.102 21.3231 54.0726 21.352C52.0919 22.4106 51.0258 23.9565 52.2112 25.7841C52.2112 26.0893 52.2334 26.394 52.2778 26.696C52.297 26.827 52.3411 26.9552 52.4159 27.0645C52.6379 27.389 53.0297 27.5082 53.3744 27.3958L55.2874 26.7744C55.6939 26.6424 55.9139 26.1987 55.7638 25.7987C55.5698 25.2818 55.6497 24.5732 56.3302 24.1345Z" fill="#F2F2F2"/>
<path d="M60.8707 28.8812C60.3203 28.8269 59.8503 29.2804 59.8503 29.8333V31.4832C59.8504 31.526 59.8536 31.5687 59.8601 31.6109C59.9309 32.0707 60.361 32.386 60.8209 32.3153C63.5019 32.6457 65.334 31.4801 65.4443 28.9227C65.4618 28.8868 65.4768 28.8497 65.4891 28.8117C65.632 28.3698 65.3895 27.8957 64.9475 27.7529L63.3458 27.2326C62.7932 27.0531 62.2189 27.4117 62.1222 27.9845C62.0349 28.5019 61.6933 28.9624 60.8707 28.8812Z" fill="#E6E6E6"/>
<path d="M50.9679 30.4945C51.5239 33.7936 54.4193 35.0452 57.4391 35.243C57.4982 35.2521 57.558 35.2567 57.6178 35.2567C58.2691 35.2571 58.7974 34.7295 58.7977 34.0783V31.3195C58.7977 30.5478 58.1651 29.9468 57.3932 29.939C56.6471 29.9315 56.1608 29.5784 55.961 28.9303C55.7327 28.19 54.9191 27.7996 54.1822 28.039L51.6633 28.8573C51.337 28.9632 51.073 29.2058 50.9399 29.5219C50.8075 29.8348 50.8177 30.1897 50.9679 30.4945Z" fill="#3F3D56"/>
<path d="M66.4855 19.0868C66.0207 18.6315 65.2747 18.6393 64.8194 19.104C64.7789 19.1454 64.7414 19.1897 64.7074 19.2365L62.4693 22.3164C62.1832 22.7102 62.3468 23.2588 62.7941 23.4511C63.8418 23.9015 63.7317 24.9126 63.3905 25.5313C63.2234 25.8345 63.3613 26.214 63.6907 26.321L67.4621 27.5462C68.0826 27.7465 68.748 27.4059 68.9483 26.7856C68.9685 26.7232 68.9834 26.6591 68.993 26.5942C69.0578 26.1625 69.0903 25.7266 69.0903 25.2901C69.7282 22.9116 68.8454 20.6694 66.4855 19.0868Z" fill="#6C63FF"/>
<path d="M60.0088 22.6579C60.4267 22.8931 60.9539 22.7793 61.2358 22.3915L61.9856 21.3598C62.1312 21.1597 62.1817 20.9059 62.1239 20.6654C62.068 20.4293 61.9114 20.2295 61.6954 20.1189C59.9309 18.5251 57.8427 18.4273 56.0719 20.1108C55.8493 20.2231 55.6872 20.4275 55.6287 20.6698C55.5709 20.9086 55.621 21.1608 55.7657 21.3595L56.6419 22.5652C56.9428 22.9793 57.5258 23.0876 57.9405 22.7874C58.5431 22.3513 59.4184 22.3256 60.0088 22.6579Z" fill="#E6E6E6"/>
<path d="M119.367 73.755H0V73.991H119.367V73.755Z" fill="#E6E6E6"/>
<path d="M50.1305 43.4417C50.1978 43.1567 50.5139 43.063 50.7724 43.0738C50.9357 43.0849 51.0977 43.1105 51.2565 43.1504C51.4225 43.1876 51.5871 43.2316 51.7508 43.2781C52.0509 43.3637 52.3478 43.4672 52.6529 43.5341C52.9088 43.6041 53.1783 43.6081 53.4361 43.5456C53.6842 43.4775 53.8794 43.286 53.9523 43.0393C54.0264 42.8037 53.9197 42.549 53.6998 42.4364C53.4963 42.3242 53.2404 42.3983 53.1282 42.6017C53.1265 42.6047 53.1249 42.6078 53.1233 42.6108C53.0291 42.8618 53.103 43.1449 53.3081 43.3177C53.4132 43.4164 53.5283 43.5038 53.6516 43.5785C53.7767 43.6637 53.9159 43.7261 54.0628 43.7626C54.3127 43.8288 54.5767 43.7258 54.7156 43.5078C54.7432 43.4557 54.7598 43.3984 54.7644 43.3396C54.7717 43.2595 54.6466 43.2599 54.6393 43.3396C54.6183 43.569 54.3495 43.6761 54.1484 43.6512C54.0128 43.6287 53.8832 43.5784 53.768 43.5035C53.6567 43.4386 53.5513 43.3643 53.4528 43.2812C53.2824 43.1337 53.1226 42.8911 53.2371 42.661C53.3262 42.5131 53.5183 42.4654 53.6662 42.5545C53.686 42.5664 53.7043 42.5804 53.721 42.5964C53.9 42.7428 53.868 43.0082 53.75 43.1821C53.6083 43.3636 53.3894 43.4679 53.1591 43.4638C52.9163 43.4642 52.6748 43.4264 52.4438 43.3516C52.1555 43.2699 51.8703 43.1783 51.5808 43.1012C51.4164 43.0574 51.2507 43.018 51.0834 42.9873C50.9251 42.9524 50.7626 42.9412 50.601 42.9539C50.3283 42.9668 50.0923 43.1479 50.0094 43.408C49.9913 43.4867 50.1119 43.52 50.1305 43.4417Z" fill="#3F3D56"/>
<path d="M55.0842 40.1812C55.122 40.1812 55.1525 40.2893 55.1525 40.4228V40.9061C55.1525 41.0394 55.122 41.1477 55.0842 41.1477H49.6887C49.6509 41.1477 49.6204 41.0396 49.6204 40.9061V40.4228C49.6204 40.2893 49.6509 40.1812 49.6887 40.1812H55.0842Z" fill="#E6E6E6"/>
<path d="M69.5127 40.1812C69.5504 40.1812 69.581 40.2893 69.581 40.4228V40.9061C69.581 41.0394 69.5504 41.1477 69.5127 41.1477H64.1171C64.0794 41.1477 64.0488 41.0396 64.0488 40.9061V40.4228C64.0488 40.2893 64.0794 40.1812 64.1171 40.1812H69.5127Z" fill="#E6E6E6"/>
<path d="M67.1103 42.903L66.0393 43.257L65.5038 43.4339C65.3393 43.5042 65.1613 43.5369 64.9826 43.5297C64.8506 43.5209 64.7347 43.4388 64.6827 43.3173C64.6599 43.1954 64.7123 43.0717 64.8157 43.0033C65.0712 42.8089 65.3944 43.0068 65.5756 43.208C65.7971 43.4543 65.9225 43.7722 66.1302 44.0299C66.3151 44.2613 66.5496 44.4482 66.8163 44.5768C67.3494 44.8412 67.9853 44.7868 68.4658 44.4359C69.0304 44.0005 69.088 43.2458 69.0909 42.5874C69.0887 42.5242 69.0357 42.4747 68.9724 42.4769C68.9123 42.479 68.864 42.5273 68.8619 42.5874C68.8592 43.1841 68.8253 43.9155 68.2811 44.2889C67.7597 44.6466 67.0748 44.5517 66.5947 44.1706C66.3473 43.9504 66.1415 43.6875 65.9871 43.3945C65.8157 43.1141 65.6029 42.8433 65.2803 42.7345C64.9951 42.6309 64.6764 42.7423 64.5177 43.0009C64.3811 43.231 64.4568 43.5282 64.6869 43.6649C64.7047 43.6755 64.7232 43.6849 64.7422 43.6931C65.1162 43.8713 65.5442 43.6625 65.9042 43.5435L67.1716 43.1247C67.3109 43.0787 67.2513 42.8575 67.1107 42.9039L67.1103 42.903Z" fill="#6C63FF"/>
<path d="M19.5169 69.5533C19.5029 69.5411 19.4921 69.5347 19.4848 69.5348C19.3101 69.5363 19.1544 69.628 19.0686 69.7796L17.1872 73.2729C17.1442 73.3489 17.1231 73.4321 17.1238 73.515C17.1245 73.598 17.1471 73.6808 17.1914 73.7561C17.2801 73.9066 21.4352 73.9607 21.4352 73.9607C21.6099 73.9592 22.0895 71.8101 19.5169 69.5533Z" fill="#E6E6E6"/>
<path d="M12.3262 73.1144L13.7542 73.1018L14.3854 67.589L12.2778 67.6075L12.3262 73.1144Z" fill="#FFB6B6"/>
<path d="M17.2184 73.0393C17.2635 73.1137 17.2891 73.3552 17.2898 73.4422C17.2922 73.7099 17.0771 73.9287 16.8094 73.931L12.387 73.9696C12.2044 73.9712 12.0551 73.8245 12.0535 73.6419L12.0519 73.4579C12.0519 73.4579 11.8282 72.9065 12.2727 72.2207C12.2727 72.2207 12.8372 72.7498 13.6664 71.9062L13.9091 71.4572L15.7061 72.7472L16.6969 72.8604C16.9136 72.8851 17.1054 72.8527 17.2184 73.0393Z" fill="#2F2E41"/>
<path d="M17.7588 68.3549L19.1156 68.8002L21.4796 63.7799L19.4771 63.1226L17.7588 68.3549Z" fill="#FFB6B6"/>
<path d="M22.4175 69.8502C22.4363 69.9352 22.3832 70.1721 22.3561 70.2549C22.2725 70.5091 21.9987 70.6476 21.7443 70.5641L17.5425 69.1846C17.369 69.1276 17.2746 68.9408 17.3315 68.7674L17.389 68.5925C17.389 68.5925 17.3538 67.9986 17.9945 67.4912C17.9945 67.4912 18.3598 68.1731 19.4155 67.6395L19.7893 67.2919L21.0784 69.0894L21.9807 69.5138C22.1781 69.6067 22.3702 69.6373 22.4175 69.8502Z" fill="#2F2E41"/>
<path d="M19.6748 36.3903L22.5278 45.5362L25.8725 53.7557L20.8027 65.5834L17.9818 64.4845L20.5065 54.2478L16.1908 46.6045L14.1512 69.5492L11.6701 69.2523L8.44409 41.7675L8.95003 35.7907L19.6748 36.3903Z" fill="#2F2E41"/>
<path d="M16.7555 15.5661L13.6729 14.8221L12.8225 16.8414C12.8225 16.8414 8.65687 17.545 8.44395 20.7332C8.44395 20.7332 7.61374 24.9183 8.14519 26.0874C8.67664 27.2565 9.98682 31.3906 9.98682 31.3906C9.98682 31.3906 7.91236 36.5412 8.44395 36.8595C8.97555 37.1778 20.3661 38.3385 20.3661 37.7009C20.3661 37.0632 20.4962 29.4877 20.4962 29.4877L20.0501 18.01L17.1808 16.9477L16.7555 15.5661Z" fill="#E6E6E6"/>
<path d="M16.2339 15.0525C17.9495 15.0525 19.3403 13.6621 19.3403 11.9468C19.3403 10.2316 17.9495 8.84113 16.2339 8.84113C14.5182 8.84113 13.1274 10.2316 13.1274 11.9468C13.1274 13.6621 14.5182 15.0525 16.2339 15.0525Z" fill="#FFB6B6"/>
<path d="M14.177 12.4085C14.4249 12.5441 14.19 13.1919 14.3449 13.2479C14.524 13.3125 15.1767 12.5692 15.1845 11.737C15.1868 11.4851 15.1288 11.3641 15.1845 11.0655C15.2573 10.6748 15.481 10.2139 15.6882 10.2261C15.8111 10.2333 15.9311 10.4069 15.9401 10.5618C15.9527 10.779 15.7417 10.8646 15.7722 10.9815C15.8301 11.2043 16.7162 11.3579 17.0315 10.9815C17.2787 10.6865 17.0889 10.1687 17.1995 10.1422C17.2809 10.1226 17.3685 10.4077 17.7032 10.7297C17.8293 10.8511 18.0168 11.0315 18.123 10.9815C18.2764 10.9093 18.1648 10.4007 18.2069 10.394C18.2419 10.3884 18.2639 10.7459 18.4588 11.0655C18.7092 11.4761 19.2255 11.7925 19.4663 11.653C19.6138 11.5676 19.6254 11.3299 19.6342 11.1494C19.6527 10.7691 20.2052 9.89414 20.0621 9.48736C19.7707 8.65943 19.2722 9.24328 19.0465 8.96703C18.741 8.59305 18.4671 8.79427 17.9551 8.37946C17.4549 7.97424 17.4504 7.56678 17.1155 7.54008C16.8139 7.51604 16.7068 7.83769 16.3599 7.7919C16.066 7.75311 16.002 7.50369 15.7722 7.54008C15.5618 7.57341 15.548 7.79316 15.2684 7.87584C15.09 7.92862 15.0507 7.85232 14.8487 7.87584C14.4282 7.92476 14.1459 8.30773 14.093 8.37946C13.8892 8.65602 13.9684 8.77258 13.7572 9.05096C13.5751 9.29103 13.1714 9.18925 13.0197 9.30918C12.5238 9.70103 12.311 10.4234 12.307 11.2467C12.3041 11.8225 12.3794 12.1135 12.5472 12.8402C12.6746 13.3921 13.2642 14.1051 13.5893 14.423C13.6765 14.5083 13.9211 14.7476 14.093 14.6748C14.2559 14.6059 14.2607 14.296 14.2609 14.2551C14.2616 14.1144 14.2241 13.9403 13.9251 13.4997C13.6111 13.0368 13.4864 12.984 13.5053 12.8282C13.5389 12.5527 13.9794 12.3004 14.177 12.4085Z" fill="#2F2E41"/>
<path d="M5.39224 43.3862C5.28406 44.2893 5.66235 45.0771 6.23717 45.146C6.81199 45.2148 7.36567 44.5385 7.47385 43.6354C7.5212 43.2401 7.47533 42.8669 7.36057 42.5664L7.77095 38.734L5.968 38.5798L5.75482 42.3741C5.57233 42.639 5.4396 42.9909 5.39224 43.3862Z" fill="#FFB6B6"/>
<path d="M10.5837 17.9355C10.5837 17.9355 9.64961 17.9484 9.03071 19.1558C8.70183 19.7975 6.56408 31.2975 6.56408 31.2975L5.96351 34.9346L6.27216 35.5362C5.78151 36.2865 5.64644 37.2147 5.90293 38.0737L5.31616 41.6273L8.07533 41.6421L10.2286 32.3331L12.0391 26.9342L10.5837 17.9355Z" fill="#E6E6E6"/>
<path d="M24.6802 43.246C24.7884 44.149 24.4101 44.9369 23.8353 45.0057C23.2605 45.0746 22.7068 44.3983 22.5986 43.4952C22.5513 43.0999 22.5971 42.7267 22.7119 42.4261L22.3015 38.5938L24.1045 38.4395L24.3176 42.2339C24.5001 42.4988 24.6329 42.8506 24.6802 43.246Z" fill="#FFB6B6"/>
<path d="M19.4889 17.7952C19.4889 17.7952 20.4229 17.8082 21.0419 19.0156C21.3707 19.6572 23.5085 31.1573 23.5085 31.1573L24.1091 34.7944L23.8004 35.396C24.2911 36.1462 24.4261 37.0745 24.1696 37.9335L24.7564 41.487L21.9972 41.5019L19.844 32.1928L18.0334 26.794L19.4889 17.7952Z" fill="#E6E6E6"/>
<path d="M103.909 12.8824C104.023 13.0699 104.631 12.3838 105.565 12.3082C105.803 12.2884 106.338 13.1982 106.953 13.2114C107.36 13.2196 107.611 13.2163 108.113 13.2114C108.706 13.2048 108.868 13.1917 108.982 13.0469C109.204 12.7656 109.022 12.2655 109.127 12.2244C109.216 12.1898 109.445 12.4991 109.562 12.8824C109.809 13.6868 108.925 14.8071 108.838 15.8435C108.745 16.9605 109.658 14.8203 109.562 15.8435C109.455 16.995 109.071 16.9078 109.075 17.324C109.077 17.3865 109.093 17.4408 109.127 17.4885C109.158 17.5313 109.188 17.5477 109.707 17.653C110.328 17.7797 110.639 17.8422 110.722 17.8175C110.935 17.755 111.151 17.4079 111.302 17.1595C111.551 16.7532 111.374 17.1628 111.302 16.666C111.232 16.1856 111.015 16.1231 111.012 15.679C111.009 15.1197 111.353 14.9502 111.592 14.3629C112.034 13.2772 111.602 12.0204 111.447 11.5664C111.372 11.3486 111.237 11.073 111 10.6177C110.81 10.2522 110.558 9.93022 110.25 9.68896C109.789 9.32736 109.253 9.07959 108.674 8.98142C108.357 8.92764 108.033 8.95588 107.722 9.04092L106.914 9.26121C106.574 9.35381 106.254 9.52163 105.972 9.75504C105.709 9.75603 105.48 9.94901 105.39 10.2295C105.381 10.2588 105.372 10.2759 105.365 10.2734C103.909 9.75681 103.91 11.2869 103.926 12.2427C103.927 12.3406 103.924 12.4271 103.913 12.4975V12.5024C103.884 12.6916 103.877 12.8298 103.909 12.8824Z" fill="#2F2E41"/>
<path d="M84.978 21.3327H69.6465V21.6131H84.978V21.3327Z" fill="#3F3D56"/>
<path d="M88.0635 23.2918C86.9807 23.2918 86.0999 22.4111 86.0999 21.3286C86.0999 20.246 86.9807 19.3654 88.0635 19.3654C89.1463 19.3654 90.0272 20.246 90.0272 21.3286C90.0272 22.4111 89.1463 23.2918 88.0635 23.2918ZM88.0635 19.6458C87.1354 19.6458 86.3804 20.4007 86.3804 21.3286C86.3804 22.2564 87.1354 23.0113 88.0635 23.0113C88.9916 23.0113 89.7466 22.2564 89.7466 21.3286C89.7466 20.4007 88.9916 19.6458 88.0635 19.6458Z" fill="#3F3D56"/>
<path d="M88.0636 22.3102C88.6059 22.3102 89.0454 21.8707 89.0454 21.3286C89.0454 20.7864 88.6059 20.347 88.0636 20.347C87.5214 20.347 87.0818 20.7864 87.0818 21.3286C87.0818 21.8707 87.5214 22.3102 88.0636 22.3102Z" fill="#6C63FF"/>
<path d="M49.9558 31.7096H34.6243V31.99H49.9558V31.7096Z" fill="#3F3D56"/>
<path d="M29.5747 31.7054C29.5747 30.6229 30.4556 29.7422 31.5384 29.7422C32.6211 29.7422 33.502 30.6229 33.502 31.7054C33.502 32.788 32.6211 33.6686 31.5384 33.6686C30.4556 33.6686 29.5747 32.788 29.5747 31.7054ZM29.8552 31.7054C29.8552 32.6333 30.6103 33.3882 31.5384 33.3882C32.4664 33.3882 33.2215 32.6333 33.2215 31.7054C33.2215 30.7776 32.4664 30.0227 31.5384 30.0227C30.6103 30.0227 29.8552 30.7776 29.8552 31.7054Z" fill="#3F3D56"/>
<path d="M31.5385 32.6871C32.0807 32.6871 32.5203 32.2476 32.5203 31.7055C32.5203 31.1634 32.0807 30.7239 31.5385 30.7239C30.9962 30.7239 30.5566 31.1634 30.5566 31.7055C30.5566 32.2476 30.9962 32.6871 31.5385 32.6871Z" fill="#6C63FF"/>
</g>
<defs>
<clipPath id="clip0_42_462">
<rect width="119.367" height="74" fill="white"/>
</clipPath>
</defs>
</svg>
