<svg width="120" height="88" viewBox="0 0 120 88" fill="none" xmlns="http://www.w3.org/2000/svg">
<g clip-path="url(#clip0_42_463)">
<path d="M119.065 5.21755H0.663204C0.487371 5.21736 0.318794 5.14756 0.19446 5.02346C0.0701269 4.89937 0.000192187 4.73111 0 4.55561V0.661933C0.000192187 0.486436 0.0701269 0.318181 0.19446 0.194086C0.318794 0.0699907 0.487371 0.000191425 0.663204 0H119.065C119.241 0.00019182 119.409 0.069993 119.533 0.194088C119.658 0.318183 119.728 0.486436 119.728 0.661933V4.55562C119.728 4.73112 119.658 4.89937 119.533 5.02346C119.409 5.14756 119.241 5.21736 119.065 5.21755Z" fill="#E4E4E4"/>
<path d="M3.84881 3.35863C4.36883 3.35863 4.79039 2.93788 4.79039 2.41885C4.79039 1.89982 4.36883 1.47906 3.84881 1.47906C3.32879 1.47906 2.90723 1.89982 2.90723 2.41885C2.90723 2.93788 3.32879 3.35863 3.84881 3.35863Z" fill="white"/>
<path d="M7.42279 3.35863C7.94281 3.35863 8.36437 2.93788 8.36437 2.41885C8.36437 1.89982 7.94281 1.47906 7.42279 1.47906C6.90276 1.47906 6.4812 1.89982 6.4812 2.41885C6.4812 2.93788 6.90276 3.35863 7.42279 3.35863Z" fill="white"/>
<path d="M10.997 3.35863C11.517 3.35863 11.9386 2.93788 11.9386 2.41885C11.9386 1.89982 11.517 1.47906 10.997 1.47906C10.477 1.47906 10.0554 1.89982 10.0554 2.41885C10.0554 2.93788 10.477 3.35863 10.997 3.35863Z" fill="white"/>
<path d="M115.563 1.77202H111.447C111.367 1.77184 111.289 1.73971 111.232 1.68267C111.175 1.62562 111.143 1.54833 111.143 1.46775C111.143 1.38717 111.175 1.30988 111.232 1.25284C111.289 1.1958 111.367 1.16366 111.447 1.16348H115.563C115.644 1.16342 115.721 1.19538 115.779 1.25232C115.836 1.30927 115.868 1.38655 115.868 1.46718C115.868 1.54782 115.836 1.62522 115.779 1.68238C115.722 1.73953 115.645 1.77178 115.564 1.77202H115.563Z" fill="white"/>
<path d="M115.563 2.91304H111.447C111.367 2.91287 111.289 2.88073 111.232 2.82369C111.175 2.76665 111.143 2.68936 111.143 2.60878C111.143 2.52819 111.175 2.4509 111.232 2.39386C111.289 2.33682 111.367 2.30468 111.447 2.3045H115.563C115.644 2.30445 115.721 2.3364 115.779 2.39334C115.836 2.45029 115.868 2.52757 115.868 2.6082C115.868 2.68884 115.836 2.76624 115.779 2.8234C115.722 2.88056 115.645 2.9128 115.564 2.91304H115.563Z" fill="white"/>
<path d="M115.563 4.05404H111.447C111.367 4.05404 111.289 4.02198 111.232 3.96492C111.175 3.90786 111.143 3.83046 111.143 3.74977C111.143 3.66907 111.175 3.59168 111.232 3.53461C111.289 3.47755 111.367 3.4455 111.447 3.4455H115.563C115.644 3.44534 115.721 3.47726 115.779 3.53421C115.836 3.59117 115.868 3.6685 115.868 3.7492C115.869 3.82989 115.837 3.90734 115.78 3.96451C115.722 4.02168 115.645 4.05388 115.564 4.05404H115.563Z" fill="white"/>
<path d="M33.7607 77.3736C34.1964 73.877 36.3676 70.4317 39.7087 69.2938C38.391 72.8929 38.3913 76.8411 39.7095 80.4399C40.2229 81.826 40.9386 83.3143 40.4556 84.7113C40.1552 85.5805 39.4201 86.2456 38.5984 86.6614C37.7767 87.0772 36.8648 87.2754 35.9643 87.4696L35.7871 87.6159C34.3576 84.3941 33.325 80.8703 33.7607 77.3736Z" fill="#F0F0F0"/>
<path d="M39.7417 69.36C37.796 71.5359 36.5866 74.2685 36.2855 77.1695C36.2095 77.7928 36.2325 78.4243 36.3536 79.0405C36.4909 79.637 36.7858 80.1858 37.2076 80.6301C37.5925 81.0522 38.0353 81.4395 38.3107 81.9477C38.4478 82.2099 38.5278 82.498 38.5455 82.7933C38.5632 83.0885 38.5182 83.3842 38.4134 83.6608C38.1702 84.3569 37.691 84.9243 37.203 85.4629C36.6611 86.061 36.0888 86.6735 35.8585 87.4664C35.8306 87.5624 35.6829 87.5136 35.7108 87.4177C36.1115 86.0383 37.453 85.2548 38.0928 84.0124C38.3914 83.4327 38.5167 82.7597 38.2368 82.1477C37.9921 81.6126 37.5359 81.2129 37.1424 80.7888C36.7246 80.3614 36.418 79.8385 36.2493 79.2656C36.0972 78.6575 36.0499 78.028 36.1094 77.404C36.2209 75.9972 36.5533 74.6167 37.0945 73.313C37.7039 71.8216 38.5644 70.4453 39.6387 69.2435C39.7053 69.1691 39.8078 69.2861 39.7417 69.36Z" fill="white"/>
<path d="M36.3274 76.2297C35.8466 76.1132 35.4229 75.8299 35.1321 75.4304C34.8413 75.0309 34.7022 74.5412 34.7396 74.0488C34.7414 74.0288 34.7508 74.0101 34.766 73.9969C34.7812 73.9836 34.801 73.9768 34.8211 73.9778C34.8413 73.9788 34.8602 73.9876 34.874 74.0023C34.8878 74.017 34.8954 74.0364 34.8951 74.0566C34.8593 74.515 34.9889 74.9711 35.2605 75.3426C35.5321 75.714 35.9278 75.9763 36.3762 76.0822C36.4736 76.1053 36.4242 76.2526 36.3274 76.2297Z" fill="white"/>
<path d="M36.9843 80.4417C37.8527 79.9242 38.4937 79.099 38.7796 78.1307C38.8078 78.0348 38.9556 78.0836 38.9273 78.1794C38.628 79.1865 37.9591 80.0439 37.0543 80.5804C36.968 80.6315 36.8985 80.4925 36.9843 80.4417Z" fill="white"/>
<path d="M37.8484 71.9687C38.025 72.0525 38.2197 72.0911 38.415 72.0812C38.6103 72.0713 38.8001 72.0132 38.9673 71.912C39.0529 71.8598 39.1223 71.9989 39.0373 72.0507C38.852 72.1616 38.6423 72.2256 38.4266 72.237C38.2108 72.2484 37.9956 72.2069 37.7996 72.1162C37.7804 72.1091 37.7646 72.0951 37.7554 72.0769C37.7462 72.0587 37.7443 72.0376 37.7501 72.0181C37.7567 71.9986 37.7707 71.9825 37.7891 71.9732C37.8075 71.964 37.8288 71.9623 37.8484 71.9687Z" fill="white"/>
<path d="M49.893 75.5393C49.8404 75.5734 49.7879 75.6075 49.7354 75.6429C49.0317 76.1047 48.3668 76.6228 47.7472 77.1921C47.6986 77.2353 47.65 77.2799 47.6028 77.3245C46.1247 78.7119 44.9176 80.3612 44.0427 82.1884C43.6952 82.9158 43.4037 83.6686 43.1707 84.4402C42.849 85.5057 42.585 86.6867 41.9481 87.5583C41.8827 87.6499 41.8116 87.7375 41.7354 87.8204H35.9796C35.9665 87.8139 35.9534 87.8086 35.9403 87.802L35.7104 87.8125C35.7197 87.7719 35.7301 87.73 35.7394 87.6893C35.7446 87.6657 35.7512 87.6421 35.7564 87.6186C35.7603 87.6028 35.7643 87.5871 35.7669 87.5727C35.7682 87.5674 35.7696 87.5622 35.7709 87.5583C35.7735 87.5438 35.7775 87.5307 35.7801 87.5176C35.8379 87.283 35.8974 87.0484 35.9587 86.8138C35.9587 86.8125 35.9587 86.8125 35.96 86.8112C36.4098 85.019 37.071 83.2864 37.9297 81.6497C37.956 81.6012 37.9823 81.5514 38.0112 81.5029C38.4088 80.7784 38.8652 80.0875 39.3756 79.4372C39.6562 79.0821 39.9547 78.7413 40.2699 78.4162C41.0859 77.5779 42.0289 76.8729 43.0644 76.327C45.1287 75.2391 47.5187 74.8223 49.7249 75.4868C49.7813 75.5039 49.8365 75.521 49.893 75.5393Z" fill="#F0F0F0"/>
<path d="M49.8799 75.6122C47.0138 76.1804 44.3998 77.6354 42.4094 79.7708C41.9728 80.2228 41.6102 80.7408 41.3352 81.3056C41.085 81.8644 40.9894 82.4798 41.0582 83.088C41.1109 83.6564 41.2307 84.2316 41.1441 84.8029C41.0954 85.0946 40.9855 85.3728 40.8215 85.6192C40.6576 85.8655 40.4433 86.0745 40.1927 86.2325C39.5787 86.6421 38.8537 86.8072 38.1392 86.944C37.3458 87.0958 36.5193 87.2411 35.8572 87.7357C35.777 87.7956 35.6885 87.6679 35.7686 87.608C36.9206 86.7475 38.4644 86.9281 39.7247 86.3206C40.3127 86.0371 40.8188 85.575 40.9644 84.9182C41.0918 84.3439 40.9687 83.7506 40.9104 83.1755C40.8346 82.5832 40.9052 81.9814 41.1162 81.4226C41.3615 80.8457 41.7035 80.3147 42.1273 79.8523C43.065 78.796 44.1632 77.8935 45.3817 77.1777C46.7679 76.3531 48.2852 75.7713 49.8679 75.4573C49.9659 75.4379 49.9772 75.5929 49.8799 75.6122Z" fill="white"/>
<path d="M43.0099 79.0456C42.6963 78.6636 42.5289 78.1828 42.5377 77.6891C42.5464 77.1954 42.7308 76.7208 43.0577 76.3502C43.1241 76.2754 43.2437 76.3749 43.1771 76.4498C42.872 76.7943 42.7004 77.2364 42.6932 77.6962C42.686 78.156 42.8437 78.6032 43.1378 78.9571C43.2016 79.0341 43.0734 79.1221 43.0099 79.0456Z" fill="white"/>
<path d="M40.9935 82.8034C41.999 82.912 43.0086 82.6383 43.821 82.037C43.9014 81.9774 43.9899 82.1051 43.9096 82.1647C43.0631 82.7889 42.0118 83.0715 40.9657 82.9562C40.866 82.9451 40.8943 82.7924 40.9935 82.8034Z" fill="white"/>
<path d="M46.7946 76.5573C46.8851 76.7303 47.0172 76.8782 47.1791 76.9877C47.341 77.0971 47.5276 77.1647 47.7222 77.1844C47.822 77.1942 47.7935 77.347 47.6944 77.3372C47.4795 77.3145 47.2735 77.2396 47.0944 77.119C46.9152 76.9985 46.7684 76.836 46.6667 76.6458C46.6556 76.6286 46.6515 76.6079 46.6551 76.5879C46.6588 76.5678 46.6699 76.5499 46.6863 76.5377C46.7033 76.5261 46.7242 76.5216 46.7445 76.5253C46.7648 76.529 46.7828 76.5405 46.7946 76.5573Z" fill="white"/>
<path d="M38.8075 27.1488H19.7647C19.1762 27.1481 18.6121 26.9145 18.196 26.4992C17.7799 26.0838 17.5458 25.5207 17.5452 24.9334V14.5817C17.5458 13.9943 17.7799 13.4312 18.196 13.016C18.6121 12.6007 19.1763 12.3671 19.7647 12.3664H38.8075C39.3959 12.3671 39.9601 12.6007 40.3762 13.016C40.7923 13.4312 41.0263 13.9943 41.027 14.5817V24.9334C41.0263 25.5207 40.7923 26.0838 40.3762 26.4991C39.9601 26.9145 39.3959 27.1481 38.8075 27.1488Z" fill="#E6E6E6"/>
<path d="M67.8802 27.1488H48.8375C48.249 27.1481 47.6848 26.9145 47.2687 26.4992C46.8526 26.0838 46.6186 25.5207 46.6179 24.9334V14.5817C46.6186 13.9943 46.8526 13.4312 47.2687 13.016C47.6848 12.6007 48.249 12.3671 48.8375 12.3664H67.8802C68.4687 12.3671 69.0328 12.6007 69.4489 13.016C69.865 13.4312 70.0991 13.9943 70.0998 14.5817V24.9334C70.0991 25.5207 69.865 26.0838 69.4489 26.4991C69.0328 26.9145 68.4687 27.1481 67.8802 27.1488Z" fill="#6C63FF"/>
<path d="M96.953 27.1488H77.9102C77.3218 27.1481 76.7576 26.9145 76.3415 26.4992C75.9254 26.0838 75.6913 25.5207 75.6907 24.9334V14.5817C75.6913 13.9943 75.9254 13.4312 76.3415 13.016C76.7576 12.6007 77.3218 12.3671 77.9102 12.3664H96.953C97.5414 12.3671 98.1056 12.6007 98.5217 13.016C98.9378 13.4312 99.1718 13.9943 99.1725 14.5817V24.9334C99.1719 25.5207 98.9378 26.0838 98.5217 26.4991C98.1056 26.9145 97.5414 27.1481 96.953 27.1488Z" fill="#E6E6E6"/>
<path d="M38.8075 50.2137H19.7647C19.1762 50.213 18.6121 49.9794 18.196 49.5641C17.7799 49.1487 17.5458 48.5856 17.5452 47.9983V37.6466C17.5458 37.0592 17.7799 36.4962 18.196 36.0809C18.6121 35.6656 19.1763 35.432 19.7647 35.4313H38.8075C39.3959 35.432 39.9601 35.6656 40.3762 36.0809C40.7923 36.4962 41.0263 37.0592 41.027 37.6466V47.9983C41.0263 48.5856 40.7923 49.1487 40.3762 49.5641C39.9601 49.9794 39.3959 50.213 38.8075 50.2137Z" fill="#F2F2F2"/>
<path d="M67.8802 50.2137H48.8375C48.249 50.213 47.6848 49.9794 47.2687 49.5641C46.8526 49.1487 46.6186 48.5856 46.6179 47.9983V37.6466C46.6186 37.0592 46.8526 36.4962 47.2687 36.0809C47.6848 35.6656 48.249 35.432 48.8375 35.4313H67.8802C68.4687 35.432 69.0328 35.6656 69.4489 36.0809C69.865 36.4962 70.0991 37.0592 70.0998 37.6466V47.9983C70.0991 48.5856 69.865 49.1487 69.4489 49.5641C69.0328 49.9794 68.4687 50.213 67.8802 50.2137Z" fill="#E6E6E6"/>
<path d="M69.2246 52.1185C71.103 52.1185 72.6257 50.5987 72.6257 48.7239C72.6257 46.8491 71.103 45.3293 69.2246 45.3293C67.3462 45.3293 65.8235 46.8491 65.8235 48.7239C65.8235 50.5987 67.3462 52.1185 69.2246 52.1185Z" fill="#6C63FF"/>
<path d="M70.6368 48.4388H69.4805V47.2847C69.4805 47.249 69.4734 47.2137 69.4598 47.1807C69.4461 47.1478 69.4261 47.1179 69.4008 47.0926C69.3755 47.0674 69.3455 47.0474 69.3125 47.0338C69.2795 47.0201 69.2441 47.0131 69.2084 47.0131C69.1726 47.0131 69.1373 47.0201 69.1043 47.0338C69.0712 47.0474 69.0412 47.0674 69.016 47.0926C68.9907 47.1179 68.9707 47.1478 68.957 47.1807C68.9433 47.2137 68.9363 47.249 68.9363 47.2847V48.4388H67.7799C67.7442 48.4388 67.7088 48.4459 67.6758 48.4595C67.6428 48.4732 67.6128 48.4932 67.5875 48.5184C67.5622 48.5436 67.5422 48.5735 67.5285 48.6065C67.5148 48.6394 67.5078 48.6748 67.5078 48.7104C67.5078 48.7461 67.5148 48.7814 67.5285 48.8144C67.5422 48.8473 67.5622 48.8772 67.5875 48.9025C67.6128 48.9277 67.6428 48.9477 67.6758 48.9613C67.7088 48.975 67.7442 48.982 67.7799 48.982H68.9363V50.1362C68.9363 50.1718 68.9433 50.2071 68.957 50.2401C68.9707 50.273 68.9907 50.303 69.016 50.3282C69.0413 50.3534 69.0712 50.3734 69.1043 50.3871C69.1373 50.4007 69.1727 50.4078 69.2084 50.4078C69.2806 50.4078 69.3498 50.3791 69.4008 50.3282C69.4518 50.2773 69.4805 50.2082 69.4805 50.1362V48.982H70.6368C70.6726 48.982 70.708 48.975 70.741 48.9613C70.774 48.9477 70.804 48.9277 70.8292 48.9025C70.8545 48.8772 70.8746 48.8473 70.8882 48.8143C70.9019 48.7814 70.9089 48.7461 70.9089 48.7104C70.9089 48.6747 70.9019 48.6394 70.8882 48.6065C70.8746 48.5735 70.8545 48.5436 70.8292 48.5184C70.804 48.4932 70.774 48.4732 70.741 48.4595C70.708 48.4459 70.6726 48.4388 70.6368 48.4388Z" fill="white"/>
<path d="M98.7446 29.6488C100.623 29.6488 102.146 28.129 102.146 26.2542C102.146 24.3795 100.623 22.8596 98.7446 22.8596C96.8662 22.8596 95.3435 24.3795 95.3435 26.2542C95.3435 28.129 96.8662 29.6488 98.7446 29.6488Z" fill="#6C63FF"/>
<path d="M100.157 25.9692H99.0005V24.815C99.0005 24.7794 98.9935 24.744 98.9798 24.7111C98.9661 24.6781 98.9461 24.6482 98.9208 24.623C98.8955 24.5978 98.8655 24.5778 98.8325 24.5641C98.7995 24.5505 98.7641 24.5434 98.7284 24.5434C98.6927 24.5434 98.6573 24.5505 98.6243 24.5641C98.5913 24.5778 98.5613 24.5978 98.536 24.623C98.5107 24.6482 98.4907 24.6781 98.477 24.7111C98.4633 24.744 98.4563 24.7794 98.4563 24.815V25.9692H97.2999C97.2642 25.9692 97.2288 25.9762 97.1958 25.9898C97.1628 26.0035 97.1328 26.0235 97.1075 26.0487C97.0823 26.0739 97.0622 26.1039 97.0485 26.1368C97.0349 26.1698 97.0278 26.2051 97.0278 26.2408C97.0278 26.2764 97.0349 26.3117 97.0485 26.3447C97.0622 26.3776 97.0823 26.4076 97.1075 26.4328C97.1328 26.458 97.1628 26.478 97.1958 26.4917C97.2288 26.5053 97.2642 26.5123 97.2999 26.5123H98.4563V27.6665C98.4563 27.7022 98.4633 27.7375 98.477 27.7704C98.4907 27.8034 98.5107 27.8333 98.536 27.8585C98.5613 27.8838 98.5913 27.9038 98.6243 27.9174C98.6573 27.9311 98.6927 27.9381 98.7284 27.9381C98.8006 27.9381 98.8698 27.9095 98.9208 27.8585C98.9718 27.8076 99.0005 27.7385 99.0005 27.6665V26.5123H100.157C100.193 26.5123 100.228 26.5053 100.261 26.4917C100.294 26.478 100.324 26.458 100.349 26.4328C100.375 26.4076 100.395 26.3776 100.408 26.3447C100.422 26.3117 100.429 26.2764 100.429 26.2407C100.429 26.2051 100.422 26.1698 100.408 26.1368C100.395 26.1039 100.375 26.0739 100.349 26.0487C100.324 26.0235 100.294 26.0035 100.261 25.9898C100.228 25.9762 100.193 25.9692 100.157 25.9692Z" fill="white"/>
<path d="M40.1518 29.3512C42.0302 29.3512 43.5529 27.8314 43.5529 25.9566C43.5529 24.0819 42.0302 22.562 40.1518 22.562C38.2735 22.562 36.7507 24.0819 36.7507 25.9566C36.7507 27.8314 38.2735 29.3512 40.1518 29.3512Z" fill="#6C63FF"/>
<path d="M41.5641 25.6716H40.4077V24.5174C40.4077 24.4817 40.4007 24.4464 40.387 24.4135C40.3734 24.3805 40.3533 24.3506 40.328 24.3254C40.3028 24.3001 40.2728 24.2801 40.2398 24.2665C40.2068 24.2528 40.1714 24.2458 40.1356 24.2458C40.0999 24.2458 40.0645 24.2528 40.0315 24.2665C39.9985 24.2801 39.9685 24.3001 39.9432 24.3254C39.918 24.3506 39.8979 24.3805 39.8843 24.4135C39.8706 24.4464 39.8635 24.4817 39.8635 24.5174V25.6716H38.7072C38.6714 25.6716 38.636 25.6786 38.603 25.6922C38.57 25.7059 38.54 25.7259 38.5148 25.7511C38.4895 25.7763 38.4694 25.8063 38.4558 25.8392C38.4421 25.8722 38.4351 25.9075 38.4351 25.9431C38.4351 26.0152 38.4637 26.0843 38.5148 26.1352C38.5658 26.1861 38.635 26.2147 38.7072 26.2147H39.8635V27.3689C39.8635 27.4046 39.8706 27.4399 39.8842 27.4728C39.8979 27.5058 39.918 27.5357 39.9432 27.5609C39.9685 27.5862 39.9985 27.6062 40.0315 27.6198C40.0645 27.6335 40.0999 27.6405 40.1356 27.6405C40.1714 27.6405 40.2068 27.6335 40.2398 27.6198C40.2728 27.6062 40.3028 27.5862 40.328 27.5609C40.3533 27.5357 40.3734 27.5058 40.387 27.4728C40.4007 27.4399 40.4077 27.4046 40.4077 27.3689V26.2147H41.5641C41.5998 26.2147 41.6352 26.2077 41.6682 26.1941C41.7013 26.1804 41.7313 26.1604 41.7565 26.1352C41.7818 26.11 41.8018 26.08 41.8155 26.0471C41.8292 26.0141 41.8362 25.9788 41.8362 25.9431C41.8362 25.8711 41.8076 25.802 41.7565 25.7511C41.7055 25.7002 41.6363 25.6716 41.5641 25.6716Z" fill="white"/>
<path d="M65.6152 21.2673C65.6772 21.4546 65.6974 21.6533 65.6742 21.8492C65.651 22.0451 65.5851 22.2336 65.481 22.4014C65.377 22.5691 65.2373 22.7121 65.0719 22.8202C64.9065 22.9282 64.7194 22.9988 64.5237 23.0268L62.9511 33.741L60.3713 32.4834L62.9661 21.7887C62.9406 21.4575 63.0378 21.1285 63.2391 20.864C63.4405 20.5995 63.7321 20.4179 64.0586 20.3536C64.3851 20.2893 64.7239 20.3469 65.0108 20.5153C65.2977 20.6836 65.5128 20.9512 65.6152 21.2673Z" fill="#9E616A"/>
<path d="M46.8318 55.5819C46.9467 55.4213 47.0248 55.2375 47.0608 55.0435C47.0968 54.8495 47.0897 54.6499 47.0401 54.459C46.9904 54.268 46.8995 54.0902 46.7735 53.9381C46.6476 53.786 46.4898 53.6633 46.3112 53.5787L47.3722 42.1822L45.15 43.319L44.4561 54.301C44.3336 54.6099 44.3288 54.9529 44.4426 55.265C44.5565 55.5772 44.7812 55.8368 45.074 55.9946C45.3668 56.1525 45.7075 56.1977 46.0315 56.1216C46.3555 56.0455 46.6402 55.8535 46.8318 55.5819Z" fill="#9E616A"/>
<path d="M48.35 49.8178L57.886 49.4517L58.4362 39.5679H47.4331L48.35 49.8178Z" fill="#9E616A"/>
<path d="M46.5801 84.7233L48.2097 84.7232L48.9848 78.45H46.5798L46.5801 84.7233Z" fill="#9E616A"/>
<path d="M46.1759 83.921L48.7518 83.7675V84.8691L51.2009 86.5572C51.3218 86.6406 51.4129 86.7603 51.4609 86.899C51.5088 87.0378 51.5111 87.1881 51.4673 87.3282C51.4236 87.4683 51.3361 87.5907 51.2177 87.6777C51.0993 87.7646 50.9561 87.8115 50.8091 87.8115H47.7424L47.2138 86.7219L47.0074 87.8115H45.8511L46.1759 83.921Z" fill="#2F2E41"/>
<path d="M53.8279 84.7233L55.4575 84.7232L56.2326 78.45H53.8276L53.8279 84.7233Z" fill="#9E616A"/>
<path d="M48.2177 47.4976C48.2177 47.4976 45.3644 49.7967 46.9112 58.0075C46.6756 58.0355 46.9423 58.4989 46.9423 58.4989L47.1655 65.1891L47.338 65.9559L46.7646 67.1932L47.001 68.5375L46.2722 80.7383L48.9644 81.0858L51.5407 68.4159L52.0313 66.9915L52.5235 65.7429L52.258 64.4114L52.4757 62.3448L53.961 55.3764L54.3246 67.4621L53.8172 68.6159L54.0995 69.8825L53.4705 70.5548L53.2219 81.8626L56.0926 81.9966L58.4678 70.5976L58.2836 69.143L58.5996 68.0674V65.5551L59.1408 64.3694L60.3207 57.9042C60.3207 57.9042 60.6767 52.851 58.0796 46.9046L48.2177 47.4976Z" fill="#2F2E41"/>
<path d="M49.3804 31.3535C49.3804 31.3535 45.7767 32.0648 45.1557 35.1324C44.5348 38.1999 44.1353 45.1415 44.1353 45.1415L44.2712 46.1081L47.7572 46.9149L49.9822 37.1886L49.3804 31.3535Z" fill="#3F3D56"/>
<path d="M57.6047 32.3889C57.6047 32.3889 57.97 31.878 60.0157 31.7992C60.0999 31.7959 59.9956 31.6292 59.9956 31.6292L60.9795 26.8298L64.2581 28.6415L63.7046 33.6731L58.3171 39.7891L57.6047 32.3889Z" fill="#3F3D56"/>
<path d="M55.5611 46.6967C54.0176 46.6968 51.6943 46.5268 48.1967 46.0086C47.9714 45.9747 47.7629 45.8697 47.6016 45.7091C47.4403 45.5485 47.3346 45.3407 47.3001 45.1159C47.1859 44.9955 47.1115 44.843 47.0872 44.679C47.0629 44.515 47.0898 44.3475 47.1642 44.1992L47.1675 44.1929L47.0882 44.0996C46.9657 43.9559 46.8937 43.7761 46.8832 43.5877C46.8728 43.3992 46.9246 43.2126 47.0305 43.0563L45.9474 35.3221C45.8374 34.5541 46.0057 33.7721 46.4219 33.1169C46.8381 32.4616 47.4748 31.9761 48.2177 31.7476L48.6176 31.6234L50.1297 29.6492L50.1595 29.6496L55.014 29.7141L56.5894 31.7108L59.136 32.3101L59.1426 32.3488L59.7339 35.7585C60.0414 37.532 59.3362 38.2296 58.436 39.7891L58.7002 44.1691L58.8201 44.3865C58.8866 44.5068 58.9089 44.6466 58.8831 44.7816C58.8573 44.9166 58.785 45.0383 58.6787 45.1257C58.7591 45.3549 58.7646 45.6035 58.6944 45.8359L58.6321 46.0414C58.6322 46.0473 58.6156 46.1308 58.4811 46.2327C58.2387 46.4165 57.5426 46.6967 55.5611 46.6967Z" fill="#3F3D56"/>
<path d="M53.4237 83.921L55.9996 83.7675V84.8691L58.4487 86.5572C58.5696 86.6406 58.6608 86.7603 58.7087 86.899C58.7566 87.0377 58.7589 87.1881 58.7151 87.3282C58.6714 87.4683 58.5839 87.5907 58.4655 87.6777C58.3471 87.7646 58.2039 87.8115 58.0569 87.8115H54.9902L54.4616 86.7219L54.2552 87.8115H53.0989L53.4237 83.921Z" fill="#2F2E41"/>
<path d="M56.1293 25.3472C56.4659 23.2764 55.057 21.3253 52.9822 20.9893C50.9075 20.6533 48.9526 22.0595 48.616 24.1303C48.2793 26.2011 49.6883 28.1522 51.763 28.4882C53.8377 28.8242 55.7926 27.418 56.1293 25.3472Z" fill="#9E616A"/>
<path d="M54.5981 21.0271C53.2032 20.0696 51.9748 19.9238 50.9658 20.1954C50.835 19.9934 50.6516 19.8309 50.4352 19.7251C49.6483 17.746 47.2534 16.5574 45.1981 17.1352C43.1295 17.7167 41.7023 20.0037 42.0915 22.1132C42.3327 23.4207 43.1572 24.553 43.4888 25.8406C44.1308 28.3333 42.5648 31.1887 40.115 31.9923C42.4345 32.4571 44.9877 31.043 45.8198 28.8326C46.224 27.759 46.2483 26.5868 46.2997 25.441C46.3132 24.6502 46.4103 23.8629 46.5894 23.0924C46.6782 22.7467 46.8037 22.4115 46.9638 22.0924C47.3125 21.391 47.8917 20.8301 48.6047 20.5035C48.5409 20.7006 48.5249 20.91 48.5581 21.1144C48.5914 21.3189 48.6728 21.5126 48.7958 21.6794C48.2519 22.3595 47.9558 23.095 47.9558 23.5355C46.8257 25.5968 48.4417 27.3675 50.507 28.4953C51.3308 28.9475 52.282 29.113 53.2105 28.9657L53.2969 28.5975L53.4139 28.9292L53.8047 30.0409C54.2556 30.2586 54.7025 30.4972 55.1455 30.7568C54.9772 29.9679 54.8411 29.1804 54.7474 28.4105C54.6176 27.3627 55.0698 25.8026 55.396 24.8539C55.5983 24.2693 55.7021 23.6552 55.7032 23.0366V23.0096L56.0208 24.0278L57.1771 23.5355C56.962 22.304 57.1771 20.9059 54.5981 21.0271Z" fill="#2F2E41"/>
<path d="M102.153 88H17.5748C17.5279 87.9998 17.483 87.981 17.4499 87.9478C17.4168 87.9146 17.3982 87.8697 17.3982 87.8228C17.3982 87.776 17.4168 87.7311 17.4499 87.6979C17.483 87.6647 17.5279 87.6459 17.5748 87.6457H102.153C102.2 87.6459 102.245 87.6647 102.278 87.6979C102.311 87.7311 102.33 87.776 102.33 87.8228C102.33 87.8697 102.311 87.9146 102.278 87.9478C102.245 87.981 102.2 87.9998 102.153 88Z" fill="#CCCCCC"/>
<path d="M39.7632 52.5646C41.6415 52.5646 43.1643 51.0448 43.1643 49.17C43.1643 47.2952 41.6415 45.7754 39.7632 45.7754C37.8848 45.7754 36.3621 47.2952 36.3621 49.17C36.3621 51.0448 37.8848 52.5646 39.7632 52.5646Z" fill="#E6E6E6"/>
<path d="M90.9363 47.2191H79.0071C78.6385 47.2186 78.2851 47.0723 78.0244 46.8121C77.7637 46.5519 77.6171 46.1992 77.6167 45.8313V39.3465C77.6171 38.9786 77.7637 38.6258 78.0244 38.3657C78.2851 38.1055 78.6385 37.9592 79.0071 37.9588H90.9363C91.305 37.9592 91.6584 38.1055 91.919 38.3657C92.1797 38.6258 92.3263 38.9786 92.3267 39.3465V45.8313C92.3263 46.1992 92.1797 46.5519 91.919 46.8121C91.6584 47.0723 91.305 47.2186 90.9363 47.2191Z" fill="#F2F2F2"/>
<path d="M91.1121 44.585C92.1096 44.585 92.9182 43.7779 92.9182 42.7823C92.9182 41.7867 92.1096 40.9796 91.1121 40.9796C90.1146 40.9796 89.3059 41.7867 89.3059 42.7823C89.3059 43.7779 90.1146 44.585 91.1121 44.585Z" fill="#6C63FF"/>
<path d="M91.8621 42.6309H91.248V42.018C91.248 41.999 91.2443 41.9803 91.237 41.9628C91.2298 41.9453 91.2191 41.9294 91.2057 41.916C91.1923 41.9026 91.1764 41.892 91.1588 41.8847C91.1413 41.8775 91.1225 41.8737 91.1035 41.8737C91.0652 41.8737 91.0285 41.8889 91.0014 41.916C90.9743 41.943 90.959 41.9797 90.959 42.018V42.6309H90.3449C90.3066 42.6309 90.2699 42.6461 90.2428 42.6731C90.2157 42.7002 90.2004 42.7369 90.2004 42.7751C90.2004 42.7941 90.2042 42.8128 90.2114 42.8303C90.2187 42.8478 90.2293 42.8637 90.2428 42.8771C90.2562 42.8905 90.2721 42.9011 90.2896 42.9084C90.3072 42.9156 90.326 42.9194 90.3449 42.9194H90.959V43.5323C90.959 43.5512 90.9628 43.57 90.97 43.5875C90.9773 43.605 90.9879 43.6209 91.0014 43.6343C91.0148 43.6476 91.0307 43.6583 91.0482 43.6655C91.0658 43.6728 91.0846 43.6765 91.1035 43.6765C91.1419 43.6765 91.1786 43.6613 91.2057 43.6343C91.2328 43.6072 91.248 43.5705 91.248 43.5323V42.9194H91.8622C91.9005 42.9194 91.9372 42.9042 91.9643 42.8771C91.9914 42.8501 92.0067 42.8134 92.0067 42.7751C92.0067 42.7562 92.0029 42.7374 91.9957 42.7199C91.9884 42.7024 91.9778 42.6865 91.9643 42.6731C91.9509 42.6598 91.935 42.6491 91.9175 42.6419C91.8999 42.6346 91.8811 42.6309 91.8621 42.6309Z" fill="white"/>
<path d="M95.7964 45.3788H85.9656C85.5484 45.3783 85.1484 45.2127 84.8533 44.9182C84.5583 44.6237 84.3923 44.2245 84.3918 43.808V37.9511C84.392 37.8744 84.4226 37.801 84.477 37.7469C84.5314 37.6927 84.605 37.6623 84.6818 37.6623C84.7586 37.6623 84.8322 37.6927 84.8866 37.7469C84.9409 37.801 84.9716 37.8744 84.9717 37.9511V39.5196L96.3907 40.5557C96.6188 40.5597 96.8362 40.6529 96.9962 40.8152C97.1561 40.9776 97.2459 41.1961 97.2461 41.4238C97.2461 41.4416 97.2445 41.4595 97.2412 41.4771L96.6657 44.5402C96.6578 44.7651 96.5628 44.9782 96.4006 45.1346C96.2385 45.291 96.0219 45.3785 95.7964 45.3788ZM84.9718 40.1008V43.808C84.9721 44.071 85.0769 44.3232 85.2632 44.5091C85.4495 44.6951 85.7022 44.7997 85.9657 44.8H95.7964C95.8733 44.7999 95.947 44.7694 96.0014 44.7151C96.0557 44.6609 96.0863 44.5873 96.0864 44.5106C96.0864 44.4927 96.088 44.4749 96.0913 44.4573L96.6654 41.4014C96.6597 41.3288 96.6268 41.261 96.5732 41.2115C96.5196 41.162 96.4493 41.1344 96.3763 41.1344C96.3675 41.1344 96.3588 41.134 96.3501 41.1331L84.9718 40.1008Z" fill="#6C63FF"/>
<path d="M83.3534 48.0798C83.6203 48.0798 83.8366 47.8638 83.8366 47.5975C83.8366 47.3311 83.6203 47.1151 83.3534 47.1151C83.0865 47.1151 82.8701 47.3311 82.8701 47.5975C82.8701 47.8638 83.0865 48.0798 83.3534 48.0798Z" fill="#6C63FF"/>
<path d="M95.4098 48.0798C95.6766 48.0798 95.893 47.8638 95.893 47.5975C95.893 47.3311 95.6766 47.1151 95.4098 47.1151C95.1429 47.1151 94.9265 47.3311 94.9265 47.5975C94.9265 47.8638 95.1429 48.0798 95.4098 48.0798Z" fill="#6C63FF"/>
<path d="M95.8932 47.1151H82.9669C82.8901 47.1151 82.8163 47.0846 82.7619 47.0304C82.7076 46.9761 82.677 46.9025 82.677 46.8257C82.677 46.749 82.7076 46.6754 82.7619 46.6211C82.8163 46.5668 82.8901 46.5363 82.9669 46.5363H95.8932C95.9701 46.5363 96.0439 46.5668 96.0982 46.6211C96.1526 46.6754 96.1832 46.749 96.1832 46.8257C96.1832 46.9025 96.1526 46.9761 96.0982 47.0304C96.0439 47.0846 95.9701 47.1151 95.8932 47.1151Z" fill="#6C63FF"/>
<path d="M85.455 38.144H82.9421C82.8653 38.1438 82.7918 38.1133 82.7375 38.059C82.6833 38.0048 82.6528 37.9312 82.6528 37.8546C82.6528 37.778 82.6833 37.7045 82.7375 37.6502C82.7918 37.596 82.8653 37.5654 82.9421 37.5652H85.455C85.5318 37.5654 85.6054 37.596 85.6596 37.6502C85.7138 37.7045 85.7443 37.778 85.7443 37.8546C85.7443 37.9312 85.7138 38.0048 85.6596 38.059C85.6054 38.1133 85.5318 38.1438 85.455 38.144Z" fill="#6C63FF"/>
<path d="M87.471 46.9678C87.4017 46.9679 87.3346 46.9431 87.2821 46.8979L85.3764 45.2633C85.3474 45.2386 85.3236 45.2084 85.3063 45.1744C85.2891 45.1405 85.2787 45.1035 85.2758 45.0656C85.2728 45.0276 85.2774 44.9895 85.2893 44.9533C85.3012 44.9172 85.3201 44.8837 85.3449 44.8548C85.3698 44.826 85.4001 44.8023 85.4341 44.7851C85.4681 44.768 85.5052 44.7577 85.5433 44.7548C85.5813 44.752 85.6195 44.7567 85.6557 44.7686C85.6919 44.7805 85.7254 44.7995 85.7543 44.8243L87.6601 46.4589C87.705 46.4975 87.737 46.5488 87.7518 46.606C87.7666 46.6632 87.7635 46.7236 87.7429 46.779C87.7223 46.8345 87.6852 46.8823 87.6366 46.916C87.588 46.9498 87.5302 46.9678 87.471 46.9678Z" fill="#6C63FF"/>
<path d="M87.8725 45.201C87.8344 45.201 87.7967 45.1935 87.7615 45.179C87.7263 45.1645 87.6944 45.1431 87.6675 45.1163C87.6405 45.0894 87.6192 45.0575 87.6046 45.0224C87.59 44.9873 87.5825 44.9497 87.5825 44.9117V40.2662C87.5825 40.1894 87.6131 40.1158 87.6674 40.0616C87.7218 40.0073 87.7956 39.9768 87.8725 39.9768C87.9494 39.9768 88.0231 40.0073 88.0775 40.0616C88.1319 40.1158 88.1624 40.1894 88.1624 40.2662V44.9116C88.1624 44.9496 88.1549 44.9873 88.1404 45.0224C88.1258 45.0575 88.1044 45.0894 88.0775 45.1163C88.0506 45.1431 88.0186 45.1644 87.9835 45.179C87.9483 45.1935 87.9105 45.201 87.8725 45.201Z" fill="#6C63FF"/>
<path d="M93.9975 45.201C93.9594 45.201 93.9217 45.1935 93.8865 45.179C93.8513 45.1644 93.8194 45.1431 93.7924 45.1163C93.7655 45.0894 93.7442 45.0575 93.7296 45.0224C93.715 44.9873 93.7075 44.9497 93.7075 44.9117V40.652C93.7077 40.5754 93.7383 40.502 93.7927 40.4478C93.847 40.3937 93.9207 40.3633 93.9975 40.3633C94.0743 40.3633 94.1479 40.3937 94.2023 40.4478C94.2566 40.502 94.2872 40.5754 94.2874 40.652V44.9116C94.2874 44.9496 94.2799 44.9873 94.2653 45.0224C94.2508 45.0575 94.2294 45.0894 94.2025 45.1162C94.1756 45.1431 94.1436 45.1644 94.1084 45.179C94.0733 45.1935 94.0355 45.201 93.9975 45.201Z" fill="#6C63FF"/>
</g>
<defs>
<clipPath id="clip0_42_463">
<rect width="119.728" height="88" fill="white"/>
</clipPath>
</defs>
</svg>
