<svg width="121" height="91" viewBox="0 0 121 91" fill="none" xmlns="http://www.w3.org/2000/svg">
<g clip-path="url(#clip0_42_465)">
<path d="M1.64404 89.5406C1.64459 89.5712 1.65118 89.6013 1.66342 89.6294C1.67565 89.6575 1.69331 89.6828 1.71536 89.704C1.73742 89.7253 1.76344 89.7419 1.79195 89.7531C1.82046 89.7642 1.85089 89.7697 1.88149 89.769H120.292C120.323 89.7703 120.354 89.7654 120.383 89.7545C120.411 89.7436 120.438 89.727 120.46 89.7057C120.482 89.6843 120.5 89.6587 120.512 89.6303C120.524 89.602 120.531 89.5715 120.531 89.5406C120.531 89.5098 120.524 89.4793 120.512 89.4509C120.5 89.4225 120.482 89.3969 120.46 89.3756C120.438 89.3542 120.411 89.3376 120.383 89.3267C120.354 89.3158 120.323 89.3109 120.292 89.3122H1.88149C1.8509 89.3116 1.82048 89.317 1.79198 89.3282C1.76348 89.3393 1.73746 89.356 1.71541 89.3772C1.69336 89.3984 1.6757 89.4237 1.66346 89.4518C1.65121 89.4798 1.64461 89.51 1.64404 89.5406Z" fill="#CCCCCC"/>
<path d="M61.9847 66.9984C61.8302 67.933 61.3487 68.7824 60.626 69.3952C59.9034 70.008 58.9866 70.3444 58.039 70.3444C57.0914 70.3444 56.1746 70.008 55.4519 69.3952C54.7293 68.7824 54.2478 67.933 54.0933 66.9984H43.9985V88.8682H72.0793V66.9984H61.9847Z" fill="#D6D6E3"/>
<path d="M47.264 88.7872H44.4885V89.2769H47.264V88.7872Z" fill="#B6B3C5"/>
<path d="M71.8345 88.8687H69.0591V89.3583H71.8345V88.8687Z" fill="#B6B3C5"/>
<path d="M72.1612 87.1361H44.0803V87.8974H72.1612V87.1361Z" fill="#090814"/>
<path d="M114.513 67.5696H1.56547C1.15042 67.5691 0.752515 67.4041 0.459035 67.1107C0.165555 66.8173 0.000471167 66.4195 0 66.0046L0 1.56514C0.000434928 1.15019 0.165503 0.752369 0.458987 0.458947C0.752471 0.165525 1.1504 0.000471093 1.56547 0H114.513C114.928 0.000471026 115.326 0.165506 115.619 0.458898C115.913 0.752291 116.078 1.15008 116.078 1.565V66.0046C116.078 66.4195 115.913 66.8173 115.619 67.1107C115.326 67.4041 114.928 67.5691 114.513 67.5696Z" fill="#090814"/>
<path d="M113.302 2.61145H2.77515V64.9583H113.302V2.61145Z" fill="white"/>
<path d="M58.1426 33.6556L46.2918 24.7818L34.6029 33.5343L34.3352 33.1775L46.2918 24.2245L58.0863 33.0561L69.8066 20.2338L69.8537 20.2147L81.6765 15.4527L81.8433 15.8664L70.0676 20.6095L58.1426 33.6556Z" fill="#D6D6E3"/>
<path d="M93.7601 50.0811H22.4814C22.4222 50.0811 22.3655 50.0576 22.3236 50.0158C22.2818 49.974 22.2583 49.9172 22.2583 49.8581V15.7045C22.2583 15.6453 22.2818 15.5886 22.3236 15.5468C22.3655 15.505 22.4222 15.4815 22.4814 15.4815C22.5405 15.4815 22.5973 15.505 22.6391 15.5468C22.6809 15.5886 22.7044 15.6453 22.7044 15.7045V49.6351H93.7601C93.8193 49.6351 93.876 49.6586 93.9179 49.7004C93.9597 49.7422 93.9832 49.7989 93.9832 49.8581C93.9832 49.9172 93.9597 49.974 93.9179 50.0158C93.876 50.0576 93.8193 50.0811 93.7601 50.0811Z" fill="#3F3D56"/>
<path d="M37.7108 47.6281H31.2277C31.0521 47.6279 30.8838 47.5581 30.7596 47.434C30.6355 47.3099 30.5656 47.1417 30.5654 46.9662V38.0318C30.5656 37.8563 30.6355 37.688 30.7596 37.5639C30.8838 37.4398 31.0521 37.3701 31.2277 37.3699H37.7107C37.8862 37.3701 38.0546 37.4398 38.1787 37.5639C38.3028 37.688 38.3727 37.8563 38.3729 38.0318V46.9663C38.3727 47.1418 38.3028 47.31 38.1787 47.434C38.0546 47.5581 37.8863 47.6279 37.7108 47.6281Z" fill="#6C63FF"/>
<path d="M49.5336 47.6279H43.0504C42.8749 47.6277 42.7065 47.5579 42.5824 47.4339C42.4582 47.3098 42.3884 47.1415 42.3882 46.966V29.5576C42.3884 29.3821 42.4582 29.2138 42.5824 29.0897C42.7065 28.9657 42.8749 28.8959 43.0504 28.8957H49.5334C49.709 28.8959 49.8773 28.9657 50.0015 29.0897C50.1256 29.2138 50.1954 29.3821 50.1957 29.5576V46.966C50.1954 47.1415 50.1256 47.3098 50.0015 47.4339C49.8773 47.5579 49.709 47.6277 49.5334 47.6279H49.5336Z" fill="#6C63FF"/>
<path d="M61.3561 47.6281H54.8729C54.6974 47.6279 54.5291 47.5581 54.4049 47.434C54.2808 47.3099 54.2109 47.1417 54.2107 46.9662V38.0318C54.2109 37.8563 54.2808 37.688 54.4049 37.5639C54.5291 37.4398 54.6974 37.3701 54.8729 37.3699H61.356C61.5315 37.3701 61.6998 37.4398 61.824 37.5639C61.9481 37.688 62.018 37.8563 62.0182 38.0318V46.9663C62.0179 47.1418 61.9481 47.31 61.824 47.434C61.6998 47.5581 61.5316 47.6279 61.3561 47.6281Z" fill="#6C63FF"/>
<path d="M73.1788 47.6281H66.6957C66.5241 47.6318 66.3581 47.5673 66.2339 47.4489C66.1098 47.3304 66.0377 47.1676 66.0334 46.9961V26.1827C66.0377 26.0112 66.1098 25.8483 66.2339 25.7298C66.358 25.6114 66.5241 25.5469 66.6957 25.5506H73.1787C73.3503 25.5469 73.5163 25.6113 73.6404 25.7298C73.7646 25.8482 73.8367 26.011 73.8409 26.1825V46.996C73.8367 47.1675 73.7646 47.3303 73.6405 47.4488C73.5164 47.5673 73.3504 47.6317 73.1788 47.6281Z" fill="#6C63FF"/>
<path d="M85.0016 47.6281H78.5184C78.3429 47.6279 78.1746 47.5581 78.0504 47.434C77.9263 47.3099 77.8564 47.1417 77.8562 46.9662V20.1916C77.8564 20.0161 77.9263 19.8478 78.0504 19.7237C78.1746 19.5996 78.3429 19.5298 78.5184 19.5297H85.0015C85.177 19.5298 85.3453 19.5996 85.4695 19.7237C85.5936 19.8478 85.6635 20.0161 85.6637 20.1916V46.9662C85.6635 47.1417 85.5936 47.3099 85.4695 47.434C85.3453 47.5581 85.1771 47.6279 85.0016 47.6281Z" fill="#6C63FF"/>
<path d="M34.4411 34.6299C35.1979 34.6299 35.8115 34.0549 35.8115 33.3457C35.8115 32.6364 35.1979 32.0614 34.4411 32.0614C33.6843 32.0614 33.0708 32.6364 33.0708 33.3457C33.0708 34.0549 33.6843 34.6299 34.4411 34.6299Z" fill="#3F3D56"/>
<path d="M46.2597 26.0684C47.0165 26.0684 47.6301 25.455 47.6301 24.6984C47.6301 23.9419 47.0165 23.3285 46.2597 23.3285C45.5029 23.3285 44.8894 23.9419 44.8894 24.6984C44.8894 25.455 45.5029 26.0684 46.2597 26.0684Z" fill="#3F3D56"/>
<path d="M58.0783 34.6299C58.8352 34.6299 59.4487 34.0549 59.4487 33.3457C59.4487 32.6364 58.8352 32.0614 58.0783 32.0614C57.3215 32.0614 56.708 32.6364 56.708 33.3457C56.708 34.0549 57.3215 34.6299 58.0783 34.6299Z" fill="#3F3D56"/>
<path d="M69.8969 21.7875C70.6538 21.7875 71.2673 21.1741 71.2673 20.4176C71.2673 19.661 70.6538 19.0476 69.8969 19.0476C69.1401 19.0476 68.5266 19.661 68.5266 20.4176C68.5266 21.1741 69.1401 21.7875 69.8969 21.7875Z" fill="#3F3D56"/>
<path d="M81.7158 16.9935C82.4726 16.9935 83.0861 16.38 83.0861 15.6233C83.0861 14.8666 82.4726 14.2531 81.7158 14.2531C80.959 14.2531 80.3455 14.8666 80.3455 15.6233C80.3455 16.38 80.959 16.9935 81.7158 16.9935Z" fill="#3F3D56"/>
<path d="M93.7448 39.4022C93.7448 39.4022 91.7152 39.0523 88.7055 36.3236C86.3243 34.1653 83.1125 34.5896 81.874 34.8618C81.8318 34.8709 81.7933 34.8927 81.7639 34.9243C81.7344 34.9558 81.7153 34.9957 81.7092 35.0384C81.703 35.0812 81.7102 35.1248 81.7296 35.1634C81.749 35.202 81.7797 35.2337 81.8177 35.2543C82.3182 35.5281 83.0943 35.9281 83.458 35.9737C83.458 35.9737 82.7078 36.7495 83.5051 37.1647C83.6005 37.2115 83.7072 37.231 83.813 37.2208C83.9189 37.2106 84.0198 37.1711 84.1046 37.1069C84.488 36.8271 85.5531 37.4628 87.0974 37.7929C87.0974 37.7929 93.1164 44.02 94.5162 42.9644L93.7448 39.4022Z" fill="#FFB9B9"/>
<path d="M104.108 30.9361C104.108 30.9361 104.668 33.315 104.108 34.9943L106.628 35.3441L108.867 34.2245V32.7553C108.867 32.7553 107.817 30.5164 108.097 27.9276L104.108 30.9361Z" fill="#FFB9B9"/>
<path d="M111.242 82.4997C111.242 82.4997 113.068 86.068 112.782 88.447C112.496 90.826 115.161 88.7268 114.882 87.3275C114.822 89.0214 115.665 81.3953 116.059 79.6097C116.102 79.4167 116.071 79.2148 115.974 79.043C115.876 78.8713 115.718 78.742 115.53 78.6803C114.688 78.4035 113.28 78.0642 112.572 78.5829C111.527 79.3511 111.242 82.4997 111.242 82.4997Z" fill="#090814"/>
<path d="M104.318 86.4178C104.318 86.4178 101.938 89.4963 101.308 89.5664C100.679 89.6365 100.258 90.616 101.308 90.8259C103.405 91.1906 105.56 90.9804 107.547 90.2175C107.745 90.14 107.912 89.998 108.021 89.8143C108.129 89.6306 108.173 89.4159 108.145 89.2045L107.743 86.2079L104.318 86.4178Z" fill="#090814"/>
<path d="M100.398 53.7442L98.1161 54.0481C98.4294 56.713 98.4202 59.4059 98.0887 62.0686V71.6513C98.0887 71.6513 98.0446 72.4956 99.7974 73.723C101.635 75.0004 103.407 76.3712 105.104 77.8299L111.455 83.3302C111.455 83.3302 113.975 80.2516 113.625 78.4325C113.625 78.4325 109.425 77.1031 108.866 74.9341C108.545 73.6929 106.917 72.6526 105.584 71.9985C104.746 71.5917 104.072 70.9106 103.675 70.0683C103.278 69.226 103.181 68.2731 103.4 67.3681C103.478 67.0536 103.598 66.7512 103.758 66.4691C104.878 64.51 106.487 60.1021 106.487 60.1021L103.408 54.2338L100.398 53.7442Z" fill="#090814"/>
<path d="M103.758 86.6322C103.758 86.6322 107.887 87.3318 108.027 87.7517C108.167 88.1716 108.027 87.1919 108.027 87.1919C108.027 87.1919 110.408 79.9854 109.853 73.6198C109.299 67.2541 110.553 63.0545 110.553 63.0545C110.553 63.0545 112.023 58.2967 111.183 55.5679C110.343 52.8391 101.524 54.0286 101.524 54.0286C101.524 54.0286 104.604 61.2354 104.534 64.6638C104.534 64.6638 104.884 75.0191 105.514 76.2086C105.508 76.2026 104.528 86.348 103.758 86.6322Z" fill="#090814"/>
<path d="M104.243 32.7553C104.243 32.7553 104.663 35.3412 108.863 34.2247L106.069 55.4934C106.069 55.4934 97.9503 55.7732 98.0202 54.7938L99.6939 41.9211L104.243 32.7553Z" fill="white"/>
<path d="M104.353 32.6853C103.727 33.1744 102.979 33.4822 102.191 33.5751C101.494 33.6285 100.817 33.8297 100.204 34.1653C99.484 34.5683 98.6821 35.1539 98.4387 35.8673C97.9487 37.2666 94.8693 39.5755 93.4695 39.0859L93.9594 43.2839C93.9594 43.2839 97.9488 43.0741 98.6487 41.5347L97.4604 56.5148H98.5101C98.5101 56.5148 99.0701 52.4567 99.4899 51.6171C99.9098 50.7775 100.75 46.1596 100.82 45.04C100.89 43.9205 101.94 37.4834 102.849 36.3701L104.354 33.1166L104.353 32.6853Z" fill="#D6D6E3"/>
<path opacity="0.1" d="M107.922 29.9915C107.831 29.3284 108.014 28.9146 108.097 28.1374L104.108 31.146C104.108 31.146 104.204 31.5522 104.277 32.1468C104.478 32.1794 104.681 32.1957 104.885 32.1956C106.27 32.1956 107.267 31.1141 107.922 29.9915Z" fill="black"/>
<path d="M104.878 31.9872C106.965 31.9872 108.657 30.2956 108.657 28.2089C108.657 26.1222 106.965 24.4305 104.878 24.4305C102.791 24.4305 101.098 26.1222 101.098 28.2089C101.098 30.2956 102.791 31.9872 104.878 31.9872Z" fill="#FFB9B9"/>
<path d="M101.079 24.9915C101.057 24.4036 101.153 23.8172 101.36 23.2666C101.303 23.3533 101.278 23.4578 101.292 23.5609C101.305 23.6641 101.355 23.7589 101.433 23.8279C101.546 23.2278 101.854 22.6818 102.31 22.2752C102.061 22.3163 101.933 22.6234 101.995 22.8677C102.079 23.1063 102.228 23.3165 102.426 23.4742C102.405 23.1046 102.649 22.7596 102.958 22.557C103.28 22.3721 103.632 22.2448 103.997 22.1808C103.872 22.2253 103.765 22.31 103.693 22.4217C103.62 22.5335 103.587 22.6659 103.598 22.7985C103.599 22.8435 103.618 22.8863 103.65 22.9178C103.685 22.9403 103.727 22.9511 103.768 22.9488C104.132 22.9628 104.496 22.9549 104.859 22.925C105.306 22.8748 105.754 22.8508 106.203 22.8534C107.608 22.9124 109.019 23.8712 109.334 25.24C109.399 25.5721 109.433 25.9095 109.436 26.248L109.505 27.9762C109.545 28.4803 109.524 28.9875 109.443 29.4867C109.346 29.9476 109.148 30.3813 108.863 30.757C108.579 31.1326 108.215 31.4409 107.798 31.6599C107.292 30.9257 107.246 29.9822 107.071 29.1076C107.043 28.9059 106.968 28.7135 106.852 28.5463C106.792 28.4636 106.707 28.4016 106.611 28.3689C106.514 28.3363 106.409 28.3345 106.311 28.3639C106.122 28.4397 106.04 28.7288 106.197 28.858C106.057 29.0237 105.794 28.9002 105.636 28.7528C105.193 28.3325 104.888 27.7876 104.761 27.1902C104.698 26.8898 104.635 26.5194 104.34 26.4166C104.238 26.3888 104.132 26.3816 104.028 26.3956C103.413 26.4377 102.451 26.6918 101.856 26.4966C101.309 26.317 101.079 25.5097 101.079 24.9915Z" fill="#090814"/>
<path d="M93.4407 39.0874C93.4407 39.0874 92.8807 41.6732 93.9306 43.2854L94.5255 43.2367L94.2013 39.1298L93.4407 39.0874Z" fill="#D6D6E3"/>
<path d="M108.622 32.0266L113.137 35.9098C113.137 35.9098 115.796 38.6387 114.676 43.0468C114.676 43.0468 114.186 49.484 113.626 49.7638C113.626 49.7638 111.667 53.682 111.527 57.3903C111.527 57.3903 108.762 51.8278 107.571 55.0463C106.38 58.2649 103.756 59.0009 103.756 59.0009L105.296 39.971C105.296 39.971 109.182 33.21 108.622 32.0266Z" fill="#D6D6E3"/>
<path d="M110.687 48.4282C110.687 48.4282 111.807 47.6586 113.626 49.7576L109.147 57.8739L107.642 55.603C107.642 55.603 110.827 49.3378 110.687 48.4282Z" fill="#FFB9B9"/>
<path d="M109.602 48.7431C109.602 48.7431 112.079 51.5236 113.045 51.0779L113.94 48.9955L110.582 47.5536L109.602 48.7431Z" fill="#D6D6E3"/>
<path opacity="0.1" d="M109.952 40.2069C109.952 40.2069 110.092 45.2447 109.532 47.1339L109.952 40.2069Z" fill="black"/>
<path opacity="0.1" d="M98.6135 41.1864C98.6135 41.1864 99.4534 40.9066 99.4534 40.2069L98.6135 41.1864Z" fill="black"/>
</g>
<defs>
<clipPath id="clip0_42_465">
<rect width="120.53" height="91" fill="white"/>
</clipPath>
</defs>
</svg>
