<svg width="120" height="85" viewBox="0 0 120 85" fill="none" xmlns="http://www.w3.org/2000/svg">
<g clip-path="url(#clip0_42_466)">
<path opacity="0.1" d="M39.8014 84.9522C45.6316 84.9522 50.3579 84.1914 50.3579 83.2528C50.3579 82.3142 45.6316 81.5533 39.8014 81.5533C33.9712 81.5533 29.2449 82.3142 29.2449 83.2528C29.2449 84.1914 33.9712 84.9522 39.8014 84.9522Z" fill="#6C63FF"/>
<path opacity="0.1" d="M97.1851 85C104.46 85 110.358 84.2391 110.358 83.3005C110.358 82.3619 104.46 81.601 97.1851 81.601C89.9099 81.601 84.0122 82.3619 84.0122 83.3005C84.0122 84.2391 89.9099 85 97.1851 85Z" fill="#6C63FF"/>
<path opacity="0.1" d="M1.49951 36.7261H12.4948V51.7478H2.30447C2.27738 51.902 2.25138 52.0573 2.22321 52.2125H12.4948V64.3272C12.4764 64.3217 12.4601 64.3152 12.4428 64.3087C12.1524 64.1936 11.8643 64.072 11.5761 63.9417L11.3919 63.858C11.103 63.7212 10.8141 63.5764 10.5252 63.4237C10.4244 63.3705 10.3237 63.3151 10.224 63.2586C8.62015 62.3581 7.16313 61.217 5.90347 59.8749C5.86664 59.839 5.83197 59.801 5.79513 59.7663C5.61963 59.5751 5.44737 59.3818 5.28053 59.1842L5.09635 58.967C4.89917 58.7249 4.7085 58.4762 4.52324 58.2242C4.49616 58.1873 4.47015 58.1504 4.44199 58.1156C3.68854 57.0685 3.06295 55.9347 2.57856 54.7384C2.5634 54.7026 2.5504 54.6635 2.53631 54.6298C2.38753 54.2461 2.25572 53.8588 2.14088 53.4679C2.09104 53.3039 2.04337 53.1421 2.0022 52.9716C1.98704 52.9216 1.97404 52.8728 1.96212 52.8239C1.34676 50.4164 1.27417 47.9155 1.27417 45.432C1.27417 45.1421 1.27417 44.851 1.27417 44.5633C1.27417 43.5588 1.28609 42.5478 1.30342 41.5379C1.30342 41.2761 1.31425 41.0155 1.31967 40.7527C1.33484 40.086 1.35651 39.4192 1.38468 38.7524C1.39118 38.5668 1.39984 38.3821 1.40959 38.1975C1.40959 38.0911 1.41501 37.9847 1.42584 37.8783C1.45185 37.4917 1.47351 37.1084 1.49951 36.7261Z" fill="#6C63FF"/>
<path opacity="0.1" d="M12.4946 20.0006H6.46338C7.44378 18.4625 8.51499 16.9845 9.67128 15.5744C10.5672 14.4711 11.513 13.396 12.4946 12.36V20.0006Z" fill="#6C63FF"/>
<path opacity="0.1" d="M12.4948 20.4654V36.2613H1.53418C1.53418 36.2157 1.54176 36.169 1.54501 36.1234C1.55476 35.9986 1.56451 35.8737 1.57535 35.7499C1.58727 35.6044 1.60027 35.4578 1.61435 35.3155C1.62843 35.1732 1.6436 34.9995 1.65985 34.842C1.6761 34.6846 1.69127 34.5249 1.70969 34.3675C1.72811 34.21 1.74436 34.0526 1.76386 33.8962C1.78336 33.7398 1.80069 33.5813 1.82128 33.4249C1.83753 33.2946 1.85486 33.1654 1.8722 33.0351C1.89711 32.8515 1.92311 32.6669 1.95128 32.4845C1.95128 32.4573 1.95887 32.4291 1.9632 32.403C2.16094 31.0675 2.43037 29.7437 2.77032 28.4372C3.12617 27.0668 3.58057 25.7239 4.12997 24.4193C4.71388 23.0545 5.39754 21.7347 6.1754 20.4709L12.4948 20.4654Z" fill="#6C63FF"/>
<path opacity="0.1" d="M15.1196 36.725V51.7478H38.6042V36.725H15.1196ZM15.1196 52.2114V65.1123C15.254 65.1405 15.3872 65.1677 15.5194 65.1905C15.6992 65.2252 15.878 65.2567 16.0611 65.2839C16.0958 65.2893 16.1315 65.2947 16.1694 65.298C16.2409 65.3099 16.3146 65.3197 16.3861 65.3295C16.567 65.3544 16.7469 65.3751 16.9278 65.3914C17.0134 65.4001 17.1001 65.4077 17.1867 65.4142L17.3958 65.4305C17.5096 65.4391 17.6222 65.4457 17.7338 65.4489C17.8032 65.4489 17.8725 65.4554 17.944 65.4576C17.9982 65.4576 18.0523 65.4576 18.1087 65.4576C18.165 65.4576 18.2452 65.4576 18.3134 65.4576C18.4066 65.4576 18.4998 65.4576 18.5919 65.4576H18.7165C18.8096 65.4576 18.9028 65.4576 18.9949 65.4489H19.0014C19.0653 65.4489 19.1303 65.4489 19.1953 65.4402C19.2134 65.4413 19.2314 65.4413 19.2495 65.4402C19.3037 65.4402 19.3578 65.4402 19.4098 65.4326H19.4477L19.8107 65.4044C19.9299 65.3935 20.0501 65.3794 20.1714 65.3664L20.4185 65.3371C21.4234 65.1959 22.4171 64.984 23.3924 64.7029C25.583 64.0904 27.7259 63.2336 29.9154 62.606C32.7463 61.7969 35.874 61.3995 38.6096 62.3888V52.2114H15.1196ZM38.6042 20.0006V0.00107401C36.033 -0.0268478 33.4688 0.274585 30.9739 0.898052C25.0272 2.39555 19.6915 5.64356 15.1196 9.79181V19.9995H16.2983V20.4632H15.1196V36.2613H38.6042V20.4643H21.1378V20.0006H38.6042ZM68.7688 13.2451C67.2976 13.1929 65.835 12.726 64.5122 12.0049C61.9825 10.6258 59.962 8.4963 57.7042 6.69908C53.0132 2.95589 47.1954 0.697154 41.227 0.136815V20.0006H74.7524L74.8358 19.9127L68.7688 13.2451ZM71.8229 12.7021L75.0611 16.2639V11.7682C73.9767 11.9029 73.0265 12.2232 71.8272 12.6978L71.8229 12.7021ZM75.0611 68.3158V52.2114H68.161C68.1426 52.143 68.1242 52.0735 68.1025 52.004C68.1231 52.0735 68.1405 52.143 68.16 52.2114H41.2314V63.858C41.487 64.0481 41.7395 64.2479 41.9897 64.451C42.2595 64.6681 42.526 64.8973 42.7936 65.1221L43.0634 65.3458C43.1923 65.4543 43.3223 65.5629 43.4534 65.665C43.7134 65.8764 43.9759 66.0849 44.241 66.2905C44.3721 66.3991 44.5064 66.4968 44.6397 66.5989C46.7552 68.2202 48.9869 69.6832 51.3166 70.9763C51.8388 71.2659 52.3657 71.5486 52.8972 71.8244C53.2515 72.0058 53.6079 72.186 53.9655 72.3609C54.5028 72.6236 55.0445 72.877 55.5905 73.121C60.6246 75.3861 65.9478 76.9404 71.4079 77.7395C72.6206 77.919 73.838 78.0602 75.06 78.163V68.3147H75.1684L75.0611 68.3158ZM41.2314 20.4643V36.2613H75.0655V20.4643H41.2314ZM41.2314 36.725V51.7478H75.0655V36.725H41.2314ZM77.6916 11.7487V16.7635L81.8247 12.2178C80.4553 11.9962 79.0776 11.8381 77.6916 11.7432V11.7487ZM77.6916 36.7304V51.7478H110.599V36.725L77.6916 36.7304ZM110.479 69.5081L110.595 52.2114H77.6916V78.3356C79.8112 78.4249 81.9341 78.3995 84.051 78.2596H84.0879C85.099 78.1959 86.1055 78.1033 87.1073 77.9816H87.13C92.4744 77.3582 97.7003 75.9605 102.644 73.8323M116.945 39.1988C116.821 38.9066 116.692 38.6167 116.561 38.33C116.316 37.7871 116.057 37.2593 115.791 36.7315H113.223V51.7478H119.715C119.712 47.4953 118.638 43.1515 116.948 39.1933L116.945 39.1988ZM113.223 52.2169V67.0941C115.052 65.3371 116.597 63.327 117.71 61.0292C119.048 58.2622 119.66 55.2662 119.71 52.2147L113.223 52.2169ZM113.223 32.3531V36.2624H115.55C114.846 34.9166 114.071 33.6098 113.227 32.3476L113.223 32.3531ZM90.9056 14.6959C90.7344 14.6307 90.5633 14.5645 90.391 14.5004C88.5743 13.8279 86.7178 13.2687 84.8322 12.8259L78.5074 19.7834L78.386 19.9127L78.4673 20.0017H100.978C97.8428 17.8386 94.4628 16.0557 90.9089 14.6904L90.9056 14.6959ZM101.638 20.4697H78.1531L77.6916 20.8933V36.2613H81.7369H81.7434H110.604V28.8173C107.993 25.6524 104.98 22.8442 101.641 20.4643L101.638 20.4697Z" fill="#6C63FF"/>
<path opacity="0.1" d="M12.4948 28.4329V36.2613H1.53418C1.53418 36.2157 1.54176 36.169 1.54501 36.1234C1.55476 35.9985 1.56451 35.8736 1.57535 35.7499C1.58727 35.6043 1.60027 35.4577 1.61435 35.3155C1.62843 35.1732 1.6436 34.9995 1.65985 34.842C1.6761 34.6846 1.69127 34.5249 1.70969 34.3675C1.72811 34.21 1.74436 34.0525 1.76386 33.8962C1.78336 33.7398 1.80069 33.5813 1.82128 33.4249C1.83753 33.2946 1.85486 33.1653 1.8722 33.035C1.89711 32.8515 1.92311 32.6669 1.95128 32.4845C1.95128 32.4573 1.95887 32.4291 1.9632 32.403C2.16094 31.0675 2.43037 29.7436 2.77032 28.4372L12.4948 28.4329Z" fill="#6C63FF"/>
<path opacity="0.1" d="M1.49951 36.7261H12.4948V51.7478H2.30447C2.27738 51.902 2.25138 52.0573 2.22321 52.2125H12.4948V64.3272C12.4764 64.3217 12.4601 64.3152 12.4428 64.3087C12.1524 64.1936 11.8643 64.072 11.5761 63.9417L11.3919 63.858C11.103 63.7212 10.8141 63.5764 10.5252 63.4237C10.4244 63.3705 10.3237 63.3151 10.224 63.2586C8.62015 62.3581 7.16313 61.217 5.90347 59.8749C5.86664 59.839 5.83197 59.801 5.79513 59.7663C5.61963 59.5751 5.44737 59.3818 5.28053 59.1842L5.09635 58.967C4.89917 58.7249 4.7085 58.4762 4.52324 58.2242C4.49616 58.1873 4.47015 58.1504 4.44199 58.1156C3.68854 57.0685 3.06295 55.9347 2.57856 54.7384C2.5634 54.7026 2.5504 54.6635 2.53631 54.6298C2.38753 54.2461 2.25572 53.8588 2.14088 53.4679C2.09104 53.3039 2.04337 53.1421 2.0022 52.9716C1.98704 52.9216 1.97404 52.8728 1.96212 52.8239C1.34676 50.4164 1.27417 47.9155 1.27417 45.432C1.27417 45.1421 1.27417 44.851 1.27417 44.5633C1.27417 43.5588 1.28609 42.5478 1.30342 41.5379C1.30342 41.2761 1.31425 41.0155 1.31967 40.7527C1.33484 40.086 1.35651 39.4192 1.38468 38.7524C1.39118 38.5668 1.39984 38.3821 1.40959 38.1975C1.40959 38.0911 1.41501 37.9847 1.42584 37.8783C1.45185 37.4917 1.47351 37.1084 1.49951 36.7261Z" fill="#6C63FF"/>
<path opacity="0.1" d="M23.3869 22.7263V36.2613H15.1196V22.7263H16.2984V18.1437H21.1367V22.7263H23.3869Z" fill="#6C63FF"/>
<path opacity="0.1" d="M23.3871 36.725H15.1208V51.7467H23.3871V36.725Z" fill="#6C63FF"/>
<path opacity="0.1" d="M15.1196 52.2126H23.3869V64.7007C22.4117 64.9816 21.418 65.1932 20.413 65.3338L20.166 65.3642C20.0447 65.3784 19.9244 65.3903 19.8053 65.4022C19.6861 65.4142 19.5626 65.4229 19.4423 65.4305H19.4044C19.3524 65.4305 19.2961 65.437 19.2452 65.4381H19.1899C19.1249 65.4381 19.0599 65.4446 18.9949 65.4468C18.9028 65.4522 18.8107 65.4533 18.7165 65.4544C18.6764 65.4544 18.6385 65.4544 18.5984 65.4544C18.5052 65.4544 18.4131 65.4544 18.3199 65.4544H18.1152C18.0599 65.4544 18.0068 65.4544 17.9494 65.4544L17.7403 65.4468C17.632 65.4468 17.515 65.4348 17.4023 65.4272L17.1943 65.412L16.9354 65.3881C16.7534 65.3718 16.5724 65.3512 16.3937 65.3262L16.177 65.2958L16.0687 65.2806C15.8877 65.2524 15.709 65.222 15.527 65.1872C15.3937 65.1644 15.2616 65.1362 15.1272 65.109L15.1196 52.2126Z" fill="#6C63FF"/>
<path opacity="0.1" d="M75.0654 21.1278H68.2488V36.2603H75.0654V21.1278Z" fill="#6C63FF"/>
<path opacity="0.1" d="M75.0666 36.725V51.7478H41.2314V45.268H59.2535V49.0905H68.2489V36.725H75.0666Z" fill="#6C63FF"/>
<path opacity="0.1" d="M75.1739 68.319H75.0655V78.1738C73.8449 78.0703 72.6279 77.9295 71.4145 77.7514C65.9517 76.9498 60.6263 75.3922 55.5906 73.1232C54.1367 72.4673 52.7124 71.7513 51.3178 70.9752C48.9881 69.6815 46.7561 68.2185 44.6398 66.5978C44.1082 66.1895 43.5835 65.7718 43.0656 65.3447C42.707 65.0482 42.3506 64.7442 41.9898 64.4488C41.7396 64.2457 41.4871 64.0459 41.2314 63.8548V52.2125H68.159C68.1405 52.143 68.1221 52.0735 68.1026 52.0051C68.1232 52.0735 68.1427 52.143 68.1611 52.2125H75.0655V68.3125C75.1024 68.3136 75.1381 68.3169 75.1739 68.319Z" fill="#6C63FF"/>
<path opacity="0.1" d="M92.844 20.0006H88.4021V18.6172H90.3934V14.4961C90.566 14.559 90.7379 14.6238 90.9091 14.6904V18.6172H92.844V20.0006Z" fill="#6C63FF"/>
<path opacity="0.1" d="M103.546 36.2613H81.7392C81.7392 36.2613 81.7392 36.2613 81.7468 36.2668L81.737 36.2613H77.6917V21.1289H78.8379V32.314H84.076V25.6898H88.4031V20.4654H92.8449V25.6942H97.172V32.3183H103.546V36.2613Z" fill="#6C63FF"/>
<path opacity="0.1" d="M77.6917 36.725V51.7478H103.546V36.725H77.6917ZM110.564 69.431L110.599 57.5401H103.546V52.2191H77.6917V78.3357C79.8113 78.4249 81.9342 78.3995 84.0511 78.2596H84.088C85.0991 78.1959 86.1056 78.1033 87.1073 77.9816H87.1301C92.4745 77.3582 97.7003 75.9605 102.644 73.8323" fill="#6C63FF"/>
<path opacity="0.1" d="M113.683 52.2126H119.714C119.661 55.2629 119.05 58.259 117.713 61.026C116.6 63.3249 115.054 65.3349 113.228 67.0909V57.5347H113.683V52.2126Z" fill="#6C63FF"/>
<path opacity="0.1" d="M119.717 51.7478H113.683V39.1934H116.948C118.638 43.1516 119.712 47.4953 119.717 51.7478Z" fill="#6C63FF"/>
<path opacity="0.1" d="M75.0666 25.3347H71.4146V30.0791H75.0666V25.3347Z" fill="#6C63FF"/>
<path opacity="0.1" d="M75.0666 35.1689H71.4146V36.2613H75.0666V35.1689Z" fill="#6C63FF"/>
<path opacity="0.1" d="M75.0666 36.725H71.4146V39.9122H75.0666V36.725Z" fill="#6C63FF"/>
<path opacity="0.1" d="M75.0666 45.0031H71.4146V49.7475H75.0666V45.0031Z" fill="#6C63FF"/>
<path opacity="0.1" d="M75.0666 54.8372H71.4146V59.5817H75.0666V54.8372Z" fill="#6C63FF"/>
<path opacity="0.1" d="M75.0656 68.3125C75.1024 68.3125 75.1381 68.3125 75.1739 68.3191H75.0656V69.4213H71.4146V64.6714H75.0656V68.3125Z" fill="#6C63FF"/>
<path opacity="0.1" d="M75.0656 74.5034V78.1684C73.8449 78.0649 72.6279 77.9241 71.4146 77.746V74.5034H75.0656Z" fill="#6C63FF"/>
<path opacity="0.1" d="M56.8831 51.3992H41.2314V51.7478H56.8831V51.3992Z" fill="#6C63FF"/>
<path opacity="0.1" d="M56.8831 52.2115H41.2314V53.5472H56.8831V52.2115Z" fill="#6C63FF"/>
<path opacity="0.1" d="M56.8831 57.9256H41.2314V60.0736H56.8831V57.9256Z" fill="#6C63FF"/>
<path opacity="0.1" d="M56.8821 64.4521V66.6H44.6398C44.1082 66.1932 43.5831 65.7754 43.0646 65.3469C42.706 65.0504 42.3506 64.7463 41.9888 64.4521H56.8821Z" fill="#6C63FF"/>
<path opacity="0.1" d="M56.8821 70.9774V73.1232H55.5897C54.1372 72.4666 52.7133 71.7502 51.3179 70.9742L56.8821 70.9774Z" fill="#6C63FF"/>
<path opacity="0.1" d="M87.1334 38.1813H84.0522V41.2697H87.1334V38.1813Z" fill="#6C63FF"/>
<path opacity="0.1" d="M20.4207 23.7916H17.3396V26.88H20.4207V23.7916Z" fill="#6C63FF"/>
<path opacity="0.1" d="M20.4207 30.9653H17.3396V34.0537H20.4207V30.9653Z" fill="#6C63FF"/>
<path opacity="0.1" d="M20.4207 38.1389H17.3396V41.2273H20.4207V38.1389Z" fill="#6C63FF"/>
<path opacity="0.1" d="M20.4207 45.3115H17.3396V48.3998H20.4207V45.3115Z" fill="#6C63FF"/>
<path opacity="0.1" d="M20.4207 52.4851H17.3396V55.5735H20.4207V52.4851Z" fill="#6C63FF"/>
<path opacity="0.1" d="M20.4207 59.6588H17.3396V62.7471H20.4207V59.6588Z" fill="#6C63FF"/>
<path opacity="0.1" d="M98.8956 38.1813H95.8145V41.2697H98.8956V38.1813Z" fill="#6C63FF"/>
<path opacity="0.1" d="M87.1334 45.799H84.0522V48.8874H87.1334V45.799Z" fill="#6C63FF"/>
<path opacity="0.1" d="M98.8956 45.799H95.8145V48.8874H98.8956V45.799Z" fill="#6C63FF"/>
<path opacity="0.1" d="M87.1334 53.4158H84.0522V56.5042H87.1334V53.4158Z" fill="#6C63FF"/>
<path opacity="0.1" d="M98.8956 53.4158H95.8145V56.5042H98.8956V53.4158Z" fill="#6C63FF"/>
<path opacity="0.1" d="M87.1334 61.0335H84.0522V64.1219H87.1334V61.0335Z" fill="#6C63FF"/>
<path opacity="0.1" d="M98.8956 61.0335H95.8145V64.1219H98.8956V61.0335Z" fill="#6C63FF"/>
<path opacity="0.1" d="M87.1334 68.6513H84.0522V71.7397H87.1334V68.6513Z" fill="#6C63FF"/>
<path opacity="0.1" d="M98.8956 68.6513H95.8145V71.7397H98.8956V68.6513Z" fill="#6C63FF"/>
<path opacity="0.1" d="M84.0522 78.2597V76.2681H87.1323V77.9762L84.0522 78.2597Z" fill="#6C63FF"/>
<path opacity="0.1" d="M1.9502 32.4008V34.1677H12.4948V32.4008H1.9502ZM3.00108 34.0569H2.14087V32.5094H3.00758L3.00108 34.0569ZM4.05088 34.0569H3.18417V32.5094H4.05088V34.0569ZM5.09851 34.0569H4.2318V32.5094H5.09851V34.0569ZM6.14831 34.0569H5.28269V32.5094H6.14939L6.14831 34.0569ZM7.19703 34.0569H6.33032V32.5094H7.19703V34.0569ZM8.24683 34.0569H7.38012V32.5094H8.24683V34.0569ZM9.29663 34.0569H8.42992V32.5094H9.29663V34.0569ZM10.3453 34.0569H9.47863V32.5094H10.3453V34.0569ZM11.3941 34.0569H10.5274V32.5094H11.3941V34.0569ZM12.4428 34.0569H11.5761V32.5094H12.4428V34.0569Z" fill="#6C63FF"/>
<path opacity="0.1" d="M1.9502 37.5417V39.3085H12.4948V37.5417H1.9502ZM3.00108 39.1966H2.14087V37.6535H3.00758L3.00108 39.1966ZM4.05088 39.1966H3.18417V37.6535H4.05088V39.1966ZM5.09851 39.1966H4.2318V37.6535H5.09851V39.1966ZM6.14831 39.1966H5.28269V37.6535H6.14939L6.14831 39.1966ZM7.19703 39.1966H6.33032V37.6535H7.19703V39.1966ZM8.24683 39.1966H7.38012V37.6535H8.24683V39.1966ZM9.29663 39.1966H8.42992V37.6535H9.29663V39.1966ZM10.3453 39.1966H9.47863V37.6535H10.3453V39.1966ZM11.3941 39.1966H10.5274V37.6535H11.3941V39.1966ZM12.4428 39.1966H11.5761V37.6535H12.4428V39.1966Z" fill="#6C63FF"/>
<path opacity="0.1" d="M1.9502 42.6846V44.4547H12.4948V42.6846H1.9502ZM3.00108 44.3396H2.14087V42.7954H3.00758L3.00108 44.3396ZM4.05088 44.3396H3.18417V42.7954H4.05088V44.3396ZM5.09851 44.3396H4.2318V42.7954H5.09851V44.3396ZM6.14831 44.3396H5.28269V42.7954H6.14939L6.14831 44.3396ZM7.19703 44.3396H6.33032V42.7954H7.19703V44.3396ZM8.24683 44.3396H7.38012V42.7954H8.24683V44.3396ZM9.29663 44.3396H8.42992V42.7954H9.29663V44.3396ZM10.3453 44.3396H9.47863V42.7954H10.3453V44.3396ZM11.3941 44.3396H10.5274V42.7954H11.3941V44.3396ZM12.4428 44.3396H11.5761V42.7954H12.4428V44.3396Z" fill="#6C63FF"/>
<path opacity="0.1" d="M1.9502 47.8276V49.5922H12.4948V47.8276H1.9502ZM3.00108 49.4825H2.14087V47.9373H3.00758L3.00108 49.4825ZM4.05088 49.4825H3.18417V47.9373H4.05088V49.4825ZM5.09851 49.4825H4.2318V47.9373H5.09851V49.4825ZM6.14831 49.4825H5.28269V47.9373H6.14939L6.14831 49.4825ZM7.19703 49.4825H6.33032V47.9373H7.19703V49.4825ZM8.24683 49.4825H7.38012V47.9373H8.24683V49.4825ZM9.29663 49.4825H8.42992V47.9373H9.29663V49.4825ZM10.3453 49.4825H9.47863V47.9373H10.3453V49.4825ZM11.3941 49.4825H10.5274V47.9373H11.3941V49.4825ZM12.4428 49.4825H11.5761V47.9373H12.4428V49.4825Z" fill="#6C63FF"/>
<path opacity="0.1" d="M1.99561 52.9694C2.03786 53.1356 2.08553 53.3017 2.13536 53.4657V53.0802H3.00207V54.6244H2.53838C2.55246 54.6602 2.56655 54.6993 2.58063 54.733H12.4947V52.9694H1.99561ZM4.05404 54.6244H3.18733V53.0802H4.05404V54.6244ZM5.10167 54.6244H4.23496V53.0802H5.10167V54.6244ZM6.15147 54.6244H5.28259V53.0802H6.1493L6.15147 54.6244ZM7.20018 54.6244H6.33348V53.0802H7.20018V54.6244ZM8.24998 54.6244H7.38328V53.0802H8.24998V54.6244ZM9.29978 54.6244H8.43308V53.0802H9.29978V54.6244ZM10.3485 54.6244H9.48179V53.0802H10.3485V54.6244ZM11.3972 54.6244H10.5305V53.0802H11.3972V54.6244ZM12.4459 54.6244H11.5792V53.0802H12.4459V54.6244Z" fill="#6C63FF"/>
<path opacity="0.1" d="M4.44409 58.1124C4.47118 58.1471 4.49718 58.1862 4.52535 58.221H5.09846V58.9627C5.16021 59.0365 5.22088 59.1104 5.28371 59.1799V58.2166H6.15042V59.7663H5.79941C5.83407 59.8021 5.86766 59.8401 5.90774 59.8749H12.498V58.1124H4.44409ZM7.19697 59.7663H6.33026V58.2232H7.19697V59.7663ZM8.24677 59.7663H7.38006V58.2232H8.24677V59.7663ZM9.29657 59.7663H8.42986V58.2232H9.29657V59.7663ZM10.3453 59.7663H9.47858V58.2232H10.3453V59.7663ZM11.394 59.7663H10.5273V58.2232H11.394V59.7663ZM12.4427 59.7663H11.576V58.2232H12.4427V59.7663Z" fill="#6C63FF"/>
<path opacity="0.1" d="M10.2283 63.2543C10.3269 63.3107 10.4276 63.3629 10.5295 63.4193V63.365H11.3962V63.8537L11.5803 63.9395V63.365H12.447V64.3044C12.4637 64.3126 12.4811 64.3192 12.499 64.3239V63.2543H10.2283Z" fill="#6C63FF"/>
<path opacity="0.1" d="M68.1026 52.004C68.1232 52.0735 68.1405 52.143 68.16 52.2115C68.1427 52.143 68.1243 52.0735 68.1026 52.004ZM16.3027 19.9974V20.4611H21.1422V19.9974H16.3027ZM68.1026 52.004C68.1232 52.0735 68.1405 52.143 68.16 52.2115C68.1427 52.143 68.1243 52.0735 68.1026 52.004ZM68.1026 52.004C68.1232 52.0735 68.1405 52.143 68.16 52.2115C68.1427 52.143 68.1243 52.0735 68.1026 52.004Z" fill="#6C63FF"/>
<path d="M50.0091 41.2295C50.0091 41.2295 49.5822 41.1697 49.5822 40.5464C49.5822 39.9231 49.2767 38.759 49.2767 38.759C49.2767 38.7535 49.0124 36.7315 48.6473 36.4101C48.2822 36.0887 47.8131 34.2013 47.8131 34.2013C47.8131 34.2013 47.7329 33.1773 47.5693 32.9569C47.4057 32.7364 47.1847 32.1967 46.8586 31.4268C46.5325 30.6569 45.1729 30.1237 45.1729 30.1237C45.1729 30.1237 42.7147 28.6946 42.0181 28.2287C41.9547 28.1904 41.8956 28.1457 41.8415 28.0951C41.7201 27.9355 41.1914 27.9323 41.1914 27.9323C41.1362 27.5826 41.0831 27.1808 41.0658 26.817C41.0658 26.7779 41.0658 26.7388 41.0603 26.6997C41.8371 26.2395 42.4222 25.5138 42.7082 24.656C42.7212 24.6147 42.732 24.5713 42.7439 24.53C42.7905 24.5147 42.8333 24.4897 42.8697 24.4568C42.9061 24.4239 42.9352 24.3838 42.9552 24.3389C43.018 24.1988 43.0191 24.0349 43.0971 23.9046C43.1881 23.7503 43.3615 23.6678 43.498 23.5516C43.8425 23.2584 43.9313 22.7643 43.9151 22.3147C43.9042 21.951 43.8457 21.5839 43.8685 21.2223L43.875 21.1311C43.8815 21.0768 43.8891 21.0225 43.8988 20.9704C43.9519 20.7011 44.0678 20.447 44.1328 20.1798C44.1978 19.9127 44.2043 19.6119 44.0527 19.3817C43.8306 19.0439 43.368 18.9766 42.9617 18.9419C42.5012 18.9028 42.0896 18.9538 41.7949 18.5705C41.657 18.3701 41.5018 18.1823 41.3312 18.009C41.2705 17.9526 40.6812 17.592 40.6812 17.5682C40.1059 17.3011 39.4539 17.251 38.8448 17.427C38.5393 17.516 38.2511 17.6615 37.9413 17.7343C37.2728 17.8928 36.5036 17.7213 35.9359 18.1046C35.6196 18.3218 35.43 18.6671 35.2523 19.0038C35.1079 19.281 34.9613 19.5579 34.8125 19.8345C34.573 20.2895 34.3293 20.7521 34.2285 21.256C34.2073 21.3656 34.1943 21.4767 34.1895 21.5883V21.5937C34.1895 21.6339 34.1895 21.6741 34.1895 21.7142V21.7653C34.1895 21.8033 34.1895 21.8402 34.196 21.8739C34.2025 21.9075 34.2014 21.9184 34.2047 21.9412C34.2079 21.964 34.2134 22.015 34.2199 22.0498C34.2264 22.0845 34.2394 22.1453 34.2524 22.1931C34.2578 22.2138 34.2654 22.2333 34.2719 22.2529C34.2827 22.2898 34.2957 22.3256 34.3098 22.3614C34.3174 22.3799 34.3249 22.3995 34.3336 22.4179C34.3499 22.4559 34.3694 22.4928 34.3889 22.5265C34.3975 22.5417 34.404 22.5558 34.4127 22.5699C34.4429 22.6204 34.4762 22.669 34.5124 22.7155C34.7442 23.0054 35.0855 23.19 35.3379 23.4615C35.3379 23.4723 35.3379 23.4832 35.3379 23.493C35.3379 23.5234 35.3379 23.5527 35.3379 23.5831C35.3513 24.1886 35.5121 24.7816 35.8063 25.3106C36.1004 25.8395 36.5191 26.2885 37.0258 26.6183C37.0258 26.6596 37.0312 26.7019 37.0334 26.7432C37.0545 27.0655 37.0505 27.389 37.0215 27.7107C36.9774 27.6586 36.9221 27.6172 36.8599 27.5893C36.7976 27.5615 36.7299 27.5481 36.6618 27.55C36.6153 27.5477 36.5686 27.5518 36.5231 27.562L36.5134 27.5544V27.5641C36.275 27.6228 35.9814 27.8714 35.7008 28.5784C35.7008 28.5784 34.8471 29.5427 34.1971 29.5025C33.5471 29.4623 31.9014 30.5059 31.9014 30.5059C31.9014 30.5059 30.2958 31.5506 29.9513 32.6148C29.7588 33.2182 29.5279 33.8088 29.2601 34.3827L27.2754 38.4821L26.9092 41.7344C26.9092 41.7344 27.1118 43.1809 27.0717 43.4013C27.0316 43.6218 27.9048 45.6101 27.9048 45.6101C27.9048 45.6101 30.7899 50.6912 31.9686 50.9518L32.0531 50.8921C32.1035 50.9185 32.157 50.9385 32.2123 50.9518L32.455 50.7802C32.4696 50.9714 32.4634 51.1637 32.4366 51.3536C32.2741 51.8553 32.4973 55.1293 32.7811 55.7711C33.065 56.4129 32.9642 64.8278 32.9642 64.8278L32.9241 65.5706C32.9241 65.5706 32.9241 65.5944 32.9339 65.6357L32.9241 65.8116L32.9534 65.8268C32.9838 66.0624 32.9739 66.3015 32.9241 66.5338C32.8223 66.8596 32.7811 67.7804 32.7811 67.7804C32.7811 67.7804 31.9697 72.9799 32.3543 74.0245C32.7389 75.0692 33.0661 76.2137 33.0661 76.2137C33.0661 76.2137 33.4723 77.5169 33.0856 77.7395C32.6988 77.9621 31.5992 78.3357 31.8256 78.8786C32.0314 79.3803 32.8125 80.7247 32.9285 80.9212L32.9187 81.0244L32.7595 82.7543C32.7852 82.9827 32.847 83.2056 32.9425 83.4145C33.117 83.7914 33.4561 84.1823 34.1007 84.1399C34.209 84.1323 34.3347 84.1193 34.456 84.103C35.6358 83.9445 37.0887 83.4167 37.0887 83.4167C37.0132 83.3687 36.9441 83.3114 36.8828 83.2462C36.8248 83.1899 36.7789 83.1224 36.7478 83.0477C36.7167 82.973 36.7011 82.8928 36.7019 82.8118C36.7192 82.4969 36.1309 80.9962 35.9847 80.627C35.9619 80.5737 35.95 80.5433 35.95 80.5433C35.95 80.5433 37.2913 79.1382 37.0681 77.8926C37.0681 77.8926 35.5838 77.0239 36.0724 76.5471C36.5611 76.0704 37.4343 74.701 37.4343 74.701C37.4343 74.701 37.4743 69.5809 37.4343 68.8164C37.3924 68.2858 37.4176 67.752 37.509 67.2277C37.5253 67.1484 37.5448 67.0713 37.5654 66.9953C38.2411 67.0964 38.9232 67.1483 39.6064 67.1506C39.8556 67.1506 40.1091 67.1506 40.3648 67.1354C40.3648 67.2078 40.3681 67.286 40.3746 67.3699C40.4309 68.6383 40.536 70.8623 40.6216 71.6887C40.7429 72.8734 41.4135 76.0661 41.4135 76.0661C41.4135 76.0661 40.1341 76.8892 41.6367 78.9177C41.6367 78.9177 41.6367 79.6529 41.537 79.7593C41.4306 80.1072 41.3449 80.4611 41.2803 80.8192C41.2174 81.2014 41.1914 81.588 41.2933 81.7889C41.537 82.2689 42.9996 82.2298 42.9996 82.2298L43.0354 82.2233C43.3115 82.1947 43.5905 82.2213 43.8563 82.3017C44.122 82.382 44.3692 82.5144 44.5835 82.6913C45.1393 83.1387 47.2486 82.9422 48.3905 82.7999C48.838 82.7434 49.137 82.6913 49.137 82.6913C49.1515 82.6405 49.1566 82.5876 49.1521 82.5349C49.1402 82.2537 48.9203 81.6369 47.4296 81.0863C47.4296 81.0863 46.0277 80.1415 46.0472 79.3184H46.0179H45.8554C45.9735 79.3119 46.0493 79.3184 46.0493 79.3184C46.0493 79.3184 45.5001 77.3094 45.7243 77.1466C45.9486 76.9837 45.2769 74.7575 45.2769 74.7575C45.2769 74.7575 44.8923 71.0219 44.8717 70.7602C44.8726 70.5356 44.9065 70.3124 44.9724 70.0978L44.8717 68.0497C44.8717 68.0497 44.8522 67.3689 44.8717 67.1473C44.8684 66.955 44.8528 66.7632 44.8251 66.5729C44.8154 66.4968 44.8056 66.4176 44.7948 66.3394C45.3202 66.2058 45.6615 66.082 45.6615 66.082L45.6008 58.9529C46.0472 58.0842 46.1295 56.1784 46.1273 54.8264C46.1273 53.9576 46.0883 53.3148 46.0883 53.3148L46.6983 52.3168C46.6983 52.3168 46.8391 51.1223 46.6159 50.8606C46.5174 50.7422 46.5618 50.6195 46.643 50.5185C46.6852 50.485 46.7298 50.4545 46.7763 50.4273C46.7763 50.4273 46.7698 50.4175 46.7622 50.4034C46.8048 50.3677 46.8501 50.3354 46.8976 50.3067C46.8976 50.3067 46.6809 49.9701 46.8749 49.8278C47.0569 49.9516 47.2194 50.045 47.3429 50.121C47.3342 50.2003 47.3256 50.2459 47.3256 50.2459L47.3776 50.1373C47.4967 50.2047 47.5693 50.2459 47.5693 50.2459C47.5693 50.2459 48.5249 48.3379 48.5043 48.0567C48.4837 47.7754 49.1543 46.5907 49.1543 46.5907C49.1543 46.5907 49.2356 45.9685 49.6017 45.7078C49.9679 45.4472 49.8856 43.5588 49.8856 43.5588C49.8856 43.5588 49.9874 42.5749 50.2312 42.1731C50.475 41.7713 50.0091 41.2295 50.0091 41.2295ZM31.7259 40.3922L31.7443 40.8472C31.636 40.6724 31.558 40.5464 31.558 40.5464L31.7259 40.3922Z" fill="url(#paint0_linear_42_466)"/>
<path d="M47.6213 49.4217L47.3873 50.4208C47.3873 50.4208 45.5131 49.4619 45.1751 48.2435C44.837 47.0251 45.7406 46.5625 45.7406 46.5625L47.487 47.3042L47.6213 49.4217Z" fill="white"/>
<path opacity="0.1" d="M47.6213 49.4217L47.3873 50.4208C47.3873 50.4208 45.5131 49.4619 45.1751 48.2435C44.837 47.0251 45.7406 46.5625 45.7406 46.5625L47.487 47.3042L47.6213 49.4217Z" fill="black"/>
<path d="M37.1027 83.4232C37.1027 83.4232 35.3693 84.0618 34.1775 84.1421C33.5448 84.1845 33.2122 83.7957 33.0411 83.4211C32.9476 83.2128 32.8872 82.9911 32.8623 82.7641L33.0172 81.0429L33.0996 80.1264L35.6314 79.4672L35.99 80.5662L36.0236 80.6498C36.1677 81.0168 36.7452 82.51 36.7278 82.8216C36.7271 82.9014 36.7425 82.9806 36.773 83.0543C36.8035 83.128 36.8486 83.1947 36.9055 83.2506C36.9636 83.3163 37.0299 83.3743 37.1027 83.4232Z" fill="white"/>
<path d="M48.943 82.548C48.9473 82.6002 48.9422 82.6528 48.9278 82.7032C48.9278 82.7032 45.2205 83.3233 44.4621 82.7032C44.2483 82.5221 43.9991 82.3878 43.7304 82.3088C43.4618 82.2299 43.1796 82.2082 42.9021 82.245C42.9021 82.245 41.4677 82.2841 41.2282 81.8106C41.1286 81.6119 41.1546 81.2264 41.2163 80.8463C41.2793 80.4902 41.3632 80.1381 41.4677 79.7919L41.5251 79.7463L41.8663 79.4715L45.8619 79.3531H45.8922C45.8727 80.1719 47.2486 81.1113 47.2486 81.1113C48.7101 81.6542 48.9257 82.2678 48.943 82.548Z" fill="white"/>
<path opacity="0.1" d="M48.9429 82.548C48.9467 82.6003 48.9412 82.6529 48.9267 82.7032C48.9267 82.7032 45.2204 83.3233 44.462 82.7032C44.2484 82.5222 43.9993 82.388 43.7308 82.3091C43.4624 82.2302 43.1804 82.2083 42.9031 82.245C42.9031 82.245 41.4676 82.2841 41.2292 81.8106C41.1296 81.6108 41.1545 81.2264 41.2162 80.8463C41.7688 80.9017 42.6409 81.0396 42.9832 81.3686C43.5011 81.8693 44.3786 82.3688 44.9171 82.4079C45.3385 82.435 47.8595 82.5154 48.9429 82.548Z" fill="black"/>
<path opacity="0.1" d="M37.1028 83.4232C37.1028 83.4232 35.3693 84.0617 34.1776 84.1421C33.5449 84.1844 33.2123 83.7957 33.0422 83.42C33.4832 83.5687 34.0953 83.7251 34.4171 83.5818C34.7984 83.4124 36.1505 83.3027 36.9088 83.256C36.9666 83.3193 37.0317 83.3755 37.1028 83.4232Z" fill="black"/>
<path d="M39.6746 31.9665C38.2445 31.4094 36.4049 29.5688 36.8643 28.7087C36.9663 28.4917 37.0269 28.2574 37.043 28.0181C37.0726 27.6931 37.0769 27.3664 37.056 27.0407C37.0238 26.5074 36.9598 25.9765 36.8643 25.4509C36.8643 25.4509 41.3289 25.5519 41.0689 26.2111C40.9931 26.4044 40.9812 26.7399 41.0017 27.1157C41.0223 27.4914 41.0765 27.916 41.1328 28.2754C41.2108 28.7684 41.2888 29.1442 41.2888 29.1442C41.2888 29.1442 41.0158 29.5275 40.8555 29.5481C40.6951 29.5688 41.7265 32.7603 39.6746 31.9665Z" fill="#CF6F80"/>
<path opacity="0.1" d="M36.0203 80.6498L35.9867 80.6867C34.652 79.0687 33.0378 81.0852 33.0378 81.0852L33.0139 81.0429L33.0963 80.1264L35.6281 79.4672L35.9867 80.5662L36.0203 80.6498Z" fill="black"/>
<path opacity="0.1" d="M45.8933 79.4672C45.8933 79.4672 44.9183 79.4465 44.3983 79.907C43.8782 80.3674 41.3648 80.0069 41.4731 79.907C41.5052 79.8575 41.5246 79.8008 41.5295 79.7419L41.8707 79.4672L45.8663 79.3488C45.8814 79.4216 45.8933 79.4672 45.8933 79.4672Z" fill="black"/>
<path d="M37.6813 66.7607C37.6087 66.9407 37.5535 67.1273 37.5166 67.3178C37.4263 67.8397 37.4012 68.3708 37.4419 68.8989C37.482 69.6591 37.4419 74.7532 37.4419 74.7532C37.4419 74.7532 36.5849 76.1117 36.1072 76.5906C35.6294 77.0695 37.0822 77.9295 37.0822 77.9295C37.2989 79.1675 35.9858 80.5662 35.9858 80.5662C34.6511 78.9481 33.0368 80.9658 33.0368 80.9658C33.0368 80.9658 32.1593 79.4455 31.9405 78.9025C31.7216 78.3595 32.7974 77.9838 33.1755 77.7634C33.5536 77.5429 33.1571 76.2431 33.1571 76.2431C33.1571 76.2431 32.8375 75.1039 32.4583 74.0647C32.0791 73.0255 32.8765 67.8521 32.8765 67.8521C32.8765 67.8521 32.9177 66.9334 33.0163 66.6131C33.066 66.3819 33.0759 66.1439 33.0455 65.9094C33.039 65.8301 33.0314 65.7639 33.026 65.7193C33.0206 65.6748 33.0163 65.6542 33.0163 65.6542L33.0314 65.6281L33.5731 64.616C33.5731 64.616 37.9413 66.1233 37.6813 66.7607Z" fill="#6C63FF"/>
<path d="M45.8932 79.3477C45.8932 79.3477 44.9181 79.3271 44.3981 79.7821C43.8781 80.2371 41.3646 79.882 41.473 79.7821C41.5813 79.6822 41.5726 78.9427 41.5726 78.9427C40.0982 76.925 41.356 76.1062 41.356 76.1062C41.356 76.1062 40.6973 72.9299 40.5781 71.7517C40.4947 70.9285 40.3918 68.7165 40.3365 67.4536C40.3127 66.9106 40.2986 66.537 40.2986 66.537L41.5033 66.2938L41.6582 66.2623L44.5639 65.6781C44.5639 65.6781 44.644 66.221 44.6982 66.6652C44.7252 66.8548 44.7404 67.0459 44.7437 67.2375C44.7242 67.4546 44.7437 68.1344 44.7437 68.1344L44.8423 70.1727C44.7779 70.3865 44.7447 70.6086 44.7437 70.8319C44.7632 71.0914 45.1413 74.8075 45.1413 74.8075C45.1413 74.8075 45.7989 77.0249 45.5747 77.1846C45.3504 77.3442 45.8932 79.3477 45.8932 79.3477Z" fill="#6C63FF"/>
<path opacity="0.1" d="M41.0689 26.2111C40.993 26.4044 40.9811 26.7399 41.0017 27.1157C40.4037 27.4766 39.7162 27.6612 39.0183 27.6481C38.3203 27.635 37.6402 27.4249 37.056 27.0418C37.0239 26.5082 36.9598 25.9769 36.8643 25.4509C36.8643 25.4509 41.3289 25.5497 41.0689 26.2111Z" fill="black"/>
<path d="M42.7947 23.8112C42.7955 24.2025 42.7341 24.5914 42.6126 24.9633C42.3412 25.7966 41.7846 26.5069 41.0413 26.9687C40.2979 27.4304 39.4156 27.6139 38.5503 27.4867C37.685 27.3595 36.8925 26.9297 36.3127 26.2734C35.733 25.6171 35.4034 24.7765 35.3821 23.9002C35.3821 23.8698 35.3821 23.8416 35.3821 23.8112C35.3737 23.3179 35.4634 22.8279 35.6459 22.3697C35.8284 21.9115 36.1001 21.4944 36.4451 21.1425C36.7902 20.7907 37.2017 20.5113 37.6556 20.3206C38.1095 20.1298 38.5967 20.0316 39.0889 20.0316C39.5811 20.0316 40.0684 20.1298 40.5223 20.3206C40.9762 20.5113 41.3877 20.7907 41.7327 21.1425C42.0778 21.4944 42.3495 21.9115 42.532 22.3697C42.7145 22.8279 42.8041 23.3179 42.7957 23.8112H42.7947Z" fill="#CF6F80"/>
<path opacity="0.1" d="M39.6746 31.9665C38.2445 31.4094 36.4049 29.5688 36.8643 28.7087C36.9663 28.4917 37.0269 28.2574 37.043 28.0181L39.0007 29.6307L40.2119 30.6265L41.1328 28.2765C41.2108 28.7695 41.2888 29.1453 41.2888 29.1453C41.2888 29.1453 41.0158 29.5286 40.8555 29.5492C40.6951 29.5699 41.7265 32.7603 39.6746 31.9665Z" fill="black"/>
<path d="M44.7373 39.0934L43.1025 66.6217L40.9704 66.7618L35.4495 50.7998L36.3552 31.8492L36.5458 27.8454L39.0008 29.8663L40.2131 30.8621L41.1611 28.4437L42.9237 29.9836L44.7373 39.0934Z" fill="#6C63FF"/>
<path opacity="0.1" d="M37.6813 66.7607C37.6087 66.9407 37.5535 67.1273 37.5166 67.3178C35.9652 67.0777 34.4585 66.6059 33.0466 65.9181L33.0173 65.9029L33.0271 65.728L33.0325 65.6368L33.5742 64.6247C33.5742 64.6247 37.9413 66.1233 37.6813 66.7607Z" fill="black"/>
<path opacity="0.1" d="M41.5284 67.3222C41.1318 67.3898 40.7318 67.4355 40.3302 67.459C40.3063 66.916 40.2922 66.5425 40.2922 66.5425L41.497 66.2992L41.5284 67.3222Z" fill="black"/>
<path opacity="0.1" d="M44.6918 66.6706C43.9215 66.8715 42.732 67.0974 41.667 66.9562L41.6519 66.2677L44.5575 65.6835C44.5575 65.6835 44.6377 66.221 44.6918 66.6706Z" fill="black"/>
<path opacity="0.1" d="M41.6475 67.0822C37.2056 67.8423 33.1375 65.6629 33.1375 65.6629L33.1765 64.9244C33.1765 64.9244 33.2773 56.553 32.9978 55.9112C32.7183 55.2694 32.5005 52.0149 32.6587 51.5154C32.8168 51.0159 32.0812 43.5251 32.0812 43.5251L31.962 40.4845L27.6003 38.7134L29.5504 34.639C29.8138 34.0677 30.0404 33.4801 30.2286 32.8798C30.5677 31.8221 32.1419 30.7828 32.1419 30.7828C32.1419 30.7828 33.7561 29.7447 34.3942 29.7838C35.0324 29.8229 35.8687 28.8651 35.8687 28.8651C36.4863 27.2872 37.0453 28.0018 37.0453 28.0018C37.0453 28.0767 37.0453 28.0018 37.015 28.2352C36.7983 29.9673 40.5186 35.4404 40.5717 35.537L40.926 44.1875L41.2846 55.1348L41.6475 67.0822Z" fill="black"/>
<path d="M41.5282 67.0822C37.0863 67.8423 33.0171 65.6629 33.0171 65.6629L33.0572 64.9244C33.0572 64.9244 33.158 56.553 32.8774 55.9112C32.5968 55.2694 32.3801 52.0149 32.5394 51.5154C32.6986 51.0159 31.9619 43.5251 31.9619 43.5251L31.8417 40.4845L27.4778 38.7069L29.4279 34.6325C29.6907 34.061 29.9172 33.4734 30.1061 32.8733C30.4441 31.8156 32.0193 30.7763 32.0193 30.7763C32.0193 30.7763 33.6336 29.7382 34.2706 29.7773C34.9076 29.8164 35.7451 28.8586 35.7451 28.8586C36.3637 27.2807 37.0452 27.9953 37.0452 27.9953C37.0452 28.0702 36.9801 28.1039 37.0148 28.2287C37.4915 29.9087 40.3993 35.4339 40.4524 35.5305L40.811 44.181L41.1696 55.1283L41.5282 67.0822Z" fill="white"/>
<path opacity="0.1" d="M40.3312 35.777C39.8534 35.5772 37.3226 32.681 37.3226 32.681V32.0219C37.2306 31.8047 36.6834 31.9372 36.2393 32.0892L36.4299 28.0854L36.6466 28.2657C37.1211 29.9445 40.276 35.6804 40.3312 35.777Z" fill="black"/>
<path d="M40.4514 35.537C39.9726 35.3372 37.4418 32.4411 37.4418 32.4411V31.7819C37.3497 31.5647 36.8026 31.6972 36.3584 31.8492L36.5502 27.8454L36.7668 28.0257C37.2424 29.7045 40.3983 35.4415 40.4514 35.537Z" fill="white"/>
<path opacity="0.1" d="M33.1376 49.981C33.1971 49.981 36.2263 49.6617 36.2263 49.6617C36.2263 49.6617 38.0605 53.2768 37.9402 54.1564C37.8199 55.036 37.6022 55.8146 36.8644 55.6767C36.1266 55.5388 32.8938 55.7853 32.8938 55.7853L33.1376 49.981Z" fill="black"/>
<path d="M33.0172 49.741C33.0768 49.741 36.1059 49.4217 36.1059 49.4217C36.1059 49.4217 37.939 53.0378 37.8198 53.9164C37.7007 54.7949 37.4807 55.5746 36.744 55.4367C36.0073 55.2987 32.7734 55.5452 32.7734 55.5452L33.0172 49.741Z" fill="white"/>
<path d="M35.2998 48.0437C35.2998 48.0437 38.0798 49.5412 38.1394 49.9983C38.1989 50.4555 36.7245 49.7985 36.4059 49.7193C36.1963 49.6686 35.9829 49.6352 35.7678 49.6194L33.6433 49.6769L35.2998 48.0437Z" fill="#CF6F80"/>
<path opacity="0.1" d="M39.5555 35.9638C39.717 35.9638 39.848 35.8325 39.848 35.6706C39.848 35.5087 39.717 35.3774 39.5555 35.3774C39.3939 35.3774 39.2629 35.5087 39.2629 35.6706C39.2629 35.8325 39.3939 35.9638 39.5555 35.9638Z" fill="black"/>
<path d="M39.5555 35.8443C39.717 35.8443 39.848 35.7131 39.848 35.5511C39.848 35.3892 39.717 35.2579 39.5555 35.2579C39.3939 35.2579 39.2629 35.3892 39.2629 35.5511C39.2629 35.7131 39.3939 35.8443 39.5555 35.8443Z" fill="#3F3D56"/>
<path opacity="0.1" d="M40.0938 48.6561C40.2553 48.6561 40.3863 48.5249 40.3863 48.3629C40.3863 48.201 40.2553 48.0697 40.0938 48.0697C39.9322 48.0697 39.8013 48.201 39.8013 48.3629C39.8013 48.5249 39.9322 48.6561 40.0938 48.6561Z" fill="black"/>
<path d="M40.0938 48.5356C40.2553 48.5356 40.3863 48.4043 40.3863 48.2424C40.3863 48.0805 40.2553 47.9492 40.0938 47.9492C39.9322 47.9492 39.8013 48.0805 39.8013 48.2424C39.8013 48.4043 39.9322 48.5356 40.0938 48.5356Z" fill="#3F3D56"/>
<path opacity="0.1" d="M39.847 42.31C40.0085 42.31 40.1395 42.1787 40.1395 42.0168C40.1395 41.8548 40.0085 41.7236 39.847 41.7236C39.6854 41.7236 39.5544 41.8548 39.5544 42.0168C39.5544 42.1787 39.6854 42.31 39.847 42.31Z" fill="black"/>
<path d="M39.847 42.1905C40.0085 42.1905 40.1395 42.0592 40.1395 41.8973C40.1395 41.7354 40.0085 41.6041 39.847 41.6041C39.6854 41.6041 39.5544 41.7354 39.5544 41.8973C39.5544 42.0592 39.6854 42.1905 39.847 42.1905Z" fill="#3F3D56"/>
<path d="M46.5899 49.5585C46.5899 49.5585 46.7893 49.8583 46.5899 49.9983C46.3906 50.1384 46.6094 50.4772 46.6094 50.4772C46.6094 50.4772 46.1122 50.7694 46.331 51.0322C46.5498 51.2949 46.4112 52.4819 46.4112 52.4819L45.8131 53.4744C45.8131 53.4744 45.8489 54.114 45.8511 54.9784C45.8511 56.3271 45.772 58.2232 45.3343 59.0876L45.395 66.1798C45.395 66.1798 43.3008 66.9464 41.5479 66.713L41.2878 55.3324C41.2878 55.3324 41.667 48.8788 41.8068 47.6408C41.8886 46.9981 41.9219 46.3501 41.9065 45.7024C41.9065 45.7024 41.8469 43.7651 41.6464 42.866C41.6464 42.866 41.4298 38.9707 41.4081 37.8924C41.3984 37.3766 41.4254 35.8715 41.4558 34.4402C41.4894 32.8754 41.5273 31.3996 41.5273 31.3996L41.1318 28.2635C41.1318 28.2635 41.5273 28.2233 41.6464 28.3829C41.6998 28.4329 41.7579 28.4776 41.8198 28.5165C42.5023 28.9791 44.9139 30.4017 44.9139 30.4017C44.9139 30.4017 46.2487 30.9338 46.5683 31.6961C46.8879 32.4584 47.11 32.9992 47.2649 33.2164C47.4198 33.4336 47.5043 34.4544 47.5043 34.4544C47.5043 34.4544 47.9637 36.333 48.3223 36.6512C48.6809 36.9694 48.943 38.9935 48.943 38.9935L45.7741 41.4912C45.7741 41.4912 45.4957 45.6459 45.4361 45.8067C45.3765 45.9674 46.5899 49.5585 46.5899 49.5585Z" fill="white"/>
<path d="M46.7102 49.5585C46.7102 49.5585 46.9085 49.8582 46.7102 49.9983C46.5119 50.1384 46.7286 50.4772 46.7286 50.4772C46.7286 50.4772 46.2346 50.7726 46.4513 51.0354C46.6679 51.2982 46.5314 52.4851 46.5314 52.4851L45.9334 53.4776C45.9334 53.4776 45.9692 54.1173 45.9724 54.9817C45.9724 56.3304 45.8933 58.2264 45.4556 59.0908L45.5152 66.183C45.5152 66.183 43.4178 66.9497 41.667 66.7162L41.4081 55.3357C41.4081 55.3357 41.7873 48.882 41.9271 47.644C42.0089 47.0013 42.0419 46.3533 42.0256 45.7056C42.0256 45.7056 41.9661 43.7683 41.7667 42.8692C41.7667 42.8692 41.55 38.974 41.5273 37.8956C41.5175 37.3798 41.5457 35.8747 41.575 34.4435C41.6085 32.8787 41.6465 31.4029 41.6465 31.4029L41.1243 28.2244C41.1243 28.2244 41.6465 28.2244 41.7667 28.3862C41.8196 28.4367 41.8777 28.4815 41.9401 28.5197C42.6226 28.9823 45.0353 30.4049 45.0353 30.4049C45.0353 30.4049 46.3689 30.937 46.6885 31.6993C47.0081 32.4617 47.2302 33.0025 47.3862 33.2196C47.5422 33.4368 47.6246 34.4576 47.6246 34.4576C47.6246 34.4576 48.0839 36.3363 48.4425 36.6544C48.8011 36.9726 49.0601 38.9924 49.0601 38.9924L45.8912 41.4901C45.8912 41.4901 45.6127 45.6448 45.5521 45.8056C45.4914 45.9663 46.7102 49.5585 46.7102 49.5585Z" fill="white"/>
<path opacity="0.1" d="M42.915 32.3248L43.201 33.161L41.6951 34.6813C41.7287 33.1176 41.7666 31.6407 41.7666 31.6407L41.2444 28.4622C41.2444 28.4622 41.7666 28.4622 41.8868 28.624C41.9396 28.6744 41.9977 28.7189 42.0602 28.7565L43.3407 32.4595L42.915 32.3248Z" fill="black"/>
<path d="M42.7948 32.0848L43.0819 32.921L41.576 34.4413C41.6096 32.8765 41.6475 31.4007 41.6475 31.4007L41.1243 28.2222C41.1243 28.2222 41.6475 28.2222 41.7667 28.384C41.8199 28.4343 41.8779 28.479 41.9401 28.5176L43.2217 32.2195L42.7948 32.0848Z" fill="white"/>
<path opacity="0.1" d="M42.7947 23.8112C42.7955 24.2025 42.7341 24.5914 42.6126 24.9633C42.5922 24.9665 42.5713 24.9656 42.5512 24.9605C42.5311 24.9555 42.5122 24.9465 42.4956 24.934C42.4675 23.9567 41.9875 23.0391 41.3971 22.2583C41.2313 22.0225 41.0303 21.8138 40.8012 21.6393C40.5696 21.4649 40.2815 21.3832 39.993 21.4102C39.668 21.4547 39.3809 21.6762 39.0526 21.7045C38.6193 21.7403 38.2314 21.4395 37.8013 21.4243C37.6265 21.4259 37.454 21.465 37.2954 21.5388C37.1368 21.6125 36.9957 21.7194 36.8815 21.8521C36.6556 22.1201 36.4877 22.4322 36.3886 22.7687C36.2183 23.2789 36.1255 23.8119 36.1134 24.3498C36.108 24.6538 36.0788 25.035 35.7971 25.1458C35.8183 24.9221 35.7929 24.6966 35.7226 24.4833C35.6523 24.27 35.5386 24.0737 35.3886 23.9067L35.3821 23.9002C35.3821 23.8698 35.3821 23.8416 35.3821 23.8112C35.3737 23.3179 35.4634 22.8279 35.6459 22.3697C35.8284 21.9115 36.1001 21.4944 36.4451 21.1425C36.7902 20.7907 37.2017 20.5113 37.6556 20.3206C38.1095 20.1298 38.5967 20.0316 39.0889 20.0316C39.5811 20.0316 40.0684 20.1298 40.5223 20.3206C40.9762 20.5113 41.3877 20.7907 41.7327 21.1425C42.0778 21.4944 42.3495 21.9115 42.532 22.3697C42.7145 22.8279 42.8041 23.3179 42.7957 23.8112H42.7947Z" fill="black"/>
<path d="M40.6237 17.9113C40.0607 17.6459 39.4204 17.5957 38.8231 17.7701C38.523 17.8592 38.2403 18.0036 37.9358 18.0764C37.2858 18.2338 36.5274 18.0633 35.9695 18.4445C35.6596 18.6617 35.4733 19.0048 35.3 19.3382L34.8666 20.1657C34.6304 20.6185 34.3921 21.079 34.2935 21.5774C34.1949 22.0759 34.2545 22.634 34.5698 23.0347C34.7994 23.3268 35.1385 23.5104 35.3877 23.7851C35.537 23.9522 35.6502 24.1484 35.7203 24.3615C35.7904 24.5745 35.8159 24.7997 35.7951 25.0231C36.0778 24.9145 36.1049 24.5322 36.1114 24.2282C36.1235 23.6903 36.2163 23.1573 36.3866 22.647C36.4855 22.3105 36.6534 21.9983 36.8795 21.7305C36.9938 21.5979 37.1349 21.4911 37.2935 21.4173C37.4521 21.3436 37.6245 21.3045 37.7993 21.3027C38.2327 21.3179 38.6216 21.6176 39.0506 21.5818C39.3757 21.5546 39.6638 21.332 39.991 21.2886C40.2795 21.2612 40.5678 21.3429 40.7992 21.5177C41.0283 21.6919 41.2289 21.9007 41.394 22.1367C41.9855 22.9174 42.4655 23.8329 42.4936 24.8124C42.6161 24.9025 42.7926 24.7852 42.8533 24.6462C42.914 24.5072 42.9161 24.3444 42.9931 24.2119C43.0819 24.0588 43.252 23.9773 43.3853 23.8622C43.7233 23.5701 43.8078 23.0782 43.7948 22.6318C43.7818 22.1855 43.6951 21.7327 43.7796 21.294C43.8305 21.0247 43.9454 20.7727 44.0082 20.5067C44.071 20.2406 44.0786 19.942 43.9302 19.7129C43.7135 19.3762 43.2574 19.31 42.8598 19.2785C42.408 19.2394 42.0039 19.2894 41.7158 18.9082C41.5805 18.7093 41.4282 18.5225 41.2607 18.35C41.2033 18.2936 40.6237 17.9352 40.6237 17.9113Z" fill="#512E4E"/>
<path opacity="0.1" d="M28.8484 40.8114L27.7163 38.7134L27.3577 41.9505C27.3577 41.9505 27.557 43.3883 27.5169 43.6087C27.4768 43.8292 28.3338 45.8056 28.3338 45.8056C28.3338 45.8056 31.1647 50.8595 32.3207 51.1201L36.2262 48.3228L35.1905 47.0044C35.1905 47.0044 34.8319 46.8644 34.742 47.0044C34.742 47.0044 32.819 43.688 32.6197 43.448C32.4203 43.208 32.4593 42.7291 32.4593 42.7291C32.4593 42.7291 32.1603 42.4099 32.26 42.1102C32.3597 41.8104 31.6825 40.7712 31.6825 40.7712L32.3001 40.1924L28.8484 40.8114Z" fill="black"/>
<path d="M27.7758 38.4745L27.4768 38.7134L27.1182 41.9505C27.1182 41.9505 27.3175 43.3883 27.2774 43.6087C27.2373 43.8292 28.0954 45.8056 28.0954 45.8056C28.0954 45.8056 30.9252 50.8595 32.0811 51.1201L35.9878 48.3227L34.951 47.0044C34.951 47.0044 34.5924 46.8643 34.5025 47.0044C34.5025 47.0044 32.5795 43.688 32.3802 43.448C32.1808 43.208 32.2209 42.7291 32.2209 42.7291C32.2209 42.7291 31.9219 42.4099 32.0216 42.1101C32.1212 41.8104 31.443 40.7712 31.443 40.7712L32.0606 40.1924L27.7758 38.4745Z" fill="white"/>
<path opacity="0.1" d="M46.331 51.1559C46.5477 51.4198 46.4112 52.6046 46.4112 52.6046L45.8132 53.5971C45.8132 53.5971 45.8489 54.2378 45.8511 55.1011L44.8457 55.416C44.7548 55.4445 44.6585 55.4507 44.5648 55.4343C44.471 55.4178 44.3825 55.3791 44.3067 55.3214C44.2309 55.2637 44.17 55.1887 44.129 55.1025C44.088 55.0164 44.0681 54.9217 44.0711 54.8264L44.2444 49.2219L46.59 50.121C46.3906 50.26 46.6095 50.601 46.6095 50.601C46.6095 50.601 46.1122 50.8921 46.331 51.1559Z" fill="black"/>
<path d="M46.4512 51.0354C46.6679 51.2993 46.5314 52.4851 46.5314 52.4851L45.9334 53.4777C45.9334 53.4777 45.9691 54.1173 45.9724 54.9817L44.9486 55.302C44.8596 55.3297 44.7653 55.3357 44.6735 55.3195C44.5817 55.3034 44.4952 55.2654 44.421 55.2089C44.3468 55.1524 44.2871 55.0789 44.247 54.9946C44.2069 54.9103 44.1874 54.8177 44.1902 54.7243L44.3646 49.1024L46.7112 50.0016C46.5108 50.1406 46.7297 50.4805 46.7297 50.4805C46.7297 50.4805 46.2346 50.7726 46.4512 51.0354Z" fill="white"/>
<path d="M47.228 48.364C47.228 48.364 47.0687 49.3837 46.67 49.4434C46.2714 49.5031 46.0926 51.0929 45.695 51.0365C45.2974 50.98 45.5607 49.5585 45.5747 49.2827C45.5888 49.0069 45.1414 47.8645 45.4762 47.6049C45.8109 47.3454 46.8705 47.6049 46.8705 47.6049L47.228 48.364Z" fill="#CF6F80"/>
<path opacity="0.1" d="M48.0764 40.5117L48.8282 38.9914C48.8282 38.9914 49.1273 40.15 49.1273 40.769C49.1273 41.388 49.5454 41.4488 49.5454 41.4488C49.5454 41.4488 50.0037 41.9918 49.7621 42.3871C49.5205 42.7823 49.423 43.7662 49.423 43.7662C49.423 43.7662 49.5021 45.6438 49.1435 45.9033C48.7849 46.1628 48.7102 46.7829 48.7102 46.7829C48.7102 46.7829 48.0515 47.9611 48.072 48.2413C48.0926 48.5215 47.1555 50.4186 47.1555 50.4186C47.1555 50.4186 47.6138 48.061 44.9432 47.0424C44.9432 47.0424 44.9226 46.2421 45.122 46.0228C45.3213 45.8034 45.6323 45.7035 45.4373 44.5948C45.2422 43.486 45.3809 42.1612 45.3809 41.8951C45.3809 41.6291 45.9789 39.9698 45.9789 39.9698L48.0764 40.5117Z" fill="black"/>
<path d="M48.4012 38.7742L49.0577 38.9914C49.0577 38.9914 49.3578 40.15 49.3578 40.769C49.3578 41.388 49.776 41.4488 49.776 41.4488C49.776 41.4488 50.2343 41.9918 49.9927 42.3871C49.7511 42.7823 49.6547 43.7662 49.6547 43.7662C49.6547 43.7662 49.7338 45.6438 49.3752 45.9033C49.0166 46.1628 48.9364 46.7829 48.9364 46.7829C48.9364 46.7829 48.2788 47.9611 48.2994 48.2413C48.3199 48.5215 47.3817 50.4186 47.3817 50.4186C47.3817 50.4186 47.8411 48.061 45.1695 47.0424C45.1695 47.0424 45.15 46.2421 45.3493 46.0227C45.5486 45.8034 45.8596 45.7035 45.6646 44.5947C45.4696 43.486 45.6082 42.1612 45.6082 41.8951C45.6082 41.6291 46.2063 39.9698 46.2063 39.9698L48.4012 38.7742Z" fill="white"/>
<path opacity="0.1" d="M33.9001 78.1793C33.9001 78.1793 34.9467 77.5201 35.6336 77.999C36.3204 78.4779 33.9001 78.1793 33.9001 78.1793Z" fill="black"/>
<path opacity="0.1" d="M42.032 76.141C42.032 76.141 42.9583 76.0215 43.7361 76.861C44.514 77.7004 42.032 76.141 42.032 76.141Z" fill="black"/>
<g opacity="0.1">
<path d="M43.3876 23.6244C43.2543 23.7395 43.0832 23.822 42.9943 23.9751C42.9185 24.1065 42.9163 24.2683 42.8556 24.4095C42.795 24.5507 42.6184 24.6658 42.496 24.5767C42.4678 23.5994 41.9868 22.6818 41.3963 21.8999C41.2312 21.6639 41.0306 21.4551 40.8015 21.2809C40.5697 21.1062 40.2811 21.0245 39.9923 21.0518C39.6672 21.0963 39.3812 21.3178 39.053 21.345C38.6196 21.3819 38.2307 21.0811 37.8006 21.0659C37.6258 21.0677 37.4534 21.1068 37.2949 21.1808C37.1365 21.2548 36.9957 21.3619 36.8819 21.4949C36.6557 21.7622 36.4878 22.074 36.3889 22.4103C36.2187 22.9205 36.1259 23.4535 36.1137 23.9914C36.1072 24.2944 36.0791 24.6723 35.7996 24.7852C35.8061 24.8654 35.8061 24.9461 35.7996 25.0263C36.0812 24.9177 36.1094 24.5355 36.1159 24.2314C36.128 23.6935 36.2207 23.1605 36.3911 22.6503C36.49 22.3137 36.6579 22.0015 36.884 21.7338C36.9981 21.6011 37.139 21.4944 37.2974 21.4206C37.4558 21.3468 37.6281 21.3077 37.8027 21.3059C38.2361 21.3211 38.6261 21.6208 39.0551 21.585C39.3801 21.5578 39.6683 21.3352 39.9944 21.2918C40.2832 21.2645 40.5718 21.3462 40.8037 21.5209C41.0328 21.6951 41.2334 21.9039 41.3985 22.1399C41.9889 22.9207 42.47 23.8361 42.4981 24.8156C42.6206 24.9058 42.7971 24.7885 42.8578 24.6495C42.9185 24.5105 42.9206 24.3476 42.9965 24.2151C43.0853 24.062 43.2565 23.9805 43.3898 23.8654C43.7278 23.5733 43.8123 23.0814 43.7993 22.6351C43.7993 22.621 43.7993 22.6068 43.7993 22.5938C43.7787 22.9804 43.6758 23.3746 43.3876 23.6244Z" fill="black"/>
<path d="M35.39 23.5473C35.1408 23.2725 34.8006 23.089 34.572 22.798C34.3795 22.5403 34.2696 22.2302 34.2567 21.9086C34.2226 22.3105 34.3346 22.7112 34.572 23.0369C34.8006 23.329 35.1408 23.5125 35.39 23.7873C35.6292 24.056 35.7728 24.3966 35.7984 24.7559C35.815 24.5373 35.7874 24.3175 35.7172 24.1098C35.647 23.9021 35.5357 23.7108 35.39 23.5473Z" fill="black"/>
<path d="M44.011 20.2688C43.9469 20.5349 43.8329 20.7879 43.7808 21.0561C43.7499 21.2354 43.7386 21.4174 43.7471 21.5991C43.7508 21.4956 43.762 21.3925 43.7808 21.2907C43.8329 21.0214 43.9469 20.7695 44.011 20.5034C44.0483 20.3567 44.0605 20.2046 44.0468 20.0538C44.0401 20.1263 44.0281 20.1981 44.011 20.2688Z" fill="black"/>
</g>
<path opacity="0.1" d="M14.3797 82.5947C20.2099 82.5947 24.9362 81.8338 24.9362 80.8952C24.9362 79.9566 20.2099 79.1957 14.3797 79.1957C8.54955 79.1957 3.82324 79.9566 3.82324 80.8952C3.82324 81.8338 8.54955 82.5947 14.3797 82.5947Z" fill="#6C63FF"/>
<path d="M14.7201 48.3391H14.0408V63.6691H14.7201V48.3391Z" fill="#535461"/>
<path d="M18.9885 63.6224L18.9462 64.3131L18.8855 65.2904L18.8606 65.6965L18.801 66.6739L18.775 67.08L18.7144 68.0573L18.0297 79.1414C17.9999 79.6183 17.79 80.0659 17.4426 80.3932C17.0952 80.7204 16.6364 80.9026 16.1597 80.9028H12.5997C12.1231 80.9026 11.6645 80.7203 11.3173 80.3931C10.9701 80.0658 10.7604 79.6182 10.7309 79.1414L10.0495 68.0497L9.98878 67.0724L9.96386 66.6663L9.90319 65.6889L9.87828 65.2828L9.81761 64.3055L9.77427 63.6148C9.76674 63.4819 9.78639 63.3488 9.83201 63.2238C9.87763 63.0987 9.94826 62.9843 10.0396 62.8876C10.1309 62.7909 10.2409 62.714 10.363 62.6614C10.485 62.6089 10.6165 62.5819 10.7493 62.5821H18.0307C18.1631 62.5832 18.2938 62.6115 18.4148 62.6653C18.5357 62.719 18.6445 62.797 18.7342 62.8945C18.8239 62.992 18.8928 63.1069 18.9365 63.2321C18.9803 63.3573 18.9979 63.4901 18.9885 63.6224Z" fill="#3F3D56"/>
<path d="M18.9462 64.313L18.8855 65.2871H9.8739L9.81323 64.313H18.9462Z" fill="#9D9CB5"/>
<path d="M18.8607 65.6933L18.8011 66.6684H9.9596L9.89893 65.6933H18.8607Z" fill="#9D9CB5"/>
<path d="M18.775 67.0757L18.7154 68.0497H10.045L9.98438 67.0757H18.775Z" fill="#9D9CB5"/>
<path d="M8.77666 54.0847C12.7321 56.9537 14.3832 61.4408 14.3832 61.4408C14.3832 61.4408 9.61629 61.2768 5.65977 58.4078C1.70325 55.5387 0.0554199 51.0528 0.0554199 51.0528C0.0554199 51.0528 4.82014 51.2157 8.77666 54.0847Z" fill="#6C63FF"/>
<path d="M0.0522461 51.0528C0.0522461 51.0528 5.00115 53.8056 6.5883 56.085C8.17546 58.3643 14.3833 61.4408 14.3833 61.4408" stroke="#535461" stroke-width="2" stroke-miterlimit="10"/>
<path d="M11.3302 48.3054C13.4828 49.8658 14.3831 52.3081 14.3831 52.3081C14.3831 52.3081 11.7884 52.2191 9.63466 50.6586C7.48089 49.0981 6.58276 46.6548 6.58276 46.6548C6.58276 46.6548 9.17639 46.7438 11.3302 48.3054Z" fill="#6C63FF"/>
<path d="M6.58276 46.6548C6.58276 46.6548 9.27606 48.1533 10.1395 49.3935C11.003 50.6336 14.3831 52.3081 14.3831 52.3081" stroke="#535461" stroke-width="2" stroke-miterlimit="10"/>
<path d="M17.5086 52.1843C15.0352 54.9089 14.512 58.4697 14.512 58.4697C14.512 58.4697 17.9994 57.6118 20.4706 54.8861C22.9418 52.1604 23.4672 48.6007 23.4672 48.6007C23.4672 48.6007 19.982 49.4597 17.5086 52.1843Z" fill="#6C63FF"/>
<path d="M23.4694 48.6018C23.4694 48.6018 20.2474 51.3948 19.4284 53.3191C18.6093 55.2434 14.512 58.4697 14.512 58.4697" stroke="#535461" stroke-width="2" stroke-miterlimit="10"/>
<path d="M108.303 51.2254C108.303 51.2254 106.514 42.3056 107.199 41.1958C107.199 41.1958 107.224 40.1642 107.183 38.8491C107.183 38.7991 107.183 38.7492 107.183 38.6982C107.303 38.7787 107.429 38.8512 107.559 38.9153C108.189 39.2402 108.914 39.3339 109.606 39.1803L109.064 38.5754C108.934 38.431 108.799 38.2746 108.771 38.0835C108.743 37.8924 108.821 37.7219 108.888 37.5514C109.402 36.2483 109.43 34.6096 108.438 33.6149C107.601 32.7788 107.397 31.6993 106.488 30.9359C105.824 30.3767 105.459 29.5568 105.114 28.7641C104.823 28.0941 104.529 27.4186 104.363 26.7084C104.233 26.1535 104.181 25.579 104.002 25.0372C103.823 24.4953 103.488 23.9686 102.965 23.7265C102.779 23.6407 102.572 23.5918 102.402 23.4778C102.178 23.3268 102.044 23.0814 101.883 22.8664C101.063 21.7805 98.3161 22.4201 97.0161 22.861C96.6626 22.972 96.3354 23.1538 96.054 23.3952L96.066 23.3757C96.0757 23.3594 96.0876 23.3431 96.0985 23.3268C95.9562 23.4422 95.8333 23.5797 95.7344 23.7341C95.5449 24.0349 95.4658 24.3856 95.3076 24.7114C95.1169 25.0969 94.0563 26.1731 94.5124 26.6063C94.5444 26.6354 94.581 26.6589 94.6207 26.6758C94.792 26.7473 94.9805 26.7662 95.1624 26.7301L95.1429 26.7768C94.9871 27.1591 94.9073 27.5682 94.9078 27.9811C94.9078 29.7653 96.3758 31.2118 98.1883 31.2118C98.5291 31.2121 98.8678 31.1597 99.1926 31.0565C99.2002 31.0977 99.2067 31.139 99.2143 31.1803C99.2143 31.1966 99.2197 31.2128 99.2219 31.2291L99.1644 31.3095C99.1616 31.3045 99.1583 31.2998 99.1547 31.2954L97.4538 33.6779C97.1938 33.8614 95.6965 34.9474 95.612 35.7618C95.5232 36.6534 95.4343 37.6969 95.4343 37.6969L95.4224 37.9206C95.3481 37.9829 95.2612 38.0282 95.1676 38.0536C95.0741 38.0789 94.9762 38.0835 94.8807 38.0672C94.3499 37.9804 94.3499 40.0219 94.3499 40.0219C94.3499 40.0219 93.9967 40.3477 93.754 40.0653C93.5113 39.783 92.87 40.7397 92.87 40.7397L88.8506 40.9135L88.7585 40.9189L88.5419 40.2467C88.5185 40.1758 88.4682 40.117 88.4019 40.083C88.3356 40.0491 88.2586 40.0427 88.1876 40.0653C88.1708 40.0709 88.1545 40.0778 88.1388 40.086L88.1237 40.0947L88.0955 40.1142L88.0814 40.1272C88.0737 40.1343 88.0664 40.1419 88.0597 40.15L88.0467 40.1652L88.0402 40.1718C88.0152 40.2064 87.9987 40.2465 87.9919 40.2887C87.9851 40.331 87.9883 40.3742 88.0012 40.415L88.1876 40.9916C87.4119 41.148 86.6188 41.5889 87.2656 42.803L83.9873 42.1959L85.0479 43.0886L90.5234 44.2212C90.4508 44.3515 90.4984 44.5405 90.7249 44.8065C91.6999 45.9543 93.4767 46.266 94.1917 46.3464C94.3805 46.7698 94.6164 47.1705 94.8948 47.5409L94.8331 48.6844C94.8331 48.6844 93.0227 57.4 92.6912 57.842C92.8586 57.6519 93.0117 57.4498 93.1495 57.2371C92.624 59.0278 91.8895 61.4788 91.6967 61.8458C91.3868 62.4322 91.0997 64.805 91.4529 64.957C91.5612 65.0037 91.8711 64.9809 92.3131 64.9472V65.1438L92.2936 72.5922C92.2936 72.5922 92.3825 77.1607 92.1387 77.5961C91.8949 78.0316 91.8299 78.9449 91.8299 78.9449C91.8299 78.9449 90.8549 80.7464 90.0824 81.4707C90.0772 81.4764 90.0714 81.4814 90.0651 81.4859L90.0413 81.3165C90.0413 81.3165 89.1128 82.4915 87.0587 82.4253C87.0587 82.4253 85.8226 83.231 87.6556 83.2744C89.4887 83.3179 91.8299 83.2093 91.8299 83.2093C91.8299 83.2093 93.4648 80.7117 94.8342 81.0374V82.9302H95.2534V81.007C95.4479 80.8787 95.6143 80.7122 95.7426 80.5175C95.8709 80.3228 95.9584 80.104 95.9999 79.8744C96.0358 79.6377 96.0095 79.3958 95.9236 79.1724C95.8377 78.949 95.6952 78.7519 95.5102 78.6006C95.4271 78.5253 95.3604 78.4335 95.3143 78.3311C95.2683 78.2287 95.2438 78.1179 95.2426 78.0055L95.2274 78.0186C95.2274 77.9805 95.2177 77.9415 95.2133 77.9013C95.0931 76.9239 94.9425 74.9074 95.4744 73.4153C96.2036 71.3694 96.4246 68.5199 95.8937 66.8237C95.7224 66.2815 95.5817 65.7301 95.4723 65.172C95.4593 65.1014 95.4474 65.0341 95.4365 64.9711C95.7994 65.0203 96.1587 65.0929 96.5123 65.1883C97.742 65.5282 100.432 65.5912 102.729 65.5727C102.734 65.6357 102.741 65.702 102.748 65.7682C102.789 66.2286 102.875 66.684 103.004 67.1278C103.292 67.9965 103.424 71.8266 103.424 71.8266C103.424 71.8266 103.796 74.9758 103.593 76.2572C103.485 76.9695 103.377 77.6852 103.315 78.4041V78.4182C103.315 78.4182 102.706 80.1557 102.261 81.0993C102.25 81.1232 102.238 81.1471 102.227 81.1699C102.108 81.1808 101.992 81.2067 101.879 81.247C101.879 81.247 101.282 82.4415 100.688 82.6392C100.093 82.8368 100.29 83.4873 101.637 83.2484C102.983 83.0095 105.017 82.814 105.017 82.814L105.105 81.5956L105.518 81.0765L105.41 82.2917L105.851 82.2048L105.793 80.7269L106.47 79.8777C106.47 79.8777 107.288 79.1479 106.072 77.7123V77.7438C106.059 77.7232 106.047 77.7015 106.033 77.6808V77.6743C105.832 77.3616 105.671 76.7784 105.965 75.7435C106.496 73.8736 106.804 72.1763 106.804 72.1763C106.804 72.1763 107.99 67.6295 106.565 65.4782H106.628C106.482 65.1755 106.379 64.8539 106.321 64.5226C106.314 64.4835 106.308 64.4434 106.302 64.4021C107.356 64.3413 108.391 64.1502 109.234 63.7375C109.231 63.7332 108.723 52.9434 108.303 51.2254ZM94.9197 43.6999V43.7217L94.7031 43.7325L94.9197 43.6999ZM94.1765 43.8031C94.1409 43.811 94.1076 43.827 94.079 43.8498C93.9859 43.9819 93.9274 44.1354 93.9089 44.2961L93.5709 44.2201C93.5709 44.2201 93.3337 44.1691 92.9924 44.1115L92.831 43.9486C93.2752 43.9117 93.7367 43.8574 94.1765 43.8031Z" fill="url(#paint1_linear_42_466)"/>
<path d="M105.36 80.7421L105.231 82.2808L105.663 82.194L105.598 80.5249L105.36 80.7421Z" fill="#1D2366"/>
<path d="M95.4981 73.4359C94.977 74.9237 95.1243 76.9315 95.2413 77.9067C95.2847 78.2672 95.3248 78.4866 95.3248 78.4866C95.3248 78.4866 94.5458 80.2653 94.4808 80.3327C94.4158 80.4 92.1884 81.7628 92.1884 81.7628L90.6315 82.6739C90.6315 82.6739 89.052 81.98 89.8092 81.7411C89.964 81.6789 90.1033 81.5837 90.2177 81.462C90.976 80.7399 91.9283 78.9449 91.9283 78.9449C91.9283 78.9449 91.9933 78.0338 92.2317 77.6005C92.47 77.1672 92.3834 72.6139 92.3834 72.6139L92.4018 65.1916V64.224L95.3648 64.2457C95.3835 64.5742 95.4263 64.9009 95.4927 65.2231C95.599 65.7792 95.7368 66.3288 95.9054 66.8693C96.4276 68.5623 96.211 71.3976 95.4981 73.4359Z" fill="#FFB0B1"/>
<path opacity="0.1" d="M95.3248 78.4866C95.3248 78.4866 94.5458 80.2653 94.4808 80.3327C94.4158 80.4 92.1884 81.7628 92.1884 81.7628L90.6315 82.6739C90.6315 82.6739 89.052 81.98 89.8092 81.7411C89.964 81.6789 90.1033 81.5836 90.2177 81.462L90.2848 81.9366L90.8038 81.9149L95.2457 77.9089C95.2847 78.2672 95.3248 78.4866 95.3248 78.4866Z" fill="black"/>
<path d="M95.2706 78.0099L90.8038 82.043L90.2849 82.0647L90.1765 81.3046C90.1765 81.3046 89.2686 82.4752 87.2514 82.4101C87.2514 82.4101 86.0402 83.2126 87.8353 83.256C89.6305 83.2994 91.9229 83.1909 91.9229 83.1909C91.9229 83.1909 93.5242 80.6932 94.8643 81.019V82.9053H95.276V81.0016C95.4674 80.8725 95.6308 80.7058 95.7563 80.5117C95.8818 80.3177 95.9668 80.1001 96.0062 79.8723C96.0419 79.6375 96.0166 79.3975 95.933 79.1754C95.8493 78.9533 95.71 78.7564 95.5284 78.6039C95.4474 78.5277 95.3827 78.4357 95.3383 78.3336C95.294 78.2314 95.2709 78.1213 95.2706 78.0099Z" fill="#1D2366"/>
<path d="M105.772 75.7555C105.484 76.7871 105.641 77.3681 105.838 77.6798V77.6863C106.091 78.0711 106.267 78.5015 106.356 78.9536L106.373 79.0513L104.341 82.0213L103.238 82.4557C103.238 82.4557 101.464 81.8486 101.788 81.6749C101.87 81.6325 101.996 81.4067 102.141 81.095C102.575 80.1557 103.173 78.4225 103.173 78.4225V78.4084C103.236 77.6928 103.335 76.9793 103.446 76.2691C103.644 74.991 103.28 71.8537 103.28 71.8537C103.28 71.8537 103.15 68.0389 102.868 67.1712C102.741 66.7301 102.657 66.2777 102.616 65.8203C102.558 65.2774 102.545 64.83 102.545 64.83C102.545 64.83 103.712 63.2011 105.853 64.9603C106.024 65.1006 106.175 65.2644 106.301 65.4468C107.779 67.5556 106.589 72.2012 106.589 72.2012C106.589 72.2012 106.291 73.8909 105.772 75.7555Z" fill="#FFB0B1"/>
<path opacity="0.1" d="M106.376 79.0513L104.344 82.0213L103.241 82.4557C103.241 82.4557 101.468 81.8486 101.791 81.6749C101.873 81.6325 101.999 81.4067 102.145 81.095C102.895 81.0885 103.284 81.8052 103.284 81.8052L104.236 81.6532C104.236 81.6532 105.49 79.1816 105.772 79.0307C106.054 78.8797 105.815 77.9024 105.815 77.9024V77.6537C105.823 77.6624 105.829 77.6721 105.838 77.6808V77.6874C106.091 78.0722 106.267 78.5026 106.356 78.9546L106.376 79.0513Z" fill="black"/>
<path d="M103.35 81.8693C103.35 81.8693 102.808 80.8724 101.77 81.2405C101.77 81.2405 101.186 82.435 100.602 82.6283C100.018 82.8216 100.213 83.4732 101.533 83.2354C102.852 82.9975 104.841 82.801 104.841 82.801L104.928 81.5858L106.269 79.8733C106.269 79.8733 107.069 79.1468 105.879 77.7167V77.9654C105.879 77.9654 106.118 78.9427 105.836 79.0936C105.554 79.2446 104.304 81.7172 104.304 81.7172L103.35 81.8693Z" fill="#1D2366"/>
<path opacity="0.1" d="M95.3682 64.2435C95.3869 64.572 95.4296 64.8987 95.496 65.2209C94.2761 65.0417 93.144 65.1308 92.4019 65.1894V64.2218L95.3682 64.2435Z" fill="black"/>
<path opacity="0.1" d="M106.421 65.7172C106.421 65.7172 104.687 65.8019 102.62 65.8192C102.562 65.2763 102.549 64.8289 102.549 64.8289C102.549 64.8289 103.717 63.2 105.857 64.9592C106.029 65.0995 106.179 65.2633 106.305 65.4457C106.338 65.5383 106.377 65.6289 106.421 65.7172Z" fill="black"/>
<path d="M106.421 65.5217C106.421 65.5217 98.8285 65.8898 96.5143 65.2394C94.2002 64.5889 91.9067 65.1525 91.5611 65.0016C91.2155 64.8506 91.4961 62.4865 91.7995 61.9012C92.1028 61.3159 93.7669 55.3965 93.7669 55.3965L95.3681 47.0283L97.055 46.5625L97.1741 46.5288L100.113 45.7165L102.267 45.1204C102.267 45.1204 106.55 61.8795 106.182 63.1153C106.049 63.5885 106.028 64.0863 106.12 64.5693C106.176 64.8992 106.277 65.2197 106.421 65.5217Z" fill="#1D2366"/>
<path d="M89.7866 41.3055C89.7866 41.3055 88.2699 42.9344 89.4183 43.8422C90.5667 44.75 91.3218 43.9291 91.3218 43.9291L89.7866 41.3055Z" fill="#C7DAF5"/>
<path opacity="0.1" d="M89.7866 41.3055C89.7866 41.3055 88.2699 42.9344 89.4183 43.8422C90.5667 44.75 91.3218 43.9291 91.3218 43.9291L89.7866 41.3055Z" fill="black"/>
<path d="M102.041 30.5961C102.041 30.5961 101.863 30.7655 101.595 31.0152C101.214 31.3725 100.65 31.8948 100.149 32.3325C99.4557 32.9373 98.8837 33.3815 99.0884 33.0025C99.2932 32.6235 99.2542 31.9632 99.1523 31.3453C99.1448 31.3041 99.1383 31.2628 99.1307 31.2226C99.0463 30.7688 98.9345 30.3206 98.7959 29.8804C98.7959 29.8804 99.9161 28.4296 100.536 27.8573C100.767 27.6402 100.928 27.5511 100.938 27.7021C100.949 27.9051 101.1 28.3536 101.289 28.8292C101.294 28.8444 101.3 28.8586 101.306 28.8738C101.432 29.1995 101.574 29.534 101.698 29.8229C101.889 30.2659 102.041 30.5961 102.041 30.5961Z" fill="#FFB0B1"/>
<path opacity="0.1" d="M101.306 28.8738C101.201 29.4413 100.945 29.9701 100.567 30.4049C100.188 30.8397 99.6993 31.1645 99.1523 31.3454C99.0662 30.8496 98.9471 30.3602 98.7959 29.8804C98.7959 29.8804 100.905 27.1493 100.938 27.7021C100.945 27.9116 101.11 28.3764 101.306 28.8738Z" fill="black"/>
<path opacity="0.1" d="M98.9422 32.0751L99.2152 31.6896C99.2152 31.6896 99.3961 32.7951 100.061 32.3075C100.727 31.8199 100.759 35.9768 100.759 35.9768L100.045 46.6765L94.886 46.367L95.0322 41.1969L95.6162 38.5907L97.0603 34.8018L97.9195 33.5498L98.9422 32.0751Z" fill="black"/>
<path d="M100.759 36.0431L100.109 45.7176L100.041 46.7427L97.1645 46.5701L97.0562 46.5636L94.8894 46.4332L95.0357 41.262L95.6196 38.6558L97.0638 34.867L97.9229 33.6149L98.9456 32.1348L99.2186 31.7504C99.2186 31.7504 99.3995 32.8559 100.065 32.3683L100.079 32.3585C100.729 31.9459 100.759 36.0431 100.759 36.0431Z" fill="#1D2366"/>
<path d="M95.6922 37.7502C95.6922 37.7502 95.4332 38.2931 94.9132 38.2052C94.3932 38.1172 94.3943 40.1598 94.3943 40.1598C94.3943 40.1598 94.0487 40.4856 93.8103 40.2033C93.572 39.9209 92.9436 40.8755 92.9436 40.8755L89.0066 41.0492C89.0066 41.0492 90.7584 41.8517 90.415 44.2798C90.415 44.2798 96.3628 43.9106 96.5578 43.347C96.7528 42.7834 95.6922 37.7502 95.6922 37.7502Z" fill="white"/>
<path opacity="0.03" d="M95.6922 37.7502C95.6922 37.7502 95.4332 38.2931 94.9132 38.2052C94.3932 38.1172 94.3943 40.1598 94.3943 40.1598C94.3943 40.1598 94.0487 40.4856 93.8103 40.2033C93.572 39.9209 92.9436 40.8755 92.9436 40.8755L89.0066 41.0492C89.0066 41.0492 90.7584 41.8517 90.415 44.2798C90.415 44.2798 96.3628 43.9106 96.5578 43.347C96.7528 42.7834 95.6922 37.7502 95.6922 37.7502Z" fill="black"/>
<path d="M84.2505 42.3252L85.2884 43.2135L93.8319 45.0128L92.7724 43.9291L84.2505 42.3252Z" fill="white"/>
<path d="M98.9585 32.4171C98.8166 32.6343 98.4103 33.7463 98.0712 34.7171C97.7884 35.5262 97.5522 36.2374 97.5522 36.2374C97.5522 36.2374 97.0008 39.8362 96.7191 40.4867C96.4374 41.1371 96.5902 43.6739 96.5902 43.6739L95.5404 49.9386C95.5404 49.9386 95.0648 53.1692 94.3303 55.0989C93.6055 56.9982 92.7984 57.8887 92.7734 57.9169C93.0985 57.476 94.8698 48.7951 94.8698 48.7951L95.4548 37.8468C95.4548 37.8468 95.5404 36.8065 95.6271 35.9171C95.7137 35.0277 97.4688 33.8136 97.4688 33.8136L99.1611 31.4018C99.3312 31.6298 99.2174 32.0273 98.9585 32.4171Z" fill="white"/>
<path d="M94.5459 46.4875C94.5459 46.4875 92.0541 46.3789 90.8472 44.926C89.6403 43.473 93.6369 44.3461 93.6369 44.3461L94.6759 44.585L94.5459 46.4875Z" fill="#FFB0B1"/>
<path opacity="0.1" d="M106.182 63.1164C106.049 63.5896 106.028 64.0874 106.12 64.5704C103.401 64.7637 100.494 64.0275 100.494 64.0275C99.9519 64.527 98.5251 65.2632 98.5251 65.2632L97.7472 55.5985C97.2499 54.2954 97.0549 47.4681 97.0549 47.4681C97.0549 47.4681 97.0994 47.1109 97.1633 46.5755C97.1633 46.5625 97.1633 46.5483 97.1687 46.5353C97.3626 45.04 97.7472 42.2329 97.9357 41.8539C98.1957 41.3326 97.1362 39.9459 97.1362 39.9459L97.6183 35.8248L97.6768 35.3274C98.693 34.8724 99.472 33.4195 99.472 33.4195L100.07 32.3694C100.72 31.9513 100.754 36.0485 100.754 36.0485L100.104 45.723L102.257 45.1269C102.257 45.1269 106.55 61.8806 106.182 63.1164Z" fill="black"/>
<path d="M108.972 63.7842C106.009 65.2589 100.624 63.8928 100.624 63.8928C100.082 64.3923 98.6552 65.1286 98.6552 65.1286L97.8763 55.4638C97.3801 54.1607 97.1851 47.3335 97.1851 47.3335C97.1851 47.3335 97.8113 42.2394 98.0713 41.7192C98.1471 41.5672 98.1103 41.3413 98.0204 41.0981C97.5783 39.9403 97.4157 38.6941 97.5458 37.4613L97.7538 35.6901L97.8113 35.1939C98.8286 34.7378 99.6075 33.2848 99.6075 33.2848L100.149 32.3335L101.146 30.5808L101.618 29.7512L101.698 29.8239L102.311 30.3799C102.311 30.3799 102.571 30.5971 102.961 30.9229C103.809 31.6396 105.275 32.9015 106.031 33.6736C106.696 34.3534 106.906 36.9976 106.967 38.9881C107.007 40.2988 106.983 41.3261 106.983 41.3261C106.313 42.4327 108.067 51.3167 108.067 51.3167C108.475 53.0335 108.972 63.7842 108.972 63.7842Z" fill="white"/>
<path opacity="0.03" d="M103.284 33.2631C103.284 33.2631 101.251 37.1431 101.487 38.6178C101.723 40.0925 102.395 41.7616 102.071 42.1514C101.96 42.2991 101.816 42.419 101.651 42.5017C101.485 42.5844 101.303 42.6277 101.119 42.6281C100.794 42.6499 99.9271 43.2569 99.9271 43.3221C99.9271 43.3872 99.1264 43.3872 98.4103 43.6913C97.6942 43.9953 96.6368 44.168 96.6368 44.168C96.6368 44.168 94.5784 44.1028 94.3866 44.2983C94.1949 44.4938 93.9977 45.6633 94.4083 46.5961C94.8189 47.5289 95.275 48.225 95.6195 48.3521C95.964 48.4791 98.1503 47.745 99.9238 47.5713C101.697 47.3975 103.622 45.9891 103.622 45.9891C103.622 45.9891 105.743 45.2289 106.114 43.9508C106.486 42.6727 105.66 35.6478 105.66 35.6478C105.66 35.6478 105.036 32.3737 103.284 33.2631Z" fill="black"/>
<path opacity="0.03" d="M103.024 32.9373C103.024 32.9373 100.991 36.8184 101.229 38.292C101.468 39.7656 102.137 41.4358 101.812 41.8267C101.701 41.9746 101.558 42.0946 101.393 42.1774C101.227 42.2601 101.046 42.3032 100.861 42.3035C100.536 42.3252 99.6692 42.9322 99.6692 42.9974C99.6692 43.0625 98.8686 43.0625 98.1525 43.3655C97.4364 43.6685 96.379 43.8422 96.379 43.8422C96.379 43.8422 94.3206 43.7771 94.1299 43.9725C93.9392 44.168 93.7399 45.3386 94.1516 46.2704C94.5632 47.2021 95.0183 47.8993 95.3628 48.0263C95.7073 48.1534 97.8936 47.4193 99.6671 47.2466C101.441 47.0739 103.366 45.6633 103.366 45.6633C103.366 45.6633 105.485 44.9032 105.852 43.6261C106.219 42.3491 105.398 35.322 105.398 35.322C105.398 35.322 104.776 32.049 103.024 32.9373Z" fill="black"/>
<path d="M103.221 33.0676C103.221 33.0676 101.187 36.9487 101.425 38.4223C101.664 39.8959 102.333 41.5661 102.009 41.9559C101.898 42.1041 101.755 42.2245 101.589 42.3074C101.424 42.3903 101.242 42.4336 101.057 42.4338C100.732 42.4555 99.8653 43.0625 99.8653 43.1266C99.8653 43.1906 99.0657 43.1917 98.3485 43.4958C97.6313 43.7999 96.575 43.9725 96.575 43.9725C96.575 43.9725 94.5166 43.9074 94.3249 44.1028C94.1331 44.2983 93.9359 45.4689 94.3465 46.4007C94.7571 47.3324 95.2132 48.0295 95.5577 48.1566C95.9023 48.2836 98.0885 47.5496 99.862 47.3758C101.636 47.2021 103.561 45.7936 103.561 45.7936C103.561 45.7936 105.681 45.0335 106.052 43.7553C106.424 42.4772 105.604 35.4523 105.604 35.4523C105.604 35.4523 104.971 32.1837 103.221 33.0676Z" fill="white"/>
<path opacity="0.1" d="M103.176 43.4773C103.176 43.4773 101.551 43.1515 102.117 43.6945C102.682 44.2375 102.679 44.7131 103.371 44.6914C104.063 44.6697 103.176 43.4773 103.176 43.4773Z" fill="black"/>
<path opacity="0.1" d="M105.923 55.1598C105.923 55.1598 105.188 55.6582 106.593 56.8071C107.998 57.956 105.923 55.1598 105.923 55.1598Z" fill="black"/>
<path opacity="0.1" d="M104.521 59.257C104.521 59.3221 104.261 61.646 105.233 62.227C106.206 62.8079 104.521 59.257 104.521 59.257Z" fill="black"/>
<path d="M89.0738 41.0438C88.2894 41.0709 86.595 41.3109 87.4736 42.9539C88.2504 44.408 89.5559 43.4361 90.2904 42.6987C90.1112 42.0113 89.6758 41.4189 89.0738 41.0438Z" fill="#FFB0B1"/>
<path opacity="0.1" d="M102.96 30.9892C102.128 31.5593 101.431 32.0403 101.294 32.1403C100.921 32.4172 100.211 34.0428 99.7525 34.8724C99.3874 35.5403 98.2011 35.7119 97.7537 35.7542L97.8111 35.258C98.8284 34.8019 99.6073 33.3489 99.6073 33.3489L101.618 29.8153L102.31 30.4462C102.31 30.4462 102.57 30.6634 102.96 30.9892Z" fill="black"/>
<path d="M102.96 30.924C102.128 31.4941 101.431 31.9752 101.294 32.0762C100.921 32.352 100.211 33.9776 99.7525 34.8073C99.3874 35.4751 98.2011 35.6467 97.7537 35.6891L97.8111 35.1928C98.8284 34.7367 99.6073 33.2837 99.6073 33.2837L101.618 29.7501L102.31 30.3789C102.31 30.3789 102.57 30.5939 102.96 30.924Z" fill="#DCE7FF"/>
<path d="M101.359 28.157C101.36 28.8089 101.162 29.4455 100.794 29.9825C100.358 30.6174 99.7101 31.0747 98.9669 31.2716C98.2238 31.4684 97.4348 31.3917 96.7433 31.0554C96.0517 30.7191 95.5033 30.1454 95.1976 29.4385C94.892 28.7316 94.8492 27.9382 95.0772 27.2024C95.3051 26.4666 95.7887 25.8371 96.4401 25.4281C97.0915 25.0191 97.8676 24.8576 98.6276 24.9731C99.3876 25.0886 100.081 25.4733 100.582 26.0575C101.083 26.6417 101.359 27.3866 101.359 28.157Z" fill="#FFB0B1"/>
<path opacity="0.1" d="M106.967 38.9892C106.527 38.7179 106.169 38.3321 105.93 37.8729C105.749 37.5145 105.629 37.1008 105.32 36.8467C105.042 36.6186 104.67 36.5632 104.323 36.4612C103.184 36.1234 102.228 35.0809 102.192 33.8908C102.175 33.3304 102.349 32.7712 102.27 32.2163C102.225 31.9022 102.101 31.605 101.909 31.3529C101.813 31.2324 101.708 31.1195 101.595 31.0152C101.444 30.8719 101.284 30.7329 101.146 30.5809C101.058 30.4867 100.982 30.3829 100.918 30.2714C100.867 30.1801 100.825 30.0836 100.794 29.9836C100.577 29.319 100.774 28.5306 100.536 27.8584L100.523 27.8215C100.433 27.5826 100.25 27.3437 99.9953 27.3252C99.7407 27.3068 99.5229 27.5185 99.2802 27.613C98.7721 27.8106 98.2239 27.474 97.8003 27.1309C97.3767 26.7877 96.8989 26.3957 96.3605 26.4717C96.0041 26.5227 95.7224 26.766 95.3941 26.892C95.32 26.9207 95.2435 26.9429 95.1655 26.9582C95.4433 26.2638 95.9537 25.688 96.6091 25.3298C97.2644 24.9715 98.0237 24.8533 98.7566 24.9953C99.4895 25.1372 100.15 25.5306 100.625 26.1078C101.1 26.685 101.36 27.41 101.359 28.1581C101.36 28.3841 101.336 28.6094 101.289 28.8303C101.294 28.8455 101.3 28.8597 101.306 28.8749C101.432 29.2006 101.574 29.5351 101.698 29.824L102.31 30.38C102.31 30.38 102.57 30.5971 102.96 30.9229C103.809 31.6396 105.275 32.9015 106.031 33.6736C106.696 34.3555 106.904 36.9987 106.967 38.9892Z" fill="black"/>
<path d="M95.3563 24.908C95.5112 24.592 95.5881 24.2379 95.7734 23.9382C96.0453 23.5039 96.5198 23.2259 97.0073 23.0575C98.2803 22.6177 100.97 21.9792 101.774 23.0575C101.932 23.2747 102.063 23.5158 102.282 23.6657C102.449 23.7797 102.651 23.8285 102.834 23.9143C103.346 24.1554 103.673 24.681 103.848 25.2175C104.022 25.7539 104.074 26.3294 104.202 26.8822C104.366 27.5913 104.653 28.2635 104.939 28.9313C105.276 29.7197 105.633 30.5374 106.283 31.0945C107.171 31.8546 107.367 32.9308 108.19 33.7648C109.165 34.7552 109.134 36.3895 108.631 37.6872C108.565 37.8577 108.49 38.0358 108.516 38.2171C108.542 38.3985 108.676 38.5635 108.803 38.7079L109.336 39.3106C108.075 39.6158 106.648 38.9555 106.061 37.7969C105.88 37.4385 105.76 37.0258 105.45 36.7706C105.173 36.5426 104.8 36.4883 104.455 36.3862C103.315 36.0474 102.359 35.0038 102.324 33.8137C102.306 33.2544 102.481 32.6952 102.402 32.1413C102.358 31.8252 102.232 31.5258 102.039 31.2726C101.741 30.8827 101.291 30.621 101.048 30.1867C100.638 29.4602 100.95 28.5165 100.654 27.7368C100.563 27.4979 100.381 27.259 100.126 27.2405C99.8718 27.2221 99.654 27.4338 99.4103 27.5283C98.9033 27.7259 98.3551 27.3904 97.9315 27.0462C97.5079 26.7019 97.0301 26.311 96.4906 26.3881C96.1341 26.438 95.8535 26.6813 95.5253 26.8083C95.2826 26.9017 94.7907 26.9853 94.5784 26.7801C94.1299 26.3664 95.1688 25.2946 95.3563 24.908Z" fill="#591D4B"/>
<path opacity="0.1" d="M106.362 37.4385C106.18 37.0801 106.061 36.6675 105.751 36.4134C105.474 36.1853 105.101 36.1299 104.755 36.0279C103.616 35.6901 102.66 34.6466 102.624 33.4564C102.606 32.8971 102.781 32.3368 102.703 31.783C102.657 31.4688 102.532 31.1716 102.34 30.9196C102.041 30.5298 101.591 30.2681 101.349 29.8337C100.939 29.1083 101.251 28.1646 100.954 27.3839C100.864 27.146 100.681 26.9071 100.427 26.8876C100.174 26.868 99.9541 27.082 99.7114 27.1764C99.2044 27.3741 98.6551 27.0374 98.2326 26.6943C97.81 26.3511 97.3301 25.9591 96.7917 26.0351C96.4352 26.0862 96.1536 26.3294 95.8264 26.4554C95.5837 26.5488 95.0908 26.6335 94.8784 26.4282C94.4321 25.9939 95.471 24.9242 95.6574 24.5398C95.8123 24.2227 95.8892 23.8698 96.0755 23.5701C96.0853 23.5538 96.0961 23.5375 96.107 23.5212C95.9676 23.637 95.8473 23.774 95.7505 23.9273C95.5653 24.2271 95.4884 24.5789 95.3334 24.8971C95.146 25.2815 94.107 26.3544 94.5545 26.7855C94.7712 26.9918 95.2587 26.9071 95.5014 26.8137C95.8264 26.6867 96.1102 26.4434 96.4666 26.3935C97.0083 26.3164 97.485 26.7084 97.9076 27.0516C98.3301 27.3947 98.8826 27.7314 99.3875 27.5337C99.6301 27.4392 99.8425 27.2264 100.102 27.2459C100.362 27.2655 100.536 27.5033 100.63 27.7422C100.926 28.5219 100.614 29.4656 101.024 30.1921C101.267 30.6188 101.717 30.886 102.015 31.278C102.209 31.5313 102.334 31.8306 102.378 32.1467C102.457 32.7006 102.282 33.2598 102.3 33.8191C102.335 35.0136 103.291 36.0528 104.431 36.3916C104.774 36.4937 105.149 36.548 105.426 36.7761C105.737 37.0313 105.86 37.4439 106.037 37.8023C106.624 38.9609 108.051 39.6212 109.312 39.316L109.061 39.0315C107.968 39.0478 106.862 38.4245 106.362 37.4385Z" fill="black"/>
<path opacity="0.1" d="M98.8935 32.4823C98.7516 32.6995 98.3453 33.8115 98.0062 34.7823C97.6888 34.6585 97.4006 33.8691 97.4006 33.8691L99.0929 31.4561C99.2662 31.695 99.1525 32.0914 98.8935 32.4823Z" fill="black"/>
<path d="M98.9585 32.4171C98.8166 32.6343 98.4103 33.7463 98.0712 34.7171C97.7538 34.5944 97.4656 33.8039 97.4656 33.8039L99.1578 31.392C99.3312 31.6298 99.2174 32.0273 98.9585 32.4171Z" fill="#DCE7FF"/>
<path d="M89.1191 43.511L88.1809 40.5453C88.1698 40.5106 88.1657 40.474 88.1687 40.4377C88.1717 40.4014 88.1819 40.366 88.1986 40.3336C88.2153 40.3012 88.2382 40.2724 88.2661 40.249C88.2939 40.2255 88.3261 40.2077 88.3608 40.1967C88.4306 40.1749 88.5062 40.1816 88.5711 40.2153C88.6361 40.2491 88.685 40.3072 88.7074 40.377L89.6457 43.3394L89.5525 43.9595L89.1191 43.511Z" fill="#BE8B87"/>
<path opacity="0.1" d="M88.2698 40.2847C88.3398 40.2625 88.4157 40.269 88.4809 40.3028C88.546 40.3366 88.5952 40.3949 88.6176 40.465L89.5558 43.4274L89.4854 43.8922L89.5536 43.9638L89.6468 43.3438L88.7032 40.3813C88.6808 40.3115 88.6318 40.2534 88.5669 40.2197C88.5019 40.1859 88.4263 40.1792 88.3565 40.2011C88.2977 40.2202 88.247 40.2584 88.2124 40.3097C88.2308 40.2998 88.25 40.2914 88.2698 40.2847Z" fill="white"/>
<path d="M89.1191 43.511L89.6457 43.3438L89.5687 43.852L89.5525 43.9638L89.3987 43.8031L89.1191 43.511Z" fill="#EFC8C4"/>
<path d="M89.3987 43.8031C89.4079 43.7915 89.4193 43.7819 89.4323 43.7749C89.44 43.77 89.4488 43.7675 89.4579 43.7675C89.4669 43.7675 89.4758 43.77 89.4834 43.7749C89.4908 43.7838 89.497 43.7937 89.5018 43.8042C89.509 43.8162 89.5188 43.8264 89.5305 43.8341C89.5421 43.8418 89.5553 43.8468 89.5692 43.8487L89.5529 43.9573L89.3987 43.8031Z" fill="#727A9C"/>
<path d="M88.1755 41.5987C88.1755 41.5987 90.0574 41.5878 89.6143 42.3903C89.1712 43.1928 88.4789 43.2895 88.4789 43.2895L88.1755 41.5987Z" fill="#FFB0B1"/>
<path d="M76.4717 5.58386H76.3905C73.1577 5.58386 70.2986 7.29854 68.654 9.82876C67.0095 7.29854 64.1504 5.58386 60.9176 5.58386H60.8363C58.4102 5.60704 56.0912 6.589 54.3833 8.31636C52.6754 10.0437 51.7166 12.3769 51.7153 14.8088C51.7153 17.8288 53.0349 22.1139 55.6079 25.6399C60.5102 32.3585 68.654 38.2367 68.654 38.2367C68.654 38.2367 76.7978 32.3596 81.6991 25.6399C84.2732 22.1139 85.5917 17.8288 85.5917 14.8088C85.5904 12.3771 84.6317 10.0441 82.9241 8.31674C81.2164 6.58941 78.8977 5.60732 76.4717 5.58386ZM75.3093 26.1568C74.9411 26.1554 74.5819 26.0424 74.279 25.8327C73.976 25.623 73.7434 25.3264 73.6116 24.9818H71.6789C71.5516 24.981 71.4277 24.9404 71.3246 24.8656C71.2215 24.7909 71.1442 24.6857 71.1036 24.5648L70.5099 22.7719L68.6313 29.3516C68.5947 29.4783 68.5181 29.5896 68.413 29.6689C68.3079 29.7482 68.18 29.7912 68.0484 29.7914H68.0105C67.8733 29.7847 67.7424 29.7311 67.6399 29.6394C67.5373 29.5477 67.4693 29.4235 67.4472 29.2875L65.5111 17.616L64.0962 24.5225C64.0638 24.6537 63.9885 24.7702 63.8822 24.8534C63.776 24.9367 63.645 24.9819 63.5101 24.9818H60.7876C60.706 24.9853 60.6245 24.9722 60.5481 24.9432C60.4717 24.9143 60.4019 24.8702 60.3429 24.8135C60.2839 24.7569 60.237 24.6889 60.2049 24.6135C60.1729 24.5382 60.1564 24.4572 60.1564 24.3753C60.1564 24.2934 60.1729 24.2124 60.2049 24.1371C60.237 24.0618 60.2839 23.9938 60.3429 23.9371C60.4019 23.8804 60.4717 23.8363 60.5481 23.8074C60.6245 23.7785 60.706 23.7654 60.7876 23.7688H63.0334L65.0377 14.4831C65.0706 14.3458 65.1501 14.2242 65.2625 14.1391C65.3749 14.0541 65.5133 14.0108 65.6541 14.0167C65.7948 14.0226 65.9291 14.0773 66.0341 14.1715C66.139 14.2656 66.2081 14.3934 66.2294 14.533L68.2066 26.4391L69.8902 20.5523C69.9252 20.4283 69.9994 20.319 70.1015 20.2407C70.2036 20.1625 70.3282 20.1194 70.4568 20.1179H70.4687C70.596 20.118 70.7201 20.1583 70.8232 20.2332C70.9263 20.3081 71.0032 20.4137 71.0429 20.5349L72.1165 23.7721H73.5878C73.6924 23.4535 73.8827 23.1702 74.1379 22.9532C74.393 22.7363 74.703 22.5942 75.0336 22.5427C75.3642 22.4912 75.7026 22.5322 76.0114 22.6613C76.3202 22.7904 76.5874 23.0025 76.7835 23.2741C76.9796 23.5458 77.0971 23.8665 77.1229 24.2009C77.1486 24.5353 77.0817 24.8703 76.9296 25.1689C76.7774 25.4676 76.5459 25.7183 76.2605 25.8934C75.9752 26.0685 75.6471 26.1611 75.3125 26.1611L75.3093 26.1568Z" fill="#6C63FF"/>
</g>
<defs>
<linearGradient id="paint0_linear_42_466" x1="38.6043" y1="84.1454" x2="38.6043" y2="17.3238" gradientUnits="userSpaceOnUse">
<stop stop-color="#808080" stop-opacity="0.25"/>
<stop offset="0.54" stop-color="#808080" stop-opacity="0.12"/>
<stop offset="1" stop-color="#808080" stop-opacity="0.1"/>
</linearGradient>
<linearGradient id="paint1_linear_42_466" x1="96.7929" y1="83.3005" x2="96.7929" y2="22.2713" gradientUnits="userSpaceOnUse">
<stop stop-color="#808080" stop-opacity="0.25"/>
<stop offset="0.54" stop-color="#808080" stop-opacity="0.12"/>
<stop offset="1" stop-color="#808080" stop-opacity="0.1"/>
</linearGradient>
<clipPath id="clip0_42_466">
<rect width="119.718" height="85" fill="white"/>
</clipPath>
</defs>
</svg>
