<svg width="120" height="72" viewBox="0 0 120 72" fill="none" xmlns="http://www.w3.org/2000/svg">
<g clip-path="url(#clip0_42_461)">
<path d="M119.368 56.186C119.371 56.6682 119.182 57.1316 118.843 57.4744C118.505 57.8172 118.044 58.0111 117.563 58.0137H38.1275C37.8892 58.0124 37.6534 57.9642 37.4337 57.8716C37.214 57.7791 37.0146 57.6441 36.8469 57.4744C36.6793 57.3047 36.5466 57.1036 36.4566 56.8825C36.3665 56.6614 36.3208 56.4248 36.322 56.186V1.82771C36.3195 1.34549 36.5083 0.882024 36.8469 0.539262C37.1855 0.196501 37.6461 0.00252178 38.1274 0H117.563C117.801 0.001242 118.037 0.0495014 118.257 0.142022C118.476 0.234542 118.676 0.369513 118.843 0.539226C119.011 0.70894 119.144 0.910075 119.234 1.13114C119.324 1.35221 119.37 1.58889 119.368 1.82766V56.186Z" fill="#E6E6E6"/>
<path d="M118.431 55.2958C118.431 55.7645 118.245 56.214 117.915 56.5455C117.584 56.8769 117.135 57.0631 116.667 57.0631H39.0775C38.6097 57.0631 38.161 56.8769 37.8302 56.5455C37.4993 56.214 37.3135 55.7645 37.3135 55.2958V2.74275C37.3135 2.27404 37.4993 1.82454 37.8302 1.49311C38.161 1.16169 38.6097 0.975494 39.0775 0.975494H116.671C117.138 0.976436 117.586 1.16304 117.916 1.49437C118.246 1.82569 118.431 2.27466 118.431 2.74275V55.2958Z" fill="white"/>
<path d="M41.4604 3.25717H114.367C114.645 3.25717 114.911 3.36769 115.108 3.56441C115.304 3.76113 115.414 4.02794 115.414 4.30615V53.5286C115.414 53.8068 115.304 54.0736 115.108 54.2703C114.911 54.467 114.645 54.5775 114.367 54.5775H41.4604C41.1827 54.5775 40.9164 54.467 40.72 54.2703C40.5236 54.0736 40.4133 53.8068 40.4133 53.5286V4.30615C40.4133 4.02794 40.5236 3.76113 40.72 3.56441C40.9164 3.36769 41.1827 3.25717 41.4604 3.25717Z" fill="#E6E6E6"/>
<path d="M42.3833 4.43768H113.365C113.643 4.43768 113.909 4.5482 114.106 4.74492C114.302 4.94164 114.412 5.20845 114.412 5.48666V52.0825C114.412 52.3607 114.302 52.6275 114.106 52.8242C113.909 53.0209 113.643 53.1315 113.365 53.1315H42.3833C42.1056 53.1315 41.8392 53.0209 41.6429 52.8242C41.4465 52.6275 41.3362 52.3607 41.3362 52.0825V5.48666C41.3362 5.20845 41.4465 4.94164 41.6429 4.74492C41.8392 4.5482 42.1056 4.43768 42.3833 4.43768Z" fill="white"/>
<path d="M92.5014 36.8069C92.222 36.8067 91.9458 36.7477 91.6906 36.6338C91.6312 36.6074 91.5746 36.5752 91.5215 36.5376L86.3629 32.8998C86.1012 32.7153 85.8877 32.4705 85.7403 32.186C85.5929 31.9015 85.5159 31.5857 85.5159 31.2652V26.304C85.5159 25.9834 85.5929 25.6676 85.7403 25.3832C85.8877 25.0987 86.1012 24.8539 86.3629 24.6694L91.5215 21.0316C91.5746 20.994 91.6312 20.9617 91.6905 20.9353C91.9944 20.8 92.3272 20.7429 92.6587 20.7691C92.9903 20.7954 93.31 20.9042 93.5888 21.0858C93.8677 21.2673 94.0968 21.5157 94.2555 21.8085C94.4141 22.1013 94.4972 22.4292 94.4972 22.7624V34.8068C94.4972 35.3371 94.2869 35.8457 93.9126 36.2206C93.5384 36.5956 93.0307 36.8063 92.5014 36.8063L92.5014 36.8069Z" fill="#3F3D56"/>
<path d="M80.9562 37.7823H66.5684C63.6331 37.7799 61.2542 35.879 61.2512 33.5334V24.0358C61.2542 21.6902 63.6331 19.7893 66.5684 19.7869H80.9938C83.9082 19.7897 86.27 21.6769 86.2734 24.0058V33.5334C86.2704 35.879 83.8916 37.7799 80.9562 37.7823Z" fill="#3F3D56"/>
<path d="M106.586 50.1352C108.949 50.1352 110.865 48.2159 110.865 45.8484C110.865 43.4808 108.949 41.5615 106.586 41.5615C104.222 41.5615 102.307 43.4808 102.307 45.8484C102.307 48.2159 104.222 50.1352 106.586 50.1352Z" fill="#E6E6E6"/>
<path d="M108.808 45.7715L105.398 43.7987C105.384 43.7909 105.369 43.7868 105.353 43.7868C105.338 43.7868 105.322 43.7909 105.309 43.7987C105.295 43.8065 105.284 43.8177 105.277 43.8311C105.269 43.8446 105.265 43.8599 105.265 43.8755V47.8212C105.265 47.8368 105.269 47.8521 105.277 47.8656C105.284 47.8791 105.295 47.8903 105.309 47.898C105.322 47.9058 105.338 47.9099 105.353 47.9099C105.369 47.9099 105.384 47.9058 105.398 47.898L108.808 45.9252C108.822 45.9174 108.833 45.9062 108.841 45.8927C108.849 45.8792 108.853 45.8639 108.853 45.8484C108.853 45.8328 108.849 45.8175 108.841 45.804C108.833 45.7905 108.822 45.7793 108.808 45.7715L105.398 43.7987C105.384 43.7909 105.369 43.7868 105.353 43.7868C105.338 43.7868 105.322 43.7909 105.309 43.7987C105.295 43.8065 105.284 43.8177 105.277 43.8311C105.269 43.8446 105.265 43.8599 105.265 43.8755V47.8212C105.265 47.8368 105.269 47.8521 105.277 47.8656C105.284 47.8791 105.295 47.8903 105.309 47.898C105.322 47.9058 105.338 47.9099 105.353 47.9099C105.369 47.9099 105.384 47.9058 105.398 47.898L108.808 45.9252C108.822 45.9174 108.833 45.9062 108.841 45.8927C108.849 45.8792 108.853 45.8639 108.853 45.8484C108.853 45.8328 108.849 45.8175 108.841 45.804C108.833 45.7905 108.822 45.7793 108.808 45.7715Z" fill="white"/>
<path d="M101.03 62.705C101.032 63.1872 100.844 63.6507 100.505 63.9934C100.166 64.3362 99.7059 64.5302 99.2245 64.5327H19.7891C19.5508 64.5315 19.315 64.4832 19.0953 64.3907C18.8756 64.2982 18.6762 64.1632 18.5086 63.9935C18.3409 63.8238 18.2083 63.6226 18.1182 63.4016C18.0281 63.1805 17.9824 62.9438 17.9837 62.705V8.34675C17.9812 7.86453 18.1699 7.40107 18.5085 7.05831C18.8471 6.71554 19.3077 6.52156 19.7891 6.51904H99.2245C99.4628 6.52028 99.6986 6.56854 99.9183 6.66106C100.138 6.75359 100.337 6.88856 100.505 7.05827C100.673 7.22798 100.805 7.42912 100.895 7.65019C100.985 7.87126 101.031 8.10793 101.03 8.3467V62.705Z" fill="#E6E6E6"/>
<path d="M100.093 61.8149C100.093 62.2836 99.907 62.7331 99.5762 63.0645C99.2454 63.3959 98.7967 63.5821 98.3288 63.5821H20.7391C20.2713 63.5821 19.8226 63.3959 19.4918 63.0645C19.161 62.7331 18.9751 62.2836 18.9751 61.8149V9.26179C18.9751 8.79309 19.161 8.34358 19.4918 8.01215C19.8226 7.68073 20.2713 7.49454 20.7391 7.49454H98.3324C98.7996 7.49548 99.2474 7.68209 99.5774 8.01341C99.9075 8.34473 100.093 8.7937 100.093 9.26179V61.8149Z" fill="white"/>
<path d="M23.122 9.77621H96.0289C96.3066 9.77621 96.5729 9.88673 96.7693 10.0835C96.9656 10.2802 97.0759 10.547 97.0759 10.8252V60.0476C97.0759 60.3258 96.9656 60.5926 96.7693 60.7893C96.5729 60.9861 96.3066 61.0966 96.0289 61.0966H23.122C22.8443 61.0966 22.578 60.9861 22.3816 60.7893C22.1853 60.5926 22.075 60.3258 22.075 60.0476V10.8252C22.075 10.547 22.1853 10.2802 22.3816 10.0835C22.578 9.88673 22.8443 9.77621 23.122 9.77621Z" fill="#E6E6E6"/>
<path d="M24.0449 10.9568H95.0268C95.3045 10.9568 95.5708 11.0673 95.7672 11.264C95.9635 11.4607 96.0738 11.7275 96.0738 12.0057V58.6016C96.0738 58.8798 95.9635 59.1466 95.7672 59.3433C95.5708 59.54 95.3045 59.6505 95.0268 59.6505H24.0449C23.7672 59.6505 23.5008 59.54 23.3045 59.3433C23.1081 59.1466 22.9978 58.8798 22.9978 58.6016V12.0057C22.9978 11.7275 23.1081 11.4607 23.3045 11.264C23.5008 11.0673 23.7672 10.9568 24.0449 10.9568Z" fill="white"/>
<path d="M74.1627 43.326C73.8834 43.3258 73.6071 43.2668 73.3519 43.1529C73.2926 43.1265 73.2359 43.0943 73.1829 43.0567L68.0242 39.4189C67.7626 39.2344 67.5491 38.9896 67.4017 38.7051C67.2543 38.4206 67.1773 38.1048 67.1772 37.7843V32.823C67.1773 32.5025 67.2543 32.1867 67.4017 31.9022C67.5491 31.6178 67.7626 31.373 68.0242 31.1885L73.1829 27.5506C73.2359 27.5131 73.2925 27.4808 73.3519 27.4544C73.6558 27.3191 73.9886 27.2619 74.3201 27.2882C74.6516 27.3145 74.9713 27.4233 75.2502 27.6048C75.5291 27.7864 75.7582 28.0348 75.9169 28.3276C76.0755 28.6204 76.1586 28.9483 76.1586 29.2815V41.3259C76.1586 41.8562 75.9483 42.3647 75.574 42.7397C75.1997 43.1147 74.6921 43.3254 74.1627 43.3254L74.1627 43.326Z" fill="#3F3D56"/>
<path d="M62.6178 44.3013H48.2301C45.2947 44.2989 42.9159 42.398 42.9128 40.0524V30.5549C42.9159 28.2092 45.2947 26.3083 48.2301 26.3059H62.6554C65.5698 26.3087 67.9316 28.196 67.9351 30.5249V40.0524C67.9321 42.398 65.5532 44.2989 62.6178 44.3013Z" fill="#3F3D56"/>
<path d="M88.2473 56.6543C90.6106 56.6543 92.5264 54.735 92.5264 52.3674C92.5264 49.9999 90.6106 48.0806 88.2473 48.0806C85.8841 48.0806 83.9683 49.9999 83.9683 52.3674C83.9683 54.735 85.8841 56.6543 88.2473 56.6543Z" fill="#E6E6E6"/>
<path d="M90.4698 52.2906L87.0589 50.3177C87.0454 50.3099 87.0301 50.3058 87.0146 50.3058C86.999 50.3058 86.9838 50.3099 86.9703 50.3177C86.9568 50.3255 86.9457 50.3367 86.9379 50.3502C86.9301 50.3637 86.926 50.379 86.926 50.3945V54.3402C86.926 54.3558 86.9301 54.3711 86.9379 54.3846C86.9457 54.3981 86.9568 54.4093 86.9703 54.4171C86.9838 54.4249 86.999 54.429 87.0146 54.429C87.0301 54.429 87.0454 54.4249 87.0589 54.4171L90.4698 52.4442C90.4832 52.4365 90.4944 52.4253 90.5022 52.4118C90.5099 52.3983 90.514 52.383 90.514 52.3674C90.514 52.3518 90.5099 52.3365 90.5022 52.323C90.4944 52.3096 90.4832 52.2983 90.4698 52.2906L87.0589 50.3177C87.0454 50.3099 87.0301 50.3058 87.0146 50.3058C86.999 50.3058 86.9838 50.3099 86.9703 50.3177C86.9568 50.3255 86.9457 50.3367 86.9379 50.3502C86.9301 50.3637 86.926 50.379 86.926 50.3945V54.3402C86.926 54.3558 86.9301 54.3711 86.9379 54.3846C86.9457 54.3981 86.9568 54.4093 86.9703 54.4171C86.9838 54.4249 86.999 54.429 87.0146 54.429C87.0301 54.429 87.0454 54.4249 87.0589 54.4171L90.4698 52.4442C90.4832 52.4365 90.4944 52.4253 90.5022 52.4118C90.5099 52.3983 90.514 52.383 90.514 52.3674C90.514 52.3518 90.5099 52.3365 90.5022 52.323C90.4944 52.3096 90.4832 52.2983 90.4698 52.2906Z" fill="white"/>
<path d="M83.0463 70.1723C83.0488 70.6545 82.86 71.118 82.5214 71.4607C82.1829 71.8035 81.7222 71.9975 81.2409 72H1.80548C1.56715 71.9987 1.33139 71.9505 1.11167 71.858C0.891949 71.7654 0.692571 71.6305 0.524919 71.4608C0.357267 71.291 0.224623 71.0899 0.134561 70.8688C0.0444998 70.6478 -0.00121544 70.4111 2.48451e-05 70.1723V15.814C-0.00249202 15.3318 0.186305 14.8684 0.524884 14.5256C0.863464 14.1828 1.32409 13.9888 1.80543 13.9863H81.2408C81.4792 13.9876 81.7149 14.0358 81.9347 14.1284C82.1544 14.2209 82.3537 14.3558 82.5214 14.5256C82.689 14.6953 82.8217 14.8964 82.9118 15.1175C83.0018 15.3385 83.0475 15.5752 83.0463 15.814V70.1723Z" fill="#E6E6E6"/>
<path d="M82.1092 69.2821C82.1092 69.7509 81.9234 70.2004 81.5926 70.5318C81.2617 70.8632 80.813 71.0494 80.3452 71.0494H2.7555C2.28765 71.0494 1.83896 70.8632 1.50813 70.5318C1.17731 70.2004 0.991455 69.7509 0.991455 69.2821V16.7291C0.991455 16.2604 1.17731 15.8109 1.50813 15.4794C1.83896 15.148 2.28765 14.9618 2.7555 14.9618H80.3487C80.816 14.9628 81.2637 15.1494 81.5938 15.4807C81.9239 15.812 82.1092 16.261 82.1092 16.7291V69.2821Z" fill="white"/>
<path d="M5.13838 17.2435H78.0452C78.3229 17.2435 78.5893 17.354 78.7856 17.5507C78.982 17.7475 79.0923 18.0143 79.0923 18.2925V67.5149C79.0923 67.7931 78.982 68.0599 78.7856 68.2566C78.5893 68.4534 78.3229 68.5639 78.0452 68.5639H5.13838C4.86068 68.5639 4.59435 68.4534 4.39799 68.2566C4.20162 68.0599 4.09131 67.7931 4.09131 67.5149V18.2925C4.09131 18.0143 4.20162 17.7475 4.39799 17.5507C4.59435 17.354 4.86068 17.2435 5.13838 17.2435Z" fill="#E6E6E6"/>
<path d="M6.06123 18.424H77.0431C77.1806 18.424 77.3168 18.4512 77.4438 18.5039C77.5709 18.5566 77.6863 18.6339 77.7835 18.7313C77.8807 18.8287 77.9579 18.9443 78.0105 19.0716C78.0631 19.1989 78.0902 19.3353 78.0902 19.473V66.0688C78.0902 66.2066 78.0631 66.343 78.0105 66.4703C77.9579 66.5975 77.8807 66.7132 77.7835 66.8106C77.6863 66.908 77.5709 66.9853 77.4438 67.038C77.3168 67.0907 77.1806 67.1178 77.0431 67.1178H6.06123C5.78353 67.1178 5.5172 67.0073 5.32084 66.8106C5.12448 66.6139 5.01416 66.347 5.01416 66.0688V19.473C5.01416 19.1948 5.12448 18.928 5.32084 18.7313C5.5172 18.5346 5.78353 18.424 6.06123 18.424Z" fill="white"/>
<path d="M56.1794 50.7933C55.9 50.7931 55.6237 50.7341 55.3685 50.6202C55.3092 50.5938 55.2525 50.5615 55.1995 50.524L50.0408 46.8861C49.7792 46.7016 49.5657 46.4568 49.4183 46.1724C49.2709 45.8879 49.1939 45.5721 49.1938 45.2516V40.2903C49.1939 39.9698 49.2709 39.654 49.4183 39.3695C49.5657 39.085 49.7792 38.8402 50.0408 38.6557L55.1995 35.0179C55.2525 34.9803 55.3092 34.9481 55.3685 34.9217C55.6724 34.7864 56.0052 34.7292 56.3367 34.7555C56.6682 34.7818 56.988 34.8906 57.2668 35.0721C57.5457 35.2537 57.7748 35.5021 57.9335 35.7949C58.0921 36.0877 58.1752 36.4156 58.1752 36.7487V48.7932C58.1752 49.3235 57.9649 49.832 57.5906 50.207C57.2163 50.582 56.7087 50.7926 56.1793 50.7926L56.1794 50.7933Z" fill="#6C63FF"/>
<path d="M44.6342 51.7686H30.2464C27.3111 51.7662 24.9322 49.8653 24.9292 47.5197V38.0221C24.9322 35.6765 27.3111 33.7756 30.2464 33.7732H44.6717C47.5862 33.776 49.948 35.6632 49.9514 37.9921V47.5197C49.9484 49.8653 47.5696 51.7662 44.6342 51.7686Z" fill="#6C63FF"/>
<path d="M70.2637 64.1216C72.6269 64.1216 74.5427 62.2023 74.5427 59.8347C74.5427 57.4671 72.6269 55.5479 70.2637 55.5479C67.9004 55.5479 65.9846 57.4671 65.9846 59.8347C65.9846 62.2023 67.9004 64.1216 70.2637 64.1216Z" fill="#3F3D56"/>
<path d="M72.4861 59.7578L69.0752 57.785C69.0618 57.7772 69.0465 57.7731 69.031 57.7731C69.0154 57.7731 69.0001 57.7772 68.9867 57.785C68.9732 57.7928 68.962 57.804 68.9543 57.8175C68.9465 57.831 68.9424 57.8463 68.9424 57.8618V61.8075C68.9424 61.8231 68.9465 61.8384 68.9543 61.8519C68.962 61.8654 68.9732 61.8766 68.9867 61.8844C69.0001 61.8922 69.0154 61.8963 69.031 61.8963C69.0465 61.8963 69.0618 61.8922 69.0752 61.8844L72.4861 59.9115C72.4996 59.9037 72.5108 59.8925 72.5185 59.8791C72.5263 59.8656 72.5304 59.8503 72.5304 59.8347C72.5304 59.8191 72.5263 59.8038 72.5185 59.7903C72.5108 59.7768 72.4996 59.7656 72.4861 59.7578L69.0752 57.785C69.0618 57.7772 69.0465 57.7731 69.031 57.7731C69.0154 57.7731 69.0001 57.7772 68.9867 57.785C68.9732 57.7928 68.962 57.804 68.9543 57.8175C68.9465 57.831 68.9424 57.8463 68.9424 57.8618V61.8075C68.9424 61.8231 68.9465 61.8384 68.9543 61.8519C68.962 61.8654 68.9732 61.8766 68.9867 61.8844C69.0001 61.8922 69.0154 61.8963 69.031 61.8963C69.0465 61.8963 69.0618 61.8922 69.0752 61.8844L72.4861 59.9115C72.4996 59.9037 72.5108 59.8925 72.5185 59.8791C72.5263 59.8656 72.5304 59.8503 72.5304 59.8347C72.5304 59.8191 72.5263 59.8038 72.5185 59.7903C72.5108 59.7768 72.4996 59.7656 72.4861 59.7578Z" fill="white"/>
</g>
<defs>
<clipPath id="clip0_42_461">
<rect width="119.368" height="72" fill="white"/>
</clipPath>
</defs>
</svg>
