<svg width="120" height="98" viewBox="0 0 120 98" fill="none" xmlns="http://www.w3.org/2000/svg">
<g clip-path="url(#clip0_42_464)">
<path d="M16.1035 92.8398C15.9664 92.8461 15.8307 92.8101 15.7147 92.7368C15.5987 92.6634 15.5082 92.5563 15.4552 92.4298C15.4023 92.3033 15.3895 92.1636 15.4187 92.0296C15.4479 91.8956 15.5176 91.7738 15.6184 91.6808C15.6353 91.6138 15.6474 91.5656 15.6642 91.4986C15.6582 91.484 15.6521 91.4695 15.646 91.4549C15.5079 91.129 15.2765 90.8511 14.9808 90.6562C14.6851 90.4612 14.3383 90.358 13.9841 90.3593C13.6298 90.3606 13.2838 90.4664 12.9896 90.6636C12.6953 90.8607 12.466 91.1403 12.3303 91.4672C11.788 92.772 11.0975 94.0791 10.9275 95.4587C10.8526 96.0685 10.8842 96.6867 11.0209 97.2857C9.74714 94.51 9.08572 91.4932 9.08146 88.4397C9.08119 87.6735 9.12381 86.9078 9.2091 86.1464C9.2796 85.5221 9.37739 84.9023 9.5025 84.2869C10.1852 80.948 11.651 77.8185 13.7794 75.1554C14.8096 74.5939 15.6427 73.7304 16.1665 72.6813C16.3563 72.3041 16.4904 71.9016 16.5647 71.4861C16.4485 71.5013 16.3304 71.5108 16.2141 71.5184C16.1779 71.5203 16.1398 71.5222 16.1036 71.5241L16.09 71.5247C15.9623 71.5305 15.8356 71.4992 15.7253 71.4347C15.6149 71.3702 15.5256 71.2751 15.4681 71.1611C15.4105 71.0471 15.3872 70.9188 15.4009 70.7918C15.4146 70.6649 15.4648 70.5445 15.5453 70.4454C15.5955 70.3837 15.6457 70.322 15.696 70.2604C15.7722 70.1652 15.8503 70.072 15.9265 69.9768C15.9353 69.9678 15.9435 69.9583 15.9512 69.9483C16.0389 69.8398 16.1265 69.7332 16.2141 69.6247C16.0542 69.3767 15.839 69.1689 15.5855 69.0176C14.7072 68.5038 13.4956 68.8596 12.8612 69.6533C12.2249 70.4469 12.1049 71.5603 12.3258 72.5518C12.5431 73.3956 12.9026 74.1962 13.3889 74.9194C13.3413 74.9803 13.2917 75.0393 13.2441 75.1002C12.3735 76.2186 11.6146 77.4196 10.9785 78.6859C11.1332 77.2673 10.9486 75.8322 10.4398 74.4988C9.92415 73.2561 8.95765 72.2095 8.10654 71.1352C7.08421 69.8448 4.98783 70.408 4.80771 72.0438C4.80597 72.0596 4.80427 72.0754 4.80261 72.0913C4.92903 72.1625 5.05278 72.2381 5.17386 72.3181C5.32596 72.4197 5.44382 72.5647 5.51199 72.7343C5.58017 72.9039 5.59547 73.0901 5.5559 73.2685C5.51634 73.4469 5.42374 73.6093 5.29025 73.7342C5.15676 73.8592 4.9886 73.9409 4.8078 73.9688L4.78928 73.9716C4.83432 74.4268 4.91392 74.8779 5.02741 75.321C5.35627 76.558 5.93739 77.7138 6.73434 78.716C7.53129 79.7181 8.52689 80.545 9.65871 81.1448C9.73301 81.1828 9.80542 81.2209 9.87972 81.2571C9.2406 83.0665 8.83971 84.9512 8.68712 86.8639C8.60074 87.9923 8.60583 89.1258 8.70237 90.2534L8.69665 90.2135C8.45278 88.9596 7.78323 87.8282 6.80107 87.0104C5.34232 85.8133 3.28138 85.3725 1.70765 84.4102C1.5404 84.3029 1.34593 84.2457 1.14717 84.2452C0.948421 84.2447 0.753677 84.301 0.585905 84.4075C0.418134 84.5139 0.284332 84.6661 0.200288 84.846C0.116245 85.026 0.0854619 85.2262 0.111569 85.423C0.113677 85.437 0.115826 85.451 0.118008 85.465C0.352604 85.5605 0.581015 85.6704 0.801924 85.7942C0.928344 85.8655 1.0521 85.9411 1.17318 86.0211C1.32528 86.1226 1.44314 86.2677 1.51131 86.4373C1.57949 86.6069 1.59479 86.7931 1.55522 86.9715C1.51565 87.1499 1.42305 87.3122 1.28956 87.4372C1.15607 87.5622 0.987911 87.6439 0.807114 87.6718L0.788587 87.6746C0.775249 87.6765 0.763822 87.6784 0.750506 87.6803C1.15135 88.6365 1.71394 89.5165 2.41364 90.282C3.27801 91.2086 4.32272 91.949 5.48371 92.4579C6.6447 92.9668 7.8975 93.2334 9.1653 93.2414H9.16722C9.51137 94.7355 10.01 96.1897 10.6551 97.5807H15.9703C15.9894 97.5217 16.0065 97.4608 16.0237 97.4018C15.5317 97.4327 15.0377 97.4033 14.5529 97.3143C14.9473 96.8309 15.3416 96.3436 15.736 95.8602C15.7448 95.8512 15.753 95.8417 15.7607 95.8317C15.9608 95.5843 16.1627 95.3388 16.3628 95.0914L16.3629 95.091C16.3735 94.3326 16.2864 93.576 16.1037 92.8399L16.1035 92.8398Z" fill="#F2F2F2"/>
<path d="M103.371 92.8398C103.508 92.8461 103.644 92.8101 103.76 92.7368C103.876 92.6634 103.966 92.5562 104.019 92.4298C104.072 92.3033 104.085 92.1636 104.056 92.0296C104.026 91.8956 103.957 91.7738 103.856 91.6808C103.839 91.6138 103.827 91.5656 103.81 91.4986C103.816 91.484 103.822 91.4694 103.828 91.4549C103.966 91.129 104.198 90.8511 104.494 90.6562C104.789 90.4612 105.136 90.3579 105.49 90.3593C105.845 90.3606 106.191 90.4664 106.485 90.6636C106.779 90.8607 107.008 91.1403 107.144 91.4672C107.686 92.772 108.377 94.0791 108.547 95.4587C108.622 96.0685 108.59 96.6867 108.453 97.2857C109.727 94.51 110.389 91.4932 110.393 88.4397C110.393 87.6735 110.351 86.9078 110.265 86.1464C110.195 85.5221 110.097 84.9023 109.972 84.2869C109.289 80.948 107.823 77.8185 105.695 75.1554C104.665 74.5939 103.832 73.7304 103.308 72.6813C103.118 72.3041 102.984 71.9016 102.91 71.4861C103.026 71.5013 103.144 71.5108 103.26 71.5184C103.296 71.5203 103.335 71.5222 103.371 71.5241L103.384 71.5247C103.512 71.5305 103.639 71.4992 103.749 71.4347C103.859 71.3702 103.949 71.2752 104.006 71.1611C104.064 71.0471 104.087 70.9188 104.073 70.7918C104.06 70.6649 104.01 70.5445 103.929 70.4454C103.879 70.3837 103.829 70.322 103.778 70.2604C103.702 70.1652 103.624 70.072 103.548 69.9768C103.539 69.9678 103.531 69.9583 103.523 69.9483C103.435 69.8398 103.348 69.7332 103.26 69.6247C103.42 69.3767 103.635 69.1689 103.889 69.0176C104.767 68.5038 105.979 68.8596 106.613 69.6533C107.249 70.4469 107.37 71.5603 107.149 72.5518C106.931 73.3956 106.572 74.1962 106.085 74.9194C106.133 74.9803 106.183 75.0393 106.23 75.1002C107.101 76.2186 107.86 77.4196 108.496 78.6859C108.341 77.2673 108.526 75.8322 109.035 74.4988C109.55 73.2561 110.517 72.2095 111.368 71.1352C112.39 69.8448 114.487 70.408 114.667 72.0438C114.668 72.0596 114.67 72.0754 114.672 72.0913C114.545 72.1625 114.422 72.2381 114.301 72.3181C114.148 72.4197 114.031 72.5647 113.962 72.7343C113.894 72.9039 113.879 73.0901 113.918 73.2685C113.958 73.4469 114.051 73.6093 114.184 73.7342C114.318 73.8592 114.486 73.9409 114.667 73.9688L114.685 73.9716C114.64 74.4268 114.56 74.8779 114.447 75.321C114.118 76.558 113.537 77.7138 112.74 78.716C111.943 79.7181 110.947 80.545 109.816 81.1448C109.741 81.1828 109.669 81.2209 109.595 81.257C110.234 83.0664 110.635 84.9512 110.787 86.8638C110.874 87.9923 110.869 89.1258 110.772 90.2534L110.778 90.2135C111.022 88.9596 111.691 87.8282 112.673 87.0104C114.132 85.8133 116.193 85.3724 117.767 84.4102C117.934 84.3029 118.128 84.2457 118.327 84.2452C118.526 84.2447 118.721 84.301 118.888 84.4075C119.056 84.5139 119.19 84.6661 119.274 84.846C119.358 85.026 119.389 85.2262 119.363 85.423C119.361 85.437 119.359 85.451 119.356 85.465C119.122 85.5604 118.893 85.6704 118.672 85.7942C118.546 85.8655 118.422 85.9411 118.301 86.0211C118.149 86.1226 118.031 86.2677 117.963 86.4373C117.895 86.6069 117.88 86.7931 117.919 86.9715C117.959 87.1499 118.051 87.3122 118.185 87.4372C118.318 87.5621 118.486 87.6439 118.667 87.6718L118.686 87.6746C118.699 87.6765 118.711 87.6784 118.724 87.6803C118.323 88.6364 117.76 89.5165 117.061 90.282C116.196 91.2085 115.152 91.949 113.991 92.4579C112.83 92.9668 111.577 93.2334 110.309 93.2414H110.307C109.963 94.7354 109.464 96.1897 108.819 97.5807H103.504C103.485 97.5217 103.468 97.4608 103.451 97.4018C103.943 97.4327 104.437 97.4033 104.921 97.3143C104.527 96.8308 104.133 96.3436 103.738 95.8602C103.73 95.8512 103.721 95.8416 103.714 95.8317C103.514 95.5843 103.312 95.3387 103.112 95.0913L103.111 95.091C103.101 94.3326 103.188 93.576 103.371 92.8398Z" fill="#F2F2F2"/>
<path d="M37.5547 95.2065H38.8415L39.4539 90.2478H37.5547V95.2065Z" fill="#9E616A"/>
<path d="M37.1345 94.3259L39.1904 94.2033V95.0833L41.145 96.4318C41.2415 96.4984 41.3143 96.5941 41.3525 96.7049C41.3908 96.8157 41.3926 96.9358 41.3577 97.0477C41.3227 97.1596 41.2529 97.2575 41.1584 97.3269C41.0639 97.3964 40.9497 97.4338 40.8323 97.4338H38.3847L37.9628 96.5634L37.7981 97.4338H36.8752L37.1345 94.3259Z" fill="#2F2E41"/>
<path d="M21.426 94.1142L22.6216 94.5897L25.0262 90.2089L23.2617 89.5071L21.426 94.1142Z" fill="#9E616A"/>
<path d="M21.3617 93.141L23.3172 93.7867L22.9914 94.6043L24.3082 96.5794C24.3732 96.6769 24.4053 96.7927 24.3999 96.9098C24.3944 97.0269 24.3516 97.1391 24.2777 97.2302C24.2039 97.3212 24.1028 97.3863 23.9893 97.416C23.8758 97.4456 23.7557 97.4382 23.6467 97.3948L21.3727 96.4905L21.3029 95.5259L20.8276 96.2737L19.9702 95.9328L21.3617 93.141Z" fill="#2F2E41"/>
<path d="M34.9605 80.4513L32.8146 70.4473L29.4638 81.5626L24.1579 92.1029L24.1298 92.1588L22.4491 91.2548C22.2119 86.975 22.7752 82.9645 24.8357 79.4576L25.8114 69.832C25.8413 69.503 26.5691 61.7816 28.8736 60.4123L29.5485 58.8749L36.2611 57.2187L36.2855 57.2462C36.931 57.971 37.3574 58.8638 37.5151 59.821L39.5209 71.96L39.522 71.9667L38.9842 80.435L39.7199 92.9285H37.058C35.4113 89.8331 34.7121 85.6741 34.9605 80.4513Z" fill="#2F2E41"/>
<path d="M67.7444 39.6294C67.7444 42.4727 71.9708 47.4659 72.8978 44.7776C74.0327 41.4864 76.4536 39.4001 78.0512 39.6294C80.8684 40.0337 75.7439 34.4811 72.8978 34.4811C71.531 34.4811 70.2202 35.0235 69.2538 35.989C68.2873 36.9545 67.7444 38.264 67.7444 39.6294Z" fill="#E6E6E6"/>
<path d="M66.662 23.5064C65.9936 26.2702 68.9692 28.6546 71.8154 28.6546C72.4921 28.6546 73.1622 28.5215 73.7875 28.2627C74.4127 28.004 74.9808 27.6248 75.4593 27.1467C75.9379 26.6687 76.3175 26.1011 76.5765 25.4765C76.8354 24.8519 76.9687 24.1825 76.9687 23.5064C76.9687 20.6631 73.1326 20.8786 71.8154 18.3581C70.3074 15.4728 68.0986 17.5654 66.662 23.5064Z" fill="#E6E6E6"/>
<path d="M42.8472 23.2901C42.8472 24.6555 43.3901 25.965 44.3566 26.9305C45.323 27.8959 46.6338 28.4383 48.0006 28.4383C50.8467 28.4383 53.2367 26.1322 53.154 23.2901C52.9807 17.3362 50.6718 15.0032 48.0006 18.1419C46.1569 20.308 42.8472 20.4468 42.8472 23.2901Z" fill="#E6E6E6"/>
<path d="M42.4143 39.6294C40.0093 38.5907 44.1862 43.9135 47.5677 44.7776C50.325 45.4822 52.7211 42.4727 52.7211 39.6294C52.7211 38.9533 52.5878 38.2838 52.3288 37.6592C52.0698 37.0346 51.6902 36.4671 51.2117 35.989C50.7331 35.511 50.165 35.1317 49.5398 34.873C48.9145 34.6143 48.2444 34.4811 47.5677 34.4811C44.7215 34.4811 45.0268 40.7576 42.4143 39.6294Z" fill="#E6E6E6"/>
<path d="M100.404 6.38191H16.2449C16.1573 6.38004 16.074 6.344 16.0128 6.2815C15.9515 6.21901 15.9172 6.13502 15.9172 6.04757C15.9172 5.96011 15.9515 5.87613 16.0128 5.81363C16.074 5.75113 16.1573 5.71509 16.2449 5.71323H100.404C100.491 5.71509 100.575 5.75113 100.636 5.81363C100.697 5.87613 100.731 5.96011 100.731 6.04757C100.731 6.13502 100.697 6.21901 100.636 6.2815C100.575 6.344 100.491 6.38004 100.404 6.38191Z" fill="#CACACA"/>
<path d="M21.9738 4.00614C23.057 4.00614 23.9352 3.10933 23.9352 2.00307C23.9352 0.896804 23.057 0 21.9738 0C20.8906 0 20.0125 0.896804 20.0125 2.00307C20.0125 3.10933 20.8906 4.00614 21.9738 4.00614Z" fill="#3F3D56"/>
<path d="M28.7494 4.00614C29.8327 4.00614 30.7108 3.10933 30.7108 2.00307C30.7108 0.896804 29.8327 0 28.7494 0C27.6662 0 26.7881 0.896804 26.7881 2.00307C26.7881 3.10933 27.6662 4.00614 28.7494 4.00614Z" fill="#3F3D56"/>
<path d="M35.5251 4.00614C36.6083 4.00614 37.4864 3.10933 37.4864 2.00307C37.4864 0.896804 36.6083 0 35.5251 0C34.4419 0 33.5637 0.896804 33.5637 2.00307C33.5637 3.10933 34.4419 4.00614 35.5251 4.00614Z" fill="#3F3D56"/>
<path d="M96.3244 0.49649H91.5114C91.4159 0.498376 91.3251 0.537563 91.2583 0.605634C91.1915 0.673705 91.1541 0.765234 91.1541 0.860562C91.1541 0.955891 91.1915 1.04742 91.2583 1.11549C91.3251 1.18356 91.4159 1.22275 91.5114 1.22463H96.3244C96.4198 1.22275 96.5107 1.18356 96.5775 1.11549C96.6443 1.04742 96.6817 0.955891 96.6817 0.860562C96.6817 0.765234 96.6443 0.673705 96.5775 0.605634C96.5107 0.537563 96.4198 0.498376 96.3244 0.49649Z" fill="#3F3D56"/>
<path d="M96.3243 1.8631H91.5113C91.4159 1.865 91.3251 1.90419 91.2583 1.97226C91.1915 2.04033 91.1541 2.13185 91.1541 2.22717C91.1541 2.32249 91.1915 2.41401 91.2583 2.48208C91.3251 2.55015 91.4159 2.58934 91.5113 2.59124H96.3243C96.4197 2.58934 96.5106 2.55015 96.5774 2.48208C96.6442 2.41401 96.6816 2.32249 96.6816 2.22717C96.6816 2.13185 96.6442 2.04033 96.5774 1.97226C96.5106 1.90419 96.4197 1.865 96.3243 1.8631Z" fill="#3F3D56"/>
<path d="M96.3243 3.22791H91.5113C91.4159 3.2298 91.3251 3.26899 91.2583 3.33706C91.1915 3.40513 91.1541 3.49665 91.1541 3.59197C91.1541 3.6873 91.1915 3.77882 91.2583 3.84689C91.3251 3.91496 91.4159 3.95415 91.5113 3.95605H96.3243C96.4197 3.95415 96.5106 3.91496 96.5774 3.84689C96.6442 3.77882 96.6816 3.6873 96.6816 3.59197C96.6816 3.49665 96.6442 3.40513 96.5774 3.33706C96.5106 3.26899 96.4197 3.2298 96.3243 3.22791Z" fill="#3F3D56"/>
<path d="M72.3211 21.1698H65.4278C65.2846 21.1698 65.1427 21.198 65.0104 21.2528C64.878 21.3075 64.7577 21.3878 64.6564 21.489C64.5551 21.5902 64.4748 21.7103 64.42 21.8426C64.3651 21.9748 64.3369 22.1165 64.3369 22.2596V29.146C64.3369 29.435 64.4518 29.7122 64.6564 29.9166C64.861 30.121 65.1385 30.2358 65.4278 30.2358H72.3211C72.6104 30.2358 72.8879 30.121 73.0925 29.9166C73.297 29.7122 73.412 29.435 73.412 29.146V22.2596C73.412 21.9706 73.297 21.6934 73.0925 21.489C72.8879 21.2846 72.6104 21.1698 72.3211 21.1698ZM71.0267 23.4947H70.2362C69.6965 23.4947 69.5914 23.75 69.5914 24.1269V24.9262H70.8786L70.7115 26.1811H69.589V29.4534C69.1091 29.5434 68.6165 29.5423 68.137 29.45V26.1811H67.1077V24.9262H68.1561V23.9981C68.1561 22.8887 68.9275 22.2827 69.921 22.2827C70.3986 22.2827 70.9097 22.3185 71.0267 22.3352V23.4947Z" fill="#6C63FF"/>
<path d="M55.0786 21.1698H48.1854C47.8961 21.1698 47.6186 21.2846 47.414 21.489C47.2094 21.6934 47.0945 21.9706 47.0945 22.2596V29.146C47.0945 29.435 47.2094 29.7122 47.414 29.9166C47.6186 30.121 47.8961 30.2358 48.1854 30.2358H55.0786C55.368 30.2358 55.6454 30.121 55.85 29.9166C56.0546 29.7122 56.1695 29.435 56.1695 29.146V22.2596C56.1695 21.9706 56.0546 21.6934 55.85 21.489C55.6454 21.2846 55.368 21.1698 55.0786 21.1698ZM51.632 28.1204C51.1534 28.1204 50.6855 27.9786 50.2875 27.713C49.8896 27.4473 49.5794 27.0697 49.3962 26.628C49.213 26.1862 49.1651 25.7001 49.2585 25.2312C49.3519 24.7622 49.5823 24.3314 49.9208 23.9933C50.2592 23.6552 50.6904 23.4249 51.1599 23.3317C51.6293 23.2384 52.1159 23.2862 52.5581 23.4692C53.0003 23.6522 53.3783 23.9621 53.6442 24.3597C53.9101 24.7572 54.052 25.2246 54.052 25.7028C54.052 26.344 53.7971 26.9589 53.3432 27.4123C52.8894 27.8657 52.2738 28.1204 51.632 28.1204ZM54.3545 23.2852C54.2349 23.2852 54.1179 23.2498 54.0184 23.1833C53.9189 23.1169 53.8414 23.0225 53.7956 22.9121C53.7498 22.8017 53.7378 22.6801 53.7611 22.5629C53.7845 22.4456 53.8421 22.3379 53.9267 22.2534C54.0113 22.1689 54.1191 22.1113 54.2365 22.088C54.3539 22.0647 54.4755 22.0767 54.586 22.1224C54.6966 22.1682 54.7911 22.2456 54.8576 22.345C54.9241 22.4444 54.9595 22.5613 54.9595 22.6808C54.9595 22.8411 54.8958 22.9948 54.7823 23.1082C54.6689 23.2215 54.515 23.2852 54.3545 23.2852Z" fill="#6C63FF"/>
<path d="M73.9818 37.4348C74.1784 37.4362 74.3723 37.4806 74.5498 37.565C74.7273 37.6493 74.8842 37.7715 75.0093 37.923C75.1344 38.0744 75.2248 38.2514 75.2741 38.4416C75.3233 38.6317 75.3302 38.8303 75.2943 39.0233L77.8698 40.6975L77.2332 42.5092L73.6293 40.0939C73.3086 40.0122 73.0291 39.8158 72.8436 39.5419C72.6582 39.268 72.5798 38.9357 72.6233 38.608C72.6667 38.2802 72.829 37.9797 73.0794 37.7635C73.3298 37.5473 73.6509 37.4303 73.9818 37.4348Z" fill="#FFB6B6"/>
<path d="M74.8992 41.8372L76.7374 39.7169L79.1126 40.8174L83.9664 44.6763C84.6028 44.7506 89.4312 45.3731 89.3424 47.1446C89.3403 47.3516 89.2933 47.5557 89.2047 47.7429C89.116 47.93 88.9879 48.0958 88.8291 48.2288C88.067 48.8572 86.7463 48.6789 86.697 48.6716L83.5371 48.5136C83.3718 48.5534 81.6565 48.9471 80.7485 48.3838C80.4731 48.2128 74.8992 41.8372 74.8992 41.8372Z" fill="#3F3D56"/>
<path d="M80.2005 95.9925L78.6949 95.9923L77.9788 90.191H80.2007L80.2005 95.9925Z" fill="#FFB6B6"/>
<path d="M80.5843 97.4503L75.7297 97.4502V97.3888C75.7298 96.8882 75.9289 96.4081 76.2832 96.0541C76.6376 95.7001 77.1182 95.5012 77.6193 95.5012L78.5061 94.8291L80.1606 95.5013L80.5844 95.5013L80.5843 97.4503Z" fill="#2F2E41"/>
<path d="M96.7254 94.8152L95.2742 95.2157L93.0376 89.8142L95.1795 89.2232L96.7254 94.8152Z" fill="#FFB6B6"/>
<path d="M97.4841 96.1185L92.8047 97.4096L92.7884 97.3505C92.655 96.8679 92.7189 96.3522 92.9661 95.9167C93.2134 95.4812 93.6236 95.1617 94.1066 95.0284L94.7823 94.1447L96.5563 94.3525L96.9647 94.2398L97.4841 96.1185Z" fill="#2F2E41"/>
<path d="M80.2669 60.8833L91.6433 61.4632L91.647 61.4734C92.3285 63.3645 92.4876 65.4039 92.1077 67.3776L92.4559 70.2769L94.1972 79.3225L96.5189 90.9195C96.5189 90.9195 99.5372 91.7313 95.5902 93.123C91.6433 94.5146 92.4559 93.7028 93.0363 92.6591C93.6168 91.6154 90.1922 79.8444 90.1922 79.8444L86.0131 70.4508L81.9501 80.1923L81.4858 90.9775C81.4858 90.9775 82.7047 92.4272 79.2221 93.007C75.7395 93.5869 75.9137 92.4851 76.7263 91.6733C77.5389 90.8616 78.2354 80.0763 78.2354 80.0763L79.048 69.871C79.048 69.871 78.8158 63.9565 80.2669 60.8833Z" fill="#2F2E41"/>
<path d="M91.3907 47.6341L90.4759 45.2373L87.5304 42.339L83.7999 42.0464L81.0582 44.4987L80.2829 46.9382C81.2997 51.6419 81.2789 55.974 79.8381 60.171C79.7358 60.4611 79.698 60.7701 79.7275 61.0763C79.757 61.3825 79.8529 61.6786 80.0087 61.944C80.1645 62.2094 80.3764 62.4376 80.6296 62.6127C80.8827 62.7879 81.1711 62.9057 81.4745 62.9581C85.7007 63.6676 93.5703 64.7314 93.0282 62.7062C92.3112 60.0272 89.8165 54.2609 90.7406 51.2118C91.0769 50.1525 91.2885 49.0576 91.3712 47.9493L91.3907 47.6341Z" fill="#3F3D56"/>
<path d="M85.0379 41.1112C86.8767 41.1112 88.3674 39.622 88.3674 37.785C88.3674 35.9481 86.8767 34.4589 85.0379 34.4589C83.1991 34.4589 81.7085 35.9481 81.7085 37.785C81.7085 39.622 83.1991 41.1112 85.0379 41.1112Z" fill="#FFB6B6"/>
<path d="M84.1294 40.9364L86.6673 40.8071C86.9925 40.7905 87.3474 40.7619 87.5839 40.5383C87.7112 40.4002 87.809 40.2378 87.8716 40.0609C88.1062 39.5164 88.3409 38.972 88.5695 38.425C88.8858 37.6684 89.1963 36.8695 89.1156 36.0535C89.0967 35.6809 88.9403 35.3285 88.6765 35.0644C88.5419 34.9371 88.3689 34.8579 88.1845 34.8392C88.0001 34.8206 87.8147 34.8634 87.6573 34.9612C87.6182 34.7031 87.5209 34.4573 87.3727 34.2423C87.2245 34.0273 87.0293 33.8489 86.8018 33.7203C86.3426 33.4669 85.8182 33.3558 85.2955 33.4013C84.5369 33.4501 83.8128 33.7352 83.2249 34.2165C83.0596 34.3689 82.883 34.5087 82.6967 34.6347C82.603 34.6973 82.4975 34.7401 82.3867 34.7606C82.2758 34.7811 82.162 34.7788 82.0521 34.7538C81.9432 34.7248 81.8485 34.6573 81.7856 34.5639C81.7226 34.4705 81.6956 34.3575 81.7096 34.2458C81.5308 34.3793 81.4083 34.5746 81.3658 34.7934C81.3234 35.0123 81.3641 35.2392 81.48 35.4297C81.3482 35.4848 81.2044 35.505 81.0626 35.4882C80.9207 35.4715 80.7856 35.4183 80.6704 35.334C80.547 35.3952 80.4377 35.4815 80.3495 35.5873C80.2614 35.6932 80.1963 35.8162 80.1585 35.9486C80.1208 36.081 80.1111 36.2198 80.1301 36.3562C80.1491 36.4925 80.1964 36.6234 80.269 36.7405C80.3416 36.8575 80.4378 36.9581 80.5516 37.0358C80.6653 37.1135 80.7941 37.1667 80.9296 37.1918C81.0651 37.217 81.2043 37.2136 81.3384 37.1818C81.4725 37.1501 81.5985 37.0908 81.7083 37.0076C81.8624 37.2231 81.805 37.516 81.7849 37.78C81.7649 38.0441 81.8358 38.3723 82.0906 38.4453C82.4351 38.5439 82.7141 38.0805 83.0724 38.0855C83.1608 38.0927 83.2461 38.1215 83.3206 38.1695C83.3952 38.2175 83.4567 38.2831 83.4998 38.3606C83.5842 38.5162 83.642 38.6848 83.6708 38.8595L84.1294 40.922" fill="#2F2E41"/>
<path d="M67.1298 46.2285C65.8621 46.2294 64.6214 45.862 63.5589 45.1711L63.0242 44.8239L63.658 44.8942C63.824 44.9126 64.0029 44.9234 64.1894 44.926C65.0438 44.9267 65.8802 44.6811 66.5984 44.2188C66.1716 44.1264 65.7764 43.9243 65.4518 43.6325C65.1272 43.3407 64.8846 42.9693 64.7478 42.5551L64.6684 42.3107L64.9207 42.3601C65.0353 42.3828 65.1516 42.3959 65.2684 42.3992C64.8686 42.1937 64.5329 41.8823 64.2983 41.4991C64.0636 41.1158 63.9389 40.6755 63.9379 40.2263V39.9675L64.1634 40.0671C64.2972 40.1423 64.4389 40.2025 64.5859 40.2465C64.2381 39.8567 64.0222 39.3674 63.9687 38.8481C63.9152 38.3287 64.0268 37.8057 64.2878 37.3533L64.398 37.1634L64.5362 37.3338C65.5432 38.5787 66.9861 39.3946 68.5728 39.6164C68.6163 39.6226 68.6606 39.6194 68.7027 39.6068C68.7449 39.5942 68.7838 39.5727 68.8168 39.5437C68.8505 39.5144 68.8775 39.4782 68.8961 39.4376C68.9146 39.397 68.9242 39.3528 68.9241 39.3082C68.9204 38.8251 69.0608 38.3519 69.3273 37.9488C69.5938 37.5458 69.9745 37.2311 70.4207 37.045C70.8669 36.8589 71.3585 36.8097 71.8328 36.9037C72.3071 36.9978 72.7426 37.2308 73.0838 37.573C73.5508 37.4712 73.9985 37.2956 74.41 37.0528L74.7572 36.8474L74.6306 37.2301C74.5134 37.5852 74.3167 37.9089 74.0555 38.1767C74.2872 38.1164 74.5138 38.0378 74.7331 37.9416L75.2036 37.7351L74.9201 38.1633C74.6198 38.6176 74.2447 39.0178 73.8106 39.347V39.5654C73.8106 42.8407 71.3167 46.2285 67.1433 46.2285L67.1298 46.2285Z" fill="#6C63FF"/>
<path d="M70.1195 43.8964C70.3159 43.8884 70.5117 43.9234 70.6931 43.9991C70.8745 44.0748 71.0371 44.1893 71.1694 44.3345C71.3017 44.4798 71.4005 44.6523 71.4588 44.8398C71.5172 45.0273 71.5337 45.2253 71.5072 45.4199L74.1604 46.9682L73.6119 48.8084L69.8957 46.5694C69.5714 46.5032 69.2827 46.3205 69.0843 46.0559C68.8859 45.7912 68.7916 45.4631 68.8192 45.1336C68.8467 44.8041 68.9944 44.4962 69.234 44.2682C69.4737 44.0402 69.7887 43.9079 70.1195 43.8964Z" fill="#FFB6B6"/>
<path d="M73.2437 49.6737L71.262 47.5314L72.6357 45.4795L74.1163 46.7205L75.7351 47.1075L78.0193 47.9727C78.3373 47.4171 80.8046 43.2243 82.4009 44.0008C82.5907 44.084 82.7601 44.2073 82.8977 44.3621C83.0353 44.517 83.1376 44.6997 83.1978 44.8978C83.4775 45.8447 82.7952 46.9883 82.7691 47.0308L81.3841 49.8725C81.3559 50.0401 81.0455 51.7707 80.1706 52.3841C80.047 52.4744 79.9059 52.5381 79.7563 52.5711C79.6067 52.6041 79.4519 52.6057 79.3017 52.5759C76.5831 52.0622 74.6675 51.2679 73.69 50.2575C73.5177 50.0821 73.3677 49.886 73.2437 49.6737Z" fill="#3F3D56"/>
<path d="M37.9938 41.3912C37.6887 40.7357 38.1729 40.0039 38.3456 39.2983C38.668 37.9816 37.7596 36.5561 36.5284 36.0999C35.2971 35.6436 33.8822 36.0249 32.8245 36.8233C31.7877 37.6059 31.0588 37.9746 30.3446 39.0804C30.1051 39.4512 29.8515 40.6025 29.8062 41.0466C29.7609 41.4908 29.9908 41.9997 30.4102 42.0971C30.37 42.1763 30.3524 42.265 30.3592 42.3536C30.366 42.4421 30.397 42.5271 30.4488 42.5993C30.5006 42.6715 30.5712 42.7281 30.653 42.763C30.7347 42.7979 30.8245 42.8096 30.9125 42.7971C31.7151 42.6422 33.1893 43.068 33.1893 43.068C34.5637 43.1466 35.9381 43.2252 37.3125 43.3038C37.6647 43.3239 38.0301 43.3422 38.3466 43.1478C38.4341 43.0966 38.5095 43.0271 38.5676 42.944C38.6257 42.861 38.6651 42.7663 38.6831 42.6666C38.7635 42.1465 38.204 41.8431 37.9938 41.3912Z" fill="#2F2E41"/>
<path d="M39.0316 47.1261L38.7308 49.126L38.2539 52.2945L38.1731 53.4684L37.5795 62.0727L35.9449 63.3289C34.9984 64.0562 33.817 64.41 32.6262 64.3227C31.4353 64.2354 30.3183 63.7131 29.4882 62.8556L27.5032 61.9008C28.567 60.8553 28.3692 56.0096 28.3692 56.0096L28.3573 46.4921L31.048 45.5882L31.9344 43.8451H35.114L35.9089 45.698L37.3517 46.3571L38.0088 46.6589L39.0316 47.1261Z" fill="#E6E6E6"/>
<path d="M33.6554 42.9512C35.1402 42.9512 36.3438 41.7487 36.3438 40.2655C36.3438 38.7822 35.1402 37.5797 33.6554 37.5797C32.1707 37.5797 30.967 38.7822 30.967 40.2655C30.967 41.7487 32.1707 42.9512 33.6554 42.9512Z" fill="#9E616A"/>
<path d="M32.1196 39.423C31.4093 39.4242 30.7161 39.2057 30.1351 38.7976L30.1157 38.784C30.1157 38.4409 30.1834 38.1012 30.3148 37.7843C30.4462 37.4673 30.6388 37.1794 30.8816 36.9368C31.1245 36.6942 31.4127 36.5018 31.73 36.3705C32.0473 36.2392 32.3873 36.1716 32.7307 36.1716H33.7981C34.1393 36.172 34.477 36.2396 34.7919 36.3706C35.1069 36.5015 35.3929 36.6932 35.6336 36.9347C35.8743 37.1762 36.0649 37.4628 36.1946 37.778C36.3243 38.0932 36.3905 38.4309 36.3894 38.7717C36.3872 38.9273 36.3243 39.0758 36.2141 39.1857C36.1038 39.2956 35.955 39.3582 35.7993 39.3602L32.1809 39.4225C32.1605 39.4228 32.14 39.423 32.1196 39.423Z" fill="#2F2E41"/>
<path d="M39.989 52.6475L37.5538 52.6674L37.3748 56.9974L35.3963 59.4173C35.1556 59.4578 34.9308 59.5639 34.7467 59.7241C34.5626 59.8842 34.4264 60.092 34.3531 60.3246C34.2798 60.5572 34.2723 60.8055 34.3314 61.042C34.3905 61.2786 34.5139 61.4943 34.688 61.6652C34.8621 61.8361 35.0801 61.9556 35.3179 62.0105C35.5557 62.0654 35.8041 62.0536 36.0356 61.9764C36.2671 61.8991 36.4727 61.7594 36.6298 61.5728C36.7868 61.3861 36.8891 61.1597 36.9255 60.9186L39.6511 57.1439L39.989 52.6475Z" fill="#9E616A"/>
<path d="M27.149 52.7769L24.6527 51.6111L21.9269 54.9824L18.8946 55.7485C18.6772 55.6378 18.4333 55.5893 18.19 55.6083C17.9466 55.6274 17.7133 55.7132 17.5157 55.8564C17.3182 55.9996 17.1641 56.1946 17.0705 56.4198C16.9769 56.645 16.9474 56.8916 16.9853 57.1325C17.0232 57.3734 17.127 57.5991 17.2853 57.7847C17.4435 57.9704 17.6501 58.1087 17.8821 58.1844C18.1141 58.2602 18.3626 58.2704 18.6 58.2139C18.8375 58.1574 19.0547 58.0365 19.2276 57.8644L23.6678 56.4548L27.149 52.7769Z" fill="#9E616A"/>
<path d="M35.0007 42.7439L35.9315 41.5839C36.032 41.4822 36.0974 41.3512 36.1183 41.2099C36.1232 41.068 35.9894 40.9162 35.8545 40.9607C35.7293 41.0019 35.0079 39.1964 34.8761 39.1967C34.7395 39.1971 34.6949 39.0152 34.6932 38.8787C34.6866 38.3615 35.1074 38.9168 35.2466 38.4187C35.3857 37.9205 35.928 38.3488 36.3953 38.1263C36.8627 37.9038 37.4977 38.0049 37.7867 38.4341C38.0009 38.7523 37.993 39.1657 37.9645 39.5482C37.8986 40.4356 37.7649 41.3168 37.5647 42.1839C37.5155 42.3969 37.4423 42.6349 37.2458 42.7311C37.1377 42.7739 37.0211 42.7913 36.9052 42.782L35.4721 42.7749" fill="#2F2E41"/>
<path d="M37.2338 37.7569C37.9655 37.7569 38.5586 37.1644 38.5586 36.4334C38.5586 35.7024 37.9655 35.1099 37.2338 35.1099C36.5021 35.1099 35.9089 35.7024 35.9089 36.4334C35.9089 37.1644 36.5021 37.7569 37.2338 37.7569Z" fill="#2F2E41"/>
<path d="M40.2133 52.6055C40.0702 52.8544 39.7655 52.9536 39.4873 53.0304C39.111 53.1349 39.0011 53.2408 38.6248 53.3454C38.4751 53.3877 38.3241 53.4301 38.173 53.4685C37.9251 53.5352 37.6733 53.5869 37.4192 53.6233C37.2059 53.6538 36.9542 53.6538 36.8151 53.4883C36.7228 53.3462 36.6856 53.1754 36.7104 53.0079C36.7647 50.975 36.8195 48.942 36.8747 46.9091L36.9899 46.9488C37.0418 46.9146 37.0958 46.8837 37.1516 46.8561C37.4168 46.7212 37.7111 46.6534 38.0087 46.6589C38.179 46.6603 38.3482 46.6866 38.5108 46.737C38.7634 46.8171 38.9954 46.9512 39.1908 47.1299C39.3862 47.3086 39.5402 47.5278 39.6423 47.772C39.7744 48.1407 39.8373 48.5306 39.8277 48.9222C39.8291 48.9817 39.8291 49.0413 39.8304 49.1008C39.8383 49.6091 39.58 50.1173 39.588 50.6255C39.5819 50.7686 39.6016 50.9116 39.6462 51.0477C39.6992 51.1827 39.8026 51.2952 39.8423 51.4355C39.8821 51.5745 39.8171 51.7651 39.6727 51.7757C39.7748 51.7648 39.8778 51.7824 39.9704 51.8264C40.0631 51.8704 40.1418 51.9391 40.1977 52.025C40.2537 52.1109 40.2847 52.2106 40.2875 52.3131C40.2902 52.4155 40.2645 52.5168 40.2133 52.6055Z" fill="#E6E6E6"/>
<path d="M28.3683 46.5037C28.6332 46.5196 28.8914 46.5937 29.1243 46.7208C29.3573 46.8479 29.5592 47.0248 29.7159 47.2389C29.8725 47.4529 29.9799 47.6989 30.0304 47.9592C30.0808 48.2195 30.0732 48.4877 30.008 48.7447C29.8695 49.1741 29.6518 49.5738 29.3662 49.9232L28.4757 51.1613C28.3853 51.2723 28.3158 51.3986 28.2706 51.5343C28.2331 51.6747 28.2479 51.8269 28.1966 51.9629C28.1453 52.0988 27.98 52.2129 27.8573 52.1349C27.9457 52.1869 28.018 52.2623 28.0662 52.3528C28.1144 52.4432 28.1366 52.5452 28.1304 52.6475C28.1242 52.7498 28.0899 52.8484 28.0311 52.9324C27.9723 53.0164 27.8915 53.0826 27.7975 53.1236C27.5332 53.2388 27.2297 53.136 26.9605 53.0331L25.867 52.615C25.4781 52.4764 25.0991 52.3114 24.7327 52.1211C24.5434 52.0173 24.3414 51.8678 24.3279 51.6526C24.3175 51.485 24.4593 51.3562 24.5304 51.2041C25.421 49.2993 26.7306 47.7837 28.3572 46.4922L28.3683 46.5037Z" fill="#E6E6E6"/>
<path d="M29.6479 57.9699C29.6479 56.9048 28.8622 56.0466 27.8794 56.0466C26.5631 55.9835 25.224 55.9608 23.8547 55.9608H23.4277C22.0609 55.9608 20.7168 55.9835 19.4031 56.0466C18.4354 56.0466 17.6497 56.9073 17.6497 57.9749C17.5891 58.8204 17.5638 59.6634 17.5663 60.4989C17.5689 61.3343 17.5891 62.1874 17.6472 63.0228C17.6472 64.0904 18.4329 64.9561 19.4005 64.9561C20.78 65.0192 22.1973 65.047 23.6374 65.047C25.0775 65.047 26.4923 65.0217 27.8768 64.9561C28.847 64.9561 29.6454 64.0904 29.6454 63.0228C29.7009 62.1773 29.7287 61.3343 29.7262 60.4862C29.7237 59.6382 29.7035 58.8003 29.6479 57.9623L29.6479 57.9699ZM22.4904 62.8335V58.1743L25.9315 60.5014L22.4904 62.8335Z" fill="#6C63FF"/>
<path d="M119.292 97.9431L0.220669 98C0.162279 97.9998 0.106337 97.9765 0.0651083 97.9352C0.0238801 97.8939 0.000732422 97.838 0.000732422 97.7796C0.000732422 97.7213 0.0238801 97.6654 0.0651083 97.6241C0.106337 97.5827 0.162279 97.5595 0.220669 97.5593L119.292 97.5024C119.35 97.5026 119.406 97.5259 119.447 97.5672C119.489 97.6085 119.512 97.6644 119.512 97.7228C119.512 97.7811 119.489 97.837 119.447 97.8784C119.406 97.9197 119.35 97.943 119.292 97.9431Z" fill="#CACACA"/>
</g>
<defs>
<clipPath id="clip0_42_464">
<rect width="119.512" height="98" fill="white"/>
</clipPath>
</defs>
</svg>
